<svg width="139" height="42" viewBox="0 0 139 42" fill="none" xmlns="http://www.w3.org/2000/svg">
<path fill-rule="evenodd" clip-rule="evenodd" d="M0 41.9994L8.88953 0H20.3189L29.093 41.9994H20.4921L18.6955 33.2022H10.5884L8.77409 41.9994H0ZM17.1887 25.8239L14.662 13.4512L12.1102 25.8239H17.1887Z" fill="#C60C31"/>
<path fill-rule="evenodd" clip-rule="evenodd" d="M30.8248 41.9994V0L46.6412 0.113512C46.6412 0.113512 56.3966 0 56.3966 10.6701C56.3966 18.1619 50.5664 20.2051 50.5664 20.2051C50.5664 20.2051 56.3966 21.0564 56.1657 30.7617C56.1657 42.2832 46.2371 41.9994 46.2371 41.9994H30.8248ZM40.811 7.26476V16.743H44.3322C44.3322 16.743 46.6412 16.743 46.6412 12.089C46.6412 7.43502 43.8704 7.26476 43.8704 7.26476H40.811ZM40.811 34.7914V24.178H43.8704C43.8704 24.178 46.9298 23.724 46.9298 29.1158C46.9298 34.5076 44.3322 34.7914 44.3322 34.7914H40.811Z" fill="#C60C31"/>
<path fill-rule="evenodd" clip-rule="evenodd" d="M58.9942 41.9994V0L74.8106 0.113512C74.8106 0.113512 84.566 0 84.566 10.6701C84.566 18.1619 78.7359 20.2051 78.7359 20.2051C78.7359 20.2051 84.566 21.0564 84.3351 30.7617C84.3351 42.2832 74.4066 41.9994 74.4066 41.9994H58.9942ZM68.9805 7.26476V16.743H72.5017C72.5017 16.743 74.8106 16.743 74.8106 12.089C74.8106 7.43502 72.0399 7.26476 72.0399 7.26476H68.9805ZM68.9805 34.7914V24.178H72.0399C72.0399 24.178 75.0993 23.724 75.0993 29.1158C75.0993 34.5076 72.5017 34.7914 72.5017 34.7914H68.9805Z" fill="#C60C31"/>
<path d="M110.946 0.113512L102.634 27.6401V41.9994H92.532V27.6401L84.3351 0L93.1092 0.0374269L97.7849 16.743L102.028 0.0754694L110.946 0.113512Z" fill="#C60C31"/>
<path d="M139 0.113512L130.688 27.6401V41.9994H120.586V27.6401L112.389 0L121.163 0.0374269L125.839 16.743L130.082 0.0754694L139 0.113512Z" fill="#C60C31"/>
</svg>
