<svg width="250" height="125" viewBox="0 0 250 125" fill="none" xmlns="http://www.w3.org/2000/svg">
<path fill-rule="evenodd" clip-rule="evenodd" d="M96.7945 20.0701H153.2C161.301 20.0701 167.924 26.695 167.924 34.7965V91.2016C167.924 99.2991 161.301 105.922 153.2 105.922H96.7945C88.6969 105.922 82.07 99.2991 82.07 91.2016V34.7985C82.072 26.697 88.6989 20.0701 96.7945 20.0701Z" fill="white"/>
<path fill-rule="evenodd" clip-rule="evenodd" d="M95.435 18H154.565C163.054 18 169.998 24.9445 169.998 33.437V92.565C169.998 101.054 163.052 107.998 154.565 107.998H95.435C86.9464 107.998 80 101.052 80 92.565V33.437C80 24.9445 86.9484 18 95.435 18ZM113.083 24.7023H136.919C139.642 24.7023 141.867 26.9291 141.867 29.6521V46.1291H158.348C161.065 46.1291 163.296 48.3559 163.296 51.0809V74.9171C163.296 77.6361 161.067 79.8669 158.348 79.8669H141.867V96.3399C141.867 99.0629 139.64 101.294 136.919 101.294H113.083C110.362 101.294 108.131 99.0629 108.131 96.3399V79.8669H91.6561C88.9311 79.8669 86.7023 77.6342 86.7023 74.9171V51.0809C86.7023 48.3579 88.9291 46.1291 91.6561 46.1291H108.131V29.6521C108.131 26.9291 110.362 24.7023 113.083 24.7023Z" fill="#0A4697"/>
<path fill-rule="evenodd" clip-rule="evenodd" d="M135.504 63.8445H134.631C134.256 63.8445 133.938 63.8723 133.678 63.9239C133.418 63.9834 133.202 64.0608 133.041 64.174C132.872 64.2831 132.757 64.4181 132.678 64.5709C132.598 64.7257 132.565 64.9043 132.565 65.1028C132.565 65.4481 132.67 65.7161 132.888 65.9066C133.105 66.107 133.4 66.2023 133.785 66.2023C134.111 66.2023 134.408 66.119 134.678 65.9542C134.946 65.7935 135.222 65.5474 135.5 65.2318V63.8445H135.504ZM137.761 67.3336C137.761 67.4229 137.731 67.4864 137.667 67.538C137.61 67.5837 137.513 67.6134 137.382 67.6412C137.249 67.663 137.056 67.673 136.8 67.673C136.53 67.673 136.328 67.663 136.205 67.6412C136.082 67.6134 135.994 67.5837 135.939 67.538C135.891 67.4844 135.863 67.4209 135.863 67.3336V66.6866C135.526 67.0438 135.145 67.3276 134.718 67.5261C134.285 67.7285 133.809 67.8278 133.287 67.8278C132.852 67.8278 132.456 67.7742 132.094 67.663C131.733 67.5499 131.421 67.3812 131.154 67.1609C130.888 66.9367 130.685 66.6608 130.534 66.3333C130.391 66.0038 130.318 65.6188 130.318 65.1842C130.318 64.7078 130.411 64.293 130.598 63.9477C130.786 63.5924 131.062 63.3086 131.429 63.0784C131.799 62.8502 132.255 62.6874 132.805 62.5743C133.355 62.4651 133.99 62.4056 134.712 62.4056L135.506 62.4036V61.9174C135.506 61.6574 135.482 61.4351 135.429 61.2465C135.379 61.056 135.292 60.8972 135.175 60.7642C135.052 60.6372 134.893 60.5459 134.698 60.4844C134.5 60.4268 134.254 60.3951 133.964 60.3951C133.581 60.3951 133.236 60.4328 132.934 60.5221C132.634 60.6055 132.366 60.6968 132.136 60.8059C131.906 60.9071 131.711 61.0044 131.556 61.0838C131.402 61.1731 131.279 61.2108 131.175 61.2108C131.112 61.2108 131.052 61.1949 131.001 61.1532C130.949 61.1096 130.907 61.052 130.874 60.9687C130.842 60.8893 130.814 60.79 130.794 60.6769C130.776 60.5598 130.771 60.4328 130.771 60.2899C130.771 60.1073 130.782 59.9565 130.814 59.8414C130.846 59.7362 130.905 59.6369 130.985 59.5456C131.074 59.4583 131.223 59.3631 131.429 59.2559C131.648 59.1507 131.9 59.0515 132.186 58.9602C132.469 58.8708 132.781 58.7915 133.118 58.7319C133.458 58.6783 133.807 58.6505 134.164 58.6505C134.799 58.6505 135.353 58.7121 135.806 58.8391C136.258 58.9621 136.631 59.1566 136.925 59.4166C137.215 59.6707 137.433 60.0041 137.562 60.413C137.695 60.8178 137.765 61.3021 137.765 61.8638V67.3336H137.761ZM130.27 67.3157C130.27 67.3792 130.251 67.4328 130.219 67.4805C130.183 67.5202 130.124 67.5598 130.036 67.5876C129.949 67.6134 129.832 67.6353 129.677 67.6472C129.524 67.667 129.326 67.673 129.084 67.673C128.833 67.673 128.631 67.671 128.476 67.6551C128.321 67.6412 128.19 67.6194 128.091 67.5956C127.992 67.5678 127.917 67.5301 127.861 67.4824C127.803 67.4328 127.756 67.3693 127.716 67.2879L125.001 62.999V67.3018C125.001 67.3673 124.987 67.4209 124.947 67.4666C124.91 67.5122 124.848 67.5499 124.761 67.5797C124.672 67.6095 124.556 67.6333 124.412 67.6452C124.265 67.665 124.08 67.671 123.856 67.671C123.628 67.671 123.443 67.665 123.296 67.6452C123.153 67.6333 123.034 67.6075 122.947 67.5797C122.858 67.5499 122.796 67.5102 122.76 67.4666C122.721 67.4209 122.705 67.3693 122.705 67.3018V55.2964C122.705 55.2369 122.721 55.1813 122.76 55.1337C122.796 55.0841 122.858 55.0444 122.947 55.0066C123.034 54.9808 123.153 54.957 123.296 54.9332C123.443 54.9173 123.628 54.9034 123.856 54.9034C124.082 54.9034 124.265 54.9173 124.412 54.9332C124.556 54.957 124.672 54.9808 124.761 55.0066C124.848 55.0444 124.91 55.0841 124.947 55.1337C124.987 55.1813 125.001 55.2369 125.001 55.2964V62.4493L127.416 59.2102C127.458 59.1328 127.516 59.0693 127.579 59.0177C127.641 58.9641 127.72 58.9185 127.821 58.8867C127.919 58.855 128.048 58.8371 128.192 58.8212C128.343 58.8054 128.534 58.7994 128.764 58.7994C128.994 58.7994 129.183 58.8054 129.336 58.8212C129.49 58.8371 129.615 58.855 129.713 58.8867C129.806 58.9185 129.871 58.9582 129.909 59.0018C129.945 59.0455 129.963 59.107 129.963 59.1705C129.963 59.2598 129.941 59.3611 129.897 59.4663C129.852 59.5675 129.78 59.6786 129.689 59.7898L127.309 62.4949L130.062 66.762C130.141 66.8831 130.189 66.9843 130.225 67.0736C130.251 67.1629 130.27 67.2443 130.27 67.3157ZM119.436 62.3361C119.454 61.6971 119.327 61.187 119.051 60.8158C118.771 60.4507 118.344 60.2681 117.765 60.2681C117.471 60.2681 117.217 60.3217 117.007 60.4288C116.786 60.538 116.61 60.6849 116.467 60.8694C116.326 61.058 116.213 61.2783 116.135 61.5303C116.062 61.7844 116.018 62.0503 116.008 62.3341H119.436V62.3361ZM121.665 63.001C121.665 63.2769 121.601 63.4813 121.476 63.6182C121.351 63.7532 121.182 63.8167 120.964 63.8167H116.006C116.006 64.166 116.044 64.4816 116.127 64.7634C116.213 65.0452 116.342 65.2874 116.518 65.4839C116.699 65.6823 116.929 65.8332 117.215 65.9364C117.499 66.0396 117.838 66.0932 118.233 66.0932C118.638 66.0932 118.989 66.0634 119.289 66.0098C119.599 65.9483 119.861 65.8867 120.083 65.8133C120.303 65.7438 120.49 65.6803 120.635 65.6248C120.78 65.5652 120.903 65.5374 120.99 65.5374C121.046 65.5374 121.093 65.5474 121.125 65.5692C121.163 65.5871 121.194 65.6268 121.222 65.6843C121.244 65.7379 121.26 65.8153 121.27 65.9205C121.282 66.0177 121.284 66.1428 121.284 66.2976C121.284 66.4325 121.282 66.5437 121.274 66.637C121.268 66.7302 121.256 66.8156 121.248 66.8811C121.236 66.9446 121.218 67.0021 121.19 67.0498C121.169 67.0954 121.137 67.1391 121.095 67.1808C121.057 67.2244 120.95 67.284 120.772 67.3554C120.591 67.4269 120.369 67.4983 120.095 67.5698C119.821 67.6412 119.507 67.7008 119.154 67.7484C118.801 67.802 118.424 67.8278 118.021 67.8278C117.298 67.8278 116.661 67.7385 116.116 67.5519C115.572 67.3753 115.117 67.0954 114.75 66.7223C114.385 66.3512 114.115 65.8848 113.936 65.3231C113.756 64.7515 113.664 64.0866 113.664 63.3265C113.664 62.608 113.76 61.9511 113.952 61.3696C114.137 60.7841 114.413 60.2959 114.77 59.887C115.131 59.4841 115.568 59.1765 116.082 58.9661C116.598 58.7498 117.177 58.6446 117.82 58.6446C118.505 58.6446 119.089 58.7418 119.571 58.9443C120.055 59.1447 120.456 59.4266 120.764 59.7818C121.073 60.1371 121.302 60.5559 121.446 61.0461C121.593 61.5343 121.667 62.0622 121.667 62.6299V63.001H121.665ZM113.335 66.506C113.335 66.7719 113.319 66.9763 113.285 67.1192C113.248 67.2621 113.206 67.3594 113.15 67.4209C113.097 67.4824 113.017 67.5301 112.91 67.5777C112.805 67.6194 112.68 67.6631 112.539 67.6928C112.392 67.7305 112.239 67.7524 112.069 67.7722C111.904 67.794 111.733 67.8 111.565 67.8C111.108 67.8 110.713 67.7424 110.38 67.6253C110.04 67.5122 109.768 67.3336 109.548 67.0934C109.33 66.8493 109.167 66.5496 109.064 66.1825C108.961 65.8213 108.911 65.3846 108.911 64.8865V60.7146H107.933C107.816 60.7146 107.726 60.6452 107.665 60.4943C107.601 60.3574 107.575 60.1172 107.575 59.7838C107.575 59.6032 107.585 59.4583 107.599 59.3333C107.615 59.2162 107.633 59.1209 107.665 59.0455C107.696 58.98 107.736 58.9324 107.778 58.9006C107.823 58.8689 107.879 58.851 107.939 58.851H108.909V57.033C108.909 56.9715 108.921 56.9159 108.955 56.8683C108.988 56.8207 109.05 56.779 109.139 56.7433C109.227 56.7095 109.344 56.6897 109.493 56.6738C109.645 56.6579 109.83 56.644 110.046 56.644C110.277 56.644 110.461 56.6579 110.608 56.6738C110.759 56.6897 110.874 56.7075 110.959 56.7433C111.049 56.779 111.108 56.8207 111.144 56.8683C111.182 56.9159 111.197 56.9715 111.197 57.033V58.851H112.972C113.029 58.851 113.083 58.8689 113.131 58.9006C113.178 58.9324 113.214 58.98 113.244 59.0455C113.273 59.1229 113.297 59.2182 113.313 59.3333C113.331 59.4583 113.337 59.6032 113.337 59.7838C113.337 60.1172 113.305 60.3554 113.244 60.4943C113.182 60.6452 113.097 60.7146 112.98 60.7146H111.197V64.5411C111.197 64.9817 111.271 65.3211 111.41 65.5394C111.551 65.7677 111.799 65.8709 112.158 65.8709C112.279 65.8709 112.386 65.8609 112.487 65.8431C112.583 65.8213 112.67 65.7974 112.747 65.7697C112.821 65.7438 112.888 65.7181 112.94 65.6962C112.99 65.6704 113.037 65.6664 113.083 65.6664C113.119 65.6664 113.154 65.6724 113.188 65.6962C113.218 65.7181 113.246 65.7637 113.265 65.8272C113.281 65.8887 113.299 65.978 113.315 66.0832C113.329 66.1924 113.335 66.3333 113.335 66.506ZM105.136 63.2808C105.136 62.9335 105.114 62.6021 105.065 62.2825C105.009 61.959 104.924 61.6792 104.797 61.4252C104.674 61.181 104.509 60.9766 104.305 60.8297C104.102 60.6769 103.846 60.6015 103.546 60.6015C103.39 60.6015 103.241 60.6233 103.094 60.673C102.943 60.7186 102.788 60.794 102.633 60.8952C102.479 60.9965 102.32 61.1294 102.153 61.2981C101.99 61.4629 101.818 61.6653 101.635 61.9134V64.5927C101.957 65.0036 102.266 65.3191 102.558 65.5394C102.85 65.7677 103.157 65.8709 103.471 65.8709C103.769 65.8709 104.023 65.7974 104.233 65.6406C104.442 65.4878 104.612 65.2913 104.749 65.0433C104.882 64.7991 104.981 64.5233 105.045 64.2077C105.106 63.9001 105.136 63.5885 105.136 63.2808ZM107.534 63.1161C107.534 63.8366 107.454 64.4935 107.298 65.071C107.141 65.6585 106.916 66.1487 106.621 66.5576C106.319 66.9664 105.95 67.28 105.507 67.4983C105.059 67.7186 104.553 67.8258 103.977 67.8258C103.739 67.8258 103.523 67.804 103.324 67.7563C103.128 67.7147 102.939 67.6412 102.749 67.5479C102.564 67.4547 102.381 67.3356 102.197 67.1966C102.016 67.0577 101.828 66.897 101.633 66.7025V70.5389C101.633 70.6004 101.615 70.6599 101.576 70.6996C101.54 70.7572 101.476 70.7929 101.391 70.8286C101.3 70.8604 101.189 70.8882 101.038 70.91C100.893 70.9219 100.708 70.9299 100.48 70.9299C100.256 70.9299 100.069 70.9219 99.9244 70.91C99.7755 70.8882 99.6604 70.8604 99.5711 70.8286C99.4818 70.7909 99.4183 70.7572 99.3865 70.6996C99.3488 70.6599 99.3309 70.6024 99.3309 70.5389V59.1566C99.3309 59.1011 99.3488 59.0455 99.3786 58.9999C99.4123 58.9562 99.4599 58.9165 99.5393 58.8847C99.6108 58.853 99.714 58.8351 99.839 58.8192C99.9641 58.8034 100.119 58.7974 100.309 58.7974C100.492 58.7974 100.647 58.8034 100.77 58.8192C100.897 58.8351 100.996 58.853 101.07 58.8847C101.147 58.9165 101.201 58.9562 101.23 58.9999C101.26 59.0435 101.274 59.1011 101.274 59.1566V60.1232C101.51 59.8791 101.746 59.6627 101.973 59.4742C102.205 59.2916 102.433 59.1368 102.669 59.0098C102.909 58.8847 103.153 58.7934 103.408 58.7299C103.658 58.6763 103.929 58.6426 104.215 58.6426C104.815 58.6426 105.323 58.7597 105.74 58.9959C106.16 59.2281 106.5 59.5476 106.766 59.9565C107.03 60.3614 107.226 60.8377 107.345 61.3815C107.472 61.9213 107.534 62.4969 107.534 63.1161ZM95.6414 63.8445H94.7642C94.391 63.8445 94.0735 63.8723 93.8175 63.9239C93.5515 63.9834 93.3391 64.0608 93.1744 64.174C93.0097 64.2831 92.8926 64.4181 92.8112 64.5709C92.7378 64.7257 92.7021 64.9043 92.7021 65.1028C92.7021 65.4481 92.8072 65.7161 93.0236 65.9066C93.2419 66.107 93.5396 66.2023 93.9246 66.2023C94.2462 66.2023 94.5439 66.119 94.8138 65.9542C95.0877 65.7935 95.3576 65.5474 95.6394 65.2318V63.8445H95.6414ZM97.898 67.3336C97.898 67.4229 97.8682 67.4864 97.8047 67.538C97.7452 67.5837 97.6499 67.6134 97.5189 67.6412C97.3879 67.663 97.1954 67.673 96.9374 67.673C96.6635 67.673 96.465 67.663 96.342 67.6412C96.217 67.6134 96.1276 67.5837 96.076 67.538C96.0264 67.4844 95.9986 67.4209 95.9986 67.3336V66.6866C95.6652 67.0438 95.2841 67.3276 94.8535 67.5261C94.4228 67.7285 93.9465 67.8278 93.4225 67.8278C92.9938 67.8278 92.5949 67.7742 92.2317 67.663C91.8725 67.5499 91.5589 67.3812 91.2909 67.1609C91.023 66.9367 90.8226 66.6608 90.6737 66.3333C90.5288 66.0038 90.4554 65.6188 90.4554 65.1842C90.4554 64.7078 90.5506 64.293 90.7352 63.9477C90.9238 63.5924 91.1977 63.3086 91.5648 63.0784C91.932 62.8502 92.3905 62.6874 92.9402 62.5743C93.488 62.4651 94.1231 62.4056 94.8455 62.4056L95.6414 62.4036V61.9174C95.6414 61.6574 95.6136 61.4351 95.564 61.2465C95.5144 61.056 95.4231 60.8972 95.3099 60.7642C95.1869 60.6372 95.0281 60.5459 94.8356 60.4844C94.6352 60.4268 94.391 60.3951 94.1013 60.3951C93.7162 60.3951 93.3749 60.4328 93.0712 60.5221C92.7715 60.6055 92.5036 60.6968 92.2734 60.8059C92.0412 60.9071 91.8506 61.0044 91.6918 61.0838C91.539 61.1731 91.414 61.2108 91.3128 61.2108C91.2473 61.2108 91.1897 61.1949 91.1361 61.1532C91.0845 61.1096 91.0409 61.052 91.0051 60.9687C90.9754 60.8893 90.9496 60.79 90.9277 60.6769C90.9099 60.5598 90.9059 60.4328 90.9059 60.2899C90.9059 60.1073 90.9198 59.9565 90.9516 59.8414C90.9833 59.7362 91.0389 59.6369 91.1242 59.5456C91.2096 59.4583 91.3564 59.3631 91.5688 59.2559C91.7851 59.1507 92.0372 59.0515 92.323 58.9602C92.6048 58.8708 92.9204 58.7915 93.2558 58.7319C93.5932 58.6783 93.9425 58.6505 94.2978 58.6505C94.9368 58.6505 95.4866 58.7121 95.9391 58.8391C96.3936 58.9621 96.7647 59.1566 97.0605 59.4166C97.3502 59.6707 97.5646 60.0041 97.6995 60.413C97.8325 60.8178 97.9 61.3021 97.9 61.8638V67.3336H97.898Z" fill="#0A4697"/>
<path fill-rule="evenodd" clip-rule="evenodd" d="M140.972 64.8586C140.452 64.8586 140.099 64.9539 139.896 65.1524C139.7 65.3429 139.596 65.7279 139.596 66.3015C139.596 66.8374 139.696 67.1966 139.894 67.3911C140.085 67.5836 140.442 67.6789 140.956 67.6789C141.468 67.6789 141.817 67.5817 142.014 67.3872C142.216 67.1926 142.313 66.8156 142.313 66.2459C142.313 65.7061 142.216 65.3389 142.024 65.1444C141.825 64.9519 141.476 64.8586 140.972 64.8586Z" fill="#E30613"/>
<path fill-rule="evenodd" clip-rule="evenodd" d="M148.97 59.3412C148.968 59.2141 148.958 59.1189 148.94 59.0554C148.934 58.9859 148.919 58.9343 148.905 58.9025C148.891 58.8688 148.867 58.8331 148.831 58.8053C148.798 58.7735 148.746 58.7418 148.67 58.718C148.599 58.6882 148.512 58.6644 148.414 58.6465C148.317 58.6167 148.226 58.6068 148.131 58.5989C148.039 58.5909 147.954 58.583 147.877 58.583C147.706 58.583 147.539 58.6068 147.365 58.6485C147.194 58.6961 147.027 58.7755 146.853 58.8966C146.682 59.0097 146.503 59.1665 146.313 59.365C146.128 59.5654 145.92 59.8175 145.713 60.1172V59.101C145.713 59.0435 145.695 58.9879 145.664 58.9442C145.634 58.8986 145.588 58.8629 145.517 58.8271C145.443 58.7974 145.346 58.7716 145.219 58.7577C145.092 58.7418 144.931 58.7398 144.739 58.7398C144.548 58.7398 144.389 58.7418 144.264 58.7577C144.139 58.7716 144.04 58.7974 143.959 58.8271C143.881 58.8609 143.822 58.8986 143.79 58.9442C143.764 58.9859 143.752 59.0415 143.752 59.101V67.2482C143.752 67.3137 143.768 67.3633 143.806 67.4129C143.84 67.4526 143.901 67.4943 143.993 67.5221C144.078 67.5538 144.201 67.5777 144.346 67.5915C144.489 67.6094 144.677 67.6154 144.902 67.6154C145.126 67.6154 145.314 67.6094 145.459 67.5915C145.602 67.5777 145.721 67.5538 145.813 67.5221C145.896 67.4963 145.959 67.4526 145.999 67.4129C146.035 67.3653 146.049 67.3137 146.049 67.2482V62.1733C146.223 61.9074 146.38 61.6752 146.527 61.4985C146.68 61.314 146.823 61.1671 146.96 61.0599C147.095 60.9468 147.224 60.8694 147.353 60.8118C147.48 60.7642 147.611 60.7424 147.738 60.7424C147.853 60.7424 147.95 60.7483 148.039 60.7721C148.131 60.794 148.214 60.8118 148.293 60.8376C148.365 60.8634 148.432 60.8833 148.494 60.9051C148.555 60.9309 148.615 60.9349 148.659 60.9349C148.722 60.9349 148.776 60.921 148.809 60.8892C148.849 60.8614 148.883 60.8039 148.905 60.7245C148.934 60.6451 148.948 60.5399 148.964 60.395C148.972 60.2581 148.98 60.0755 148.98 59.8532C148.982 59.6409 148.978 59.4682 148.97 59.3412Z" fill="#E30613"/>
<path fill-rule="evenodd" clip-rule="evenodd" d="M157.562 58.7458C157.522 58.7041 157.461 58.6644 157.375 58.6287C157.296 58.5989 157.173 58.5791 157.028 58.5632C156.885 58.5493 156.697 58.5414 156.472 58.5414C156.25 58.5414 156.061 58.5493 155.917 58.5632C155.772 58.5791 155.649 58.6009 155.565 58.6287C155.478 58.6624 155.414 58.7021 155.383 58.7458C155.351 58.7875 155.329 58.8431 155.329 58.9026L155.327 64.3248C154.998 64.7257 154.684 65.0393 154.386 65.2516C154.089 65.468 153.803 65.5751 153.505 65.5751C153.273 65.5751 153.071 65.5335 152.896 65.4402C152.721 65.3529 152.582 65.2258 152.467 65.0671C152.36 64.9063 152.277 64.7098 152.215 64.4836C152.166 64.2613 152.138 63.9318 152.138 63.5071V58.9026C152.138 58.845 152.118 58.7895 152.084 58.7458C152.046 58.7041 151.989 58.6644 151.896 58.6287C151.804 58.5989 151.689 58.5791 151.546 58.5632C151.399 58.5493 151.213 58.5414 150.987 58.5414C150.766 58.5414 150.584 58.5493 150.433 58.5632C150.286 58.5791 150.169 58.6009 150.08 58.6287C149.988 58.6624 149.925 58.7021 149.893 58.7458C149.859 58.7875 149.845 58.8431 149.845 58.9026V63.8901C149.845 64.5094 149.893 65.0333 149.994 65.4501C150.093 65.8629 150.262 66.2321 150.494 66.5477C150.729 66.8652 151.034 67.1192 151.417 67.2939C151.798 67.4805 152.273 67.5718 152.828 67.5718C153.327 67.5718 153.809 67.4487 154.277 67.2046C154.742 66.9684 155.2 66.5953 155.649 66.115V67.0498C155.649 67.1153 155.668 67.1669 155.696 67.2125C155.728 67.2582 155.78 67.2959 155.851 67.3276C155.928 67.3574 156.026 67.3812 156.151 67.3931C156.274 67.415 156.441 67.4209 156.635 67.4209C156.824 67.4209 156.98 67.415 157.107 67.3931C157.234 67.3812 157.33 67.3574 157.409 67.3276C157.486 67.2959 157.536 67.2582 157.57 67.2125C157.6 67.1669 157.615 67.1153 157.615 67.0498V58.9046C157.617 58.8431 157.598 58.7875 157.562 58.7458Z" fill="#E30613"/>
</svg>
