<svg width="174" height="47" viewBox="0 0 174 47" fill="none" xmlns="http://www.w3.org/2000/svg">
<path d="M110.259 17.7935C112.563 17.2992 114.099 15.5019 114.099 13.2552C114.099 10.5593 111.976 8.62714 109.04 8.62714H104.342C103.981 8.62714 103.71 8.89673 103.71 9.2562C103.71 9.61566 103.981 9.88526 104.342 9.88526H108.904C111.163 9.88526 112.744 11.2782 112.744 13.3002C112.744 15.3222 111.163 16.7151 108.904 16.7151H104.342C103.981 16.7151 103.71 16.9847 103.71 17.3442C103.71 17.7036 103.981 17.9732 104.342 17.9732H108.633L113.105 23.9493C113.286 24.174 113.511 24.3088 113.737 24.3088C114.099 24.3088 114.415 24.0392 114.415 23.6348C114.415 23.455 114.325 23.2304 114.144 23.0057L110.259 17.7935Z" fill="#ED1C24"/>
<path d="M127.875 22.8709H118.887V16.5802H126.566C126.927 16.5802 127.198 16.3106 127.198 15.9512C127.198 15.5917 126.927 15.367 126.566 15.367H118.887V9.84028H127.65C128.011 9.84028 128.282 9.57068 128.282 9.21122C128.282 8.85175 128.011 8.58215 127.65 8.58215H118.209C117.803 8.58215 117.532 8.85175 117.532 9.25615V23.4101C117.532 23.8145 117.803 24.0841 118.209 24.0841H127.875C128.237 24.0841 128.508 23.8145 128.508 23.455C128.508 23.1405 128.237 22.8709 127.875 22.8709Z" fill="#ED1C24"/>
<path d="M141.743 9.21122C141.743 8.85175 141.472 8.58215 141.11 8.58215H130.224C129.863 8.58215 129.592 8.85175 129.592 9.21122C129.592 9.57068 129.863 9.84028 130.224 9.84028H134.967V23.5449C134.967 23.9493 135.238 24.2189 135.645 24.2189C136.051 24.2189 136.322 23.9493 136.322 23.5449V9.84028H141.11C141.472 9.84028 141.743 9.57068 141.743 9.21122Z" fill="#ED1C24"/>
<path d="M148.202 9.12137C148.021 8.71697 147.75 8.49231 147.389 8.49231C147.027 8.49231 146.756 8.67204 146.576 9.12137L140.342 23.1405C140.252 23.2753 140.207 23.4101 140.207 23.5898C140.207 23.9493 140.478 24.2189 140.884 24.2189C141.291 24.2189 141.426 23.9044 141.517 23.7696L143.549 19.1864H151.273L153.306 23.7696C153.442 24.0392 153.667 24.2189 153.984 24.2189C154.345 24.2189 154.661 23.9493 154.661 23.5449C154.661 23.455 154.616 23.3202 154.571 23.2304L148.202 9.12137ZM150.686 17.9732H144.001L147.344 10.4244L150.686 17.9732Z" fill="#ED1C24"/>
<path d="M157.642 8.49231C157.236 8.49231 156.92 8.76191 156.92 9.16631V23.5C156.92 23.9044 157.191 24.2189 157.642 24.2189C158.094 24.2189 158.365 23.9493 158.365 23.5V9.16631C158.365 8.76191 158.094 8.49231 157.642 8.49231Z" fill="#ED1C24"/>
<path d="M172.413 22.8709H164.102V9.16631C164.102 8.80684 163.831 8.49231 163.424 8.49231C163.017 8.49231 162.746 8.76191 162.746 9.16631V23.455C162.746 23.8594 163.017 24.129 163.424 24.129H172.413C172.774 24.129 173.045 23.8594 173.045 23.5C173 23.1405 172.729 22.8709 172.413 22.8709Z" fill="#ED1C24"/>
<path d="M82.2992 10.2897H78.6856V23.9493H83.1574V14.4684C83.5188 14.0191 84.5125 13.5248 85.3256 13.5248C86.6355 13.5248 87.4034 14.2438 87.4034 15.5019V23.9493H91.83V14.9178C91.83 11.5927 90.3394 9.97514 87.2679 9.97514C84.9642 9.97514 83.6091 10.6941 82.6154 11.7725L82.2992 10.2897ZM63.599 17.6587C63.599 22.2868 65.3154 24.2639 68.658 24.2639C70.6906 24.2639 72.0909 23.5899 72.8587 22.4665L73.0846 23.9943H76.6982V10.8738C75.2527 10.4245 73.5815 10.0201 70.4648 10.0201C66.0381 10.0201 63.599 12.7161 63.599 17.6587ZM72.2264 19.7705C71.8198 20.2199 71.1875 20.7141 70.0582 20.7141C68.8386 20.7141 68.2063 19.5908 68.2063 17.479C68.2063 14.8728 68.929 13.5698 70.3744 13.5698C71.1875 13.5698 71.6392 13.6147 72.2264 13.7495V19.7705ZM53.3454 5.1673H48.8736V23.9493H53.3454V14.4684C53.7068 14.0191 54.7005 13.5248 55.5136 13.5248C56.8235 13.5248 57.5914 14.2438 57.5914 15.5019V23.9493H62.0632V14.9178C62.0632 11.5927 60.5726 9.97514 57.4559 9.97514C55.5587 9.97514 54.4747 10.3795 53.3906 11.1434V5.1673H53.3454ZM40.4721 17.0296C40.4721 15.0526 41.6013 13.7944 43.8146 13.7944C44.989 13.7944 45.9376 14.109 46.7507 14.6482L47.383 10.9187C46.1634 10.4245 44.8987 10.0201 42.7305 10.0201C38.3039 10.0201 35.8647 12.5363 35.8647 17.2094C35.8647 21.8824 38.1684 24.2639 42.6402 24.2639C44.8084 24.2639 46.841 23.5899 47.6992 23.0507L47.0668 19.5908C46.0731 20.0851 45.0794 20.4895 43.8598 20.4895C41.6013 20.4445 40.4721 19.0966 40.4721 17.0296ZM30.5347 23.9493H34.1483V10.2897H29.6765V19.7705C29.3151 20.2199 28.3214 20.7141 27.5084 20.7141C26.1984 20.7141 25.4305 19.9952 25.4305 18.7371V10.2897H20.9587V19.3212C20.9587 22.6463 22.4493 24.2639 25.5661 24.2639C27.8697 24.2639 29.2248 23.5449 30.2185 22.4665L30.5347 23.9493ZM15.177 23.9493H20.3715C18.3389 18.3776 15.4029 10.4694 13.0992 5.1673H7.27232C4.96867 10.4694 2.03264 18.4226 0 23.9493H5.19452C5.60104 22.6013 6.14308 20.9388 6.73029 19.1864H13.6864C14.2285 20.9837 14.7253 22.6013 15.177 23.9493ZM12.512 15.5468H7.85953C8.58224 13.3002 9.3953 10.9637 10.2084 8.67208C11.0214 10.9637 11.7893 13.3002 12.512 15.5468Z" fill="#ED1C24"/>
<path d="M97.8376 29.4312C97.4763 29.4312 97.1601 29.1166 97.1601 28.7572V0.673996C97.1601 0.314532 97.4763 0 97.8376 0C98.199 0 98.5152 0.314532 98.5152 0.673996V28.7572C98.5152 29.1166 98.199 29.4312 97.8376 29.4312Z" fill="#ED1C24"/>
<path d="M54.6102 46.9102V35.4073H59.3982C59.895 35.4073 60.3467 35.4972 60.7532 35.7218C61.1598 35.9465 61.5211 36.2161 61.8373 36.5306C62.1535 36.8901 62.3794 37.2495 62.56 37.6989C62.7407 38.1482 62.8311 38.5526 62.8311 39.0019C62.8311 39.4962 62.7407 39.9455 62.6052 40.3499C62.4245 40.7993 62.1987 41.1587 61.9277 41.5182C61.6566 41.8327 61.2953 42.1023 60.8888 42.327C60.4822 42.5516 60.0305 42.6415 59.5337 42.6415H55.7846V46.8652H54.6102V46.9102ZM55.7394 41.653H59.4433C59.7595 41.653 60.0757 41.5631 60.3467 41.4283C60.6177 41.2935 60.8436 41.0689 61.0694 40.8442C61.2501 40.6195 61.4308 40.305 61.5211 39.9905C61.6115 39.6759 61.7018 39.3614 61.7018 39.0019C61.7018 38.6425 61.6566 38.3279 61.5211 37.9685C61.3856 37.6539 61.2501 37.3843 61.0243 37.1147C60.7984 36.8901 60.5726 36.7103 60.2564 36.5755C59.9854 36.4407 59.6692 36.3509 59.353 36.3509H55.7394V41.653Z" fill="#ED1C24"/>
<path d="M69.3807 46.9551C68.5676 46.9551 67.8449 46.7753 67.1674 46.4608C66.4898 46.1463 65.9478 45.6969 65.4509 45.1577C64.9541 44.6185 64.5927 43.9895 64.3669 43.2705C64.0958 42.5516 63.9603 41.8327 63.9603 41.1138C63.9603 40.3499 64.0958 39.631 64.3669 38.912C64.6379 38.1931 65.0444 37.609 65.4961 37.0698C65.993 36.5306 66.5802 36.0813 67.2125 35.7667C67.8901 35.4522 68.5676 35.2725 69.3807 35.2725C70.1937 35.2725 70.9165 35.4522 71.594 35.7667C72.2716 36.1262 72.8136 36.5306 73.3105 37.1147C73.7622 37.6539 74.1687 38.283 74.3945 39.0019C74.6655 39.6759 74.8011 40.3948 74.8011 41.1138C74.8011 41.8776 74.6655 42.5966 74.3945 43.3155C74.1235 44.0344 73.717 44.6185 73.2653 45.1577C72.7684 45.6969 72.2264 46.1013 71.5488 46.4159C70.8713 46.8203 70.1486 46.9551 69.3807 46.9551ZM65.1347 41.1587C65.1347 41.7878 65.2251 42.3719 65.4509 42.956C65.6768 43.5401 65.9478 44.0344 66.3092 44.4837C66.6705 44.9331 67.1222 45.2925 67.6642 45.5621C68.2063 45.8317 68.7483 45.9665 69.4259 45.9665C70.0582 45.9665 70.6454 45.8317 71.1875 45.5621C71.7295 45.2925 72.1812 44.9331 72.5426 44.4837C72.9039 44.0344 73.1749 43.5401 73.4008 42.956C73.5815 42.3719 73.717 41.7878 73.717 41.2036C73.717 40.5746 73.6266 39.9904 73.4008 39.4063C73.1749 38.8222 72.9039 38.3279 72.4974 37.8786C72.136 37.4292 71.6843 37.0698 71.1423 36.8002C70.6003 36.5306 70.0582 36.3958 69.4259 36.3958C68.7935 36.3958 68.2063 36.5306 67.6642 36.8002C67.1222 37.0698 66.6705 37.4292 66.3092 37.8786C65.9478 38.3279 65.6768 38.8222 65.4509 39.4063C65.2251 39.9904 65.1347 40.5746 65.1347 41.1587Z" fill="#ED1C24"/>
<path d="M76.1561 41.0688C76.1561 40.3948 76.2916 39.6759 76.5175 39.0019C76.7433 38.3279 77.1047 37.6988 77.6016 37.1596C78.0533 36.6204 78.6405 36.1711 79.318 35.8566C79.9956 35.4971 80.7634 35.3623 81.6217 35.3623C82.6606 35.3623 83.5188 35.587 84.2867 36.0363C85.0094 36.4856 85.5514 37.1147 85.9128 37.8336L85.0094 38.3728C84.8287 38.0134 84.6029 37.6988 84.3318 37.4292C84.0608 37.1596 83.7898 36.9799 83.4736 36.8002C83.1574 36.6204 82.8412 36.5306 82.5251 36.4407C82.2089 36.3508 81.8927 36.3508 81.5765 36.3508C80.8989 36.3508 80.2666 36.4856 79.7245 36.7552C79.1825 37.0248 78.7308 37.3843 78.3694 37.8336C78.0081 38.283 77.7371 38.7772 77.5564 39.3613C77.3757 39.9455 77.2854 40.4847 77.2854 41.0688C77.2854 41.6979 77.3757 42.3269 77.6016 42.9111C77.8274 43.4952 78.1436 43.9895 78.505 44.4388C78.9115 44.8881 79.3632 45.2476 79.86 45.5172C80.4021 45.7868 80.9441 45.9216 81.5765 45.9216C81.8927 45.9216 82.254 45.8766 82.5702 45.7868C82.9316 45.6969 83.2478 45.5621 83.564 45.3824C83.8801 45.2027 84.1963 44.978 84.4674 44.7084C84.7384 44.4388 84.9642 44.1243 85.1449 43.7648L86.0935 44.2591C85.9128 44.7084 85.6418 45.0679 85.3256 45.3824C85.0094 45.6969 84.6029 45.9665 84.1963 46.2361C83.7898 46.4608 83.3381 46.6405 82.8864 46.7753C82.4347 46.9101 81.983 46.955 81.5313 46.955C80.7183 46.955 79.9956 46.7753 79.3632 46.4158C78.6856 46.0564 78.1436 45.607 77.6467 45.0679C77.1499 44.5287 76.7885 43.8996 76.5175 43.1807C76.2916 42.5067 76.1561 41.7877 76.1561 41.0688Z" fill="#ED1C24"/>
<path d="M87.1776 41.0688C87.1776 40.3948 87.3131 39.6759 87.5389 39.0019C87.7648 38.3279 88.1261 37.6988 88.623 37.1596C89.0747 36.6204 89.6619 36.1711 90.3394 35.8566C91.017 35.4971 91.7849 35.3623 92.6431 35.3623C93.682 35.3623 94.5402 35.587 95.3081 36.0363C96.0308 36.4856 96.5729 37.1147 96.9342 37.8336L96.0308 38.3728C95.8501 38.0134 95.6243 37.6988 95.3533 37.4292C95.0823 37.1596 94.8112 36.9799 94.4951 36.8002C94.1789 36.6204 93.8627 36.5306 93.5465 36.4407C93.2303 36.3508 92.9141 36.3508 92.5979 36.3508C91.9204 36.3508 91.288 36.4856 90.746 36.7552C90.2039 37.0248 89.7522 37.3843 89.3909 37.8336C89.0295 38.283 88.7585 38.7772 88.5778 39.3613C88.3971 39.9455 88.3068 40.4847 88.3068 41.0688C88.3068 41.6979 88.3971 42.3269 88.623 42.9111C88.8488 43.4952 89.165 43.9895 89.5264 44.4388C89.9329 44.8881 90.3846 45.2476 90.8815 45.5172C91.4235 45.7868 91.9655 45.9216 92.5979 45.9216C92.9141 45.9216 93.2755 45.8766 93.5917 45.7868C93.953 45.6969 94.2692 45.5621 94.5854 45.3824C94.9016 45.2027 95.2178 44.978 95.4888 44.7084C95.7598 44.4388 95.9857 44.1243 96.1663 43.7648L97.1149 44.2591C96.9342 44.7084 96.6632 45.0679 96.347 45.3824C96.0308 45.6969 95.6243 45.9665 95.2178 46.2361C94.8112 46.4608 94.3595 46.6405 93.9078 46.7753C93.4561 46.9101 93.0044 46.955 92.5528 46.955C91.7397 46.955 91.017 46.7753 90.3846 46.4158C89.7071 46.0564 89.165 45.607 88.6682 45.0679C88.1713 44.5287 87.8099 43.8996 87.5389 43.1807C87.3131 42.5067 87.1776 41.7877 87.1776 41.0688Z" fill="#ED1C24"/>
<path d="M100.277 45.2027L107.414 35.4073H108.362V46.9102H107.233V37.2495L100.186 46.8652H99.1475V35.4073H100.277V45.2027Z" fill="#ED1C24"/>
<path d="M117.486 46.9101V42.282H114.415L111.614 46.9101H110.259L113.24 42.1022C112.879 41.9674 112.563 41.8326 112.292 41.608C112.021 41.3833 111.75 41.1586 111.569 40.8441C111.343 40.5745 111.208 40.26 111.072 39.9005C110.937 39.5411 110.892 39.1816 110.892 38.8221C110.892 38.3728 110.982 37.9684 111.163 37.564C111.343 37.1596 111.569 36.8001 111.885 36.4856C112.202 36.1711 112.563 35.9015 113.015 35.7217C113.466 35.542 113.918 35.4521 114.46 35.4521H118.616V46.955H117.486V46.9101ZM117.486 36.3957H114.505C114.144 36.3957 113.828 36.4407 113.511 36.5755C113.195 36.7103 112.924 36.89 112.744 37.1147C112.518 37.3393 112.337 37.6089 112.202 37.8785C112.066 38.1481 112.021 38.4627 112.021 38.8221C112.021 39.1367 112.066 39.4512 112.202 39.7657C112.292 40.0803 112.473 40.3049 112.653 40.5296C112.834 40.7543 113.105 40.934 113.376 41.0688C113.647 41.2036 114.008 41.2934 114.37 41.2934H117.441V36.3957H117.486Z" fill="#ED1C24"/>
</svg>
