<svg width="250" height="125" viewBox="0 0 250 125" fill="none" xmlns="http://www.w3.org/2000/svg">
<path d="M28.4758 62.4419H25L54.7159 20L58.1866 20.0051L28.4758 62.4419Z" fill="#00C1DE"/>
<path d="M61.6624 104.874H58.1866L87.9075 62.4368H91.3782L61.6624 104.874Z" fill="#00C1DE"/>
<path d="M40.9239 51.8882L33.5328 62.4368L28.1272 70.1613H31.603L35.0232 65.2709H44.3946V85.0849H47.4865V51.8882H40.9189H40.9239ZM44.3946 62.4368H37.0086L42.4143 54.7123H44.3946V62.4368Z" fill="#3D4543"/>
<path d="M62.309 85.085C62.3898 87.3584 60.6065 89.2681 58.3331 89.3489C56.0597 89.4297 54.15 87.6464 54.0692 85.373C54.0641 85.277 54.0641 85.181 54.0692 85.085V39.7888C54.15 37.5154 56.0597 35.732 58.3331 35.8128C60.4953 35.8886 62.2332 37.6265 62.309 39.7888V45.7097H65.416V39.7888C65.3099 35.8078 62.0008 32.6654 58.0198 32.7715C54.1904 32.8726 51.1036 35.9543 51.0026 39.7888V85.085C50.8965 89.066 54.0389 92.3751 58.0198 92.4812C62.0008 92.5872 65.3099 89.4449 65.416 85.4639C65.421 85.3376 65.421 85.2113 65.416 85.08V79.1641H62.309V85.085Z" fill="#3D4543"/>
<path d="M76.5912 70.1612V42.744H73.5044V70.1612H65.3959V51.8881H62.3091V70.1612V72.9904H65.3959H73.5044H73.565L71.4027 76.0771H74.8785L79.0262 70.1612H76.5912Z" fill="#3D4543"/>
<path d="M94.6619 81.9022L93.5606 85.2517H91.2417L95.7279 72.9905H98.5216L102.801 85.2517H100.482L99.4007 81.9022H94.6619ZM97.097 74.7789H97.0414L95.3086 80.0027H98.8046L97.097 74.7789Z" fill="#3D4543"/>
<path d="M107.853 75.9359C108.585 75.9157 109.303 76.1581 109.874 76.6229C110.404 77.0271 110.712 77.6636 110.702 78.3305C110.722 79.2197 110.207 80.028 109.394 80.3867C109.869 80.4978 110.293 80.7706 110.596 81.1546C110.945 81.579 111.121 82.1195 111.101 82.6702C111.111 83.3623 110.828 84.0292 110.323 84.5041C109.778 85.0143 109.05 85.2871 108.302 85.2568H103.417V75.9359H107.853ZM105.499 79.6996H107.494C107.838 79.7198 108.181 79.6137 108.454 79.4066C108.697 79.1944 108.823 78.8812 108.803 78.5579C108.818 78.2497 108.681 77.9567 108.434 77.7697C108.166 77.5828 107.838 77.4868 107.509 77.4969H105.488L105.499 79.6996ZM105.499 83.6705H107.681C108.045 83.6907 108.404 83.5796 108.691 83.3573C108.954 83.14 109.101 82.8116 109.08 82.4732C109.096 82.1347 108.954 81.8012 108.691 81.584C108.404 81.3617 108.045 81.2455 107.681 81.2607H105.534L105.499 83.6705Z" fill="#3D4543"/>
<path d="M116.537 77.7445V85.2518H114.446V77.7445H111.713V75.9359H119.291V77.7445H116.537Z" fill="#3D4543"/>
<path d="M127.556 77.113C129.349 79.0782 129.349 82.0892 127.556 84.0545C125.656 85.9641 122.569 85.9742 120.66 84.0747C120.655 84.0696 120.644 84.0595 120.639 84.0545C118.846 82.0892 118.846 79.0782 120.639 77.113C122.564 75.2135 125.651 75.2135 127.576 77.113H127.556ZM122.15 78.4164C121.135 79.6895 121.135 81.4982 122.15 82.7713C123.12 83.8423 124.772 83.9282 125.848 82.9582C125.914 82.8976 125.979 82.8369 126.035 82.7713C127.066 81.5032 127.066 79.6845 126.035 78.4164C125.065 77.3454 123.413 77.2595 122.337 78.2295C122.271 78.2851 122.211 78.3508 122.15 78.4164Z" fill="#3D4543"/>
<path d="M138.791 73.2686C139.403 73.506 139.958 73.8647 140.428 74.3194L139.251 75.835C138.503 75.0873 137.478 74.6781 136.417 74.7135C135.29 74.668 134.199 75.1075 133.416 75.9209C132.628 76.7949 132.219 77.9468 132.274 79.1239C132.224 80.301 132.633 81.4529 133.416 82.337C134.967 83.9435 137.523 83.994 139.13 82.4431C139.195 82.3774 139.261 82.3117 139.327 82.241L140.539 83.7263C139.488 84.8882 138.018 85.4692 136.134 85.4743C134.502 85.5147 132.926 84.868 131.789 83.696C130.607 82.4835 129.976 80.8416 130.031 79.1491C129.965 77.4466 130.617 75.7997 131.825 74.6023C133.057 73.4252 134.714 72.7937 136.417 72.8543C137.23 72.8291 138.039 72.9705 138.791 73.2686Z" fill="#3D4543"/>
<path d="M147.915 85.2518V77.7445H143.944V85.2518H141.853V75.9359H150.007V85.2518H147.915Z" fill="#3D4543"/>
<path d="M159.803 77.022C160.671 77.9364 161.131 79.1641 161.086 80.422C161.086 80.7908 161.086 81.1242 161.045 81.4324H154.164C154.24 82.0235 154.533 82.5641 154.993 82.948C155.488 83.3825 156.13 83.6149 156.792 83.5947C157.686 83.5644 158.524 83.1501 159.09 82.4529L160.399 83.726C159.525 84.8678 158.151 85.5144 156.716 85.4589C155.412 85.5043 154.149 84.989 153.255 84.0393C152.371 83.1046 151.891 81.8568 151.926 80.5736C151.896 79.2853 152.371 78.0324 153.255 77.0928C154.124 76.148 155.357 75.6327 156.64 75.6681C157.837 75.6479 158.989 76.143 159.803 77.022ZM154.917 78.189C154.488 78.5528 154.22 79.0681 154.164 79.6238H158.994C158.984 79.0529 158.726 78.5124 158.282 78.1486C157.832 77.7546 157.251 77.5424 156.655 77.5525C156.014 77.5323 155.392 77.7596 154.917 78.189Z" fill="#3D4543"/>
<path d="M171.821 83.4432V86.5401H169.73V85.2518H163.005V75.9359H165.092V83.4432H168.78V75.9359H170.871V83.4432H171.821Z" fill="#3D4543"/>
<path d="M184.441 83.3471V86.9794H182.274V85.2517H174.034V73.046H176.202V83.3471H181.254V73.046H183.421V83.3471H184.441Z" fill="#3D4543"/>
<path d="M193.459 77.022C194.328 77.9364 194.793 79.1641 194.747 80.422C194.747 80.7908 194.747 81.1242 194.707 81.4324H187.826C187.897 82.0235 188.19 82.5691 188.649 82.948C189.145 83.3825 189.786 83.6149 190.448 83.5947C191.342 83.5644 192.181 83.1501 192.747 82.4529L194.06 83.726C193.186 84.8678 191.812 85.5144 190.372 85.4589C189.069 85.5043 187.806 84.989 186.912 84.0392C186.027 83.1046 185.548 81.8568 185.583 80.5736C185.553 79.2853 186.027 78.0324 186.912 77.0927C187.781 76.1531 189.013 75.6327 190.296 75.6681C191.494 75.6479 192.646 76.143 193.459 77.022ZM188.574 78.189C188.149 78.5477 187.882 79.058 187.826 79.6137H192.651C192.646 79.0378 192.383 78.4972 191.938 78.1385C191.489 77.7444 190.908 77.5323 190.312 77.5424C189.67 77.5222 189.049 77.7545 188.574 78.189Z" fill="#3D4543"/>
<path d="M202.83 85.2518V81.3719H198.763V85.2518H196.672V75.9359H198.763V79.5683H202.83V75.9359H204.922V85.2518H202.83Z" fill="#3D4543"/>
<path d="M211.085 77.7445V85.2518H208.994V77.7445H206.256V75.9359H213.834V77.7445H211.085Z" fill="#3D4543"/>
<path d="M223.685 77.1228C225.438 79.1083 225.438 82.0839 223.685 84.0694C222.781 85.0242 221.503 85.5344 220.189 85.4789C219.103 85.5395 218.032 85.1606 217.224 84.4331C217.249 84.6857 217.264 84.8676 217.264 84.9838V88.8587H215.173V75.9356H217.193V76.2034C217.193 76.3398 217.193 76.5368 217.158 76.7894C217.992 76.0518 219.078 75.6729 220.189 75.7285C221.503 75.6679 222.776 76.1781 223.685 77.1228ZM217.987 78.4465C217.441 79.0275 217.153 79.8004 217.178 80.5936C217.153 81.3918 217.446 82.1647 217.987 82.7508C219.078 83.8824 220.876 83.9127 222.008 82.8215C222.033 82.7962 222.053 82.776 222.079 82.7508C222.634 82.1749 222.938 81.4019 222.917 80.6037C222.938 79.8055 222.634 79.0376 222.079 78.4667C220.972 77.335 219.159 77.3199 218.027 78.4263C218.012 78.4414 218.002 78.4515 217.987 78.4667V78.4465Z" fill="#3D4543"/>
<path d="M92.8432 93.2793V97.5079H91.3782V92.2032H94.571V93.2793H92.8432Z" fill="#00C1DE"/>
<path d="M100.532 92.8701C101.477 94.0219 101.477 95.684 100.532 96.8359C100.073 97.3663 99.4008 97.6594 98.7036 97.6391C98.3449 97.6442 97.9863 97.5634 97.6629 97.4068C97.38 97.2805 97.1375 97.0834 96.9455 96.8409C96.9455 96.9622 96.9455 97.1289 96.9455 97.3461V99.569H95.4754V92.2032H96.9001V92.375C96.9001 92.4912 96.9001 92.6983 96.9001 93.0014C97.087 92.7236 97.3396 92.4962 97.6326 92.3447C97.961 92.1628 98.3348 92.0668 98.7137 92.0718C99.4059 92.0567 100.073 92.3497 100.532 92.8701ZM97.279 93.7592C97.0011 94.0573 96.8546 94.4513 96.8698 94.8605C96.8597 95.2647 97.0062 95.6537 97.279 95.9518C97.5417 96.2397 97.9206 96.4014 98.3146 96.3913C98.6986 96.3913 99.0623 96.2347 99.325 95.9518C99.8909 95.3304 99.8909 94.3857 99.325 93.7643C99.0623 93.4864 98.6986 93.3298 98.3146 93.3298C97.9256 93.3197 97.5467 93.4713 97.279 93.7592Z" fill="#00C1DE"/>
<path d="M102.659 99.559L103.629 97.3462L101.609 92.2032H103.195L104.276 95.3304C104.311 95.4365 104.352 95.5982 104.402 95.8356C104.438 95.6639 104.483 95.4972 104.544 95.3304L105.665 92.2032H107.252L104.221 99.559H102.659Z" fill="#00C1DE"/>
<path d="M111.288 97.5079V93.3046H109.267V97.5079H107.853V92.2032H112.794V97.5079H111.288Z" fill="#00C1DE"/>
<path d="M117.826 97.5079V93.3046H115.805V97.5079H114.34V92.2032H119.281V97.5079H117.826Z" fill="#00C1DE"/>
<path d="M124.12 92.3294C124.413 92.4759 124.666 92.6982 124.848 92.971C124.848 92.6831 124.848 92.4658 124.848 92.3749V92.2031H126.272V97.5077H124.828V97.336C124.828 97.2046 124.828 96.9975 124.828 96.7095C124.641 96.9874 124.388 97.2198 124.09 97.3764C123.757 97.5532 123.388 97.6441 123.014 97.6391C122.312 97.6593 121.64 97.3663 121.18 96.8358C120.235 95.684 120.235 94.0269 121.18 92.875C121.64 92.3446 122.312 92.0516 123.014 92.0718C123.398 92.0617 123.782 92.1526 124.12 92.3294ZM122.392 93.7592C122.11 94.0522 121.958 94.4412 121.968 94.8453C121.958 95.2495 122.11 95.6435 122.392 95.9366C122.655 96.2195 123.019 96.3761 123.403 96.3761C123.787 96.3811 124.151 96.2195 124.413 95.9416C124.959 95.3152 124.959 94.3755 124.413 93.749C123.873 93.1832 122.973 93.158 122.408 93.6985C122.392 93.7137 122.372 93.7288 122.357 93.749L122.392 93.7592Z" fill="#00C1DE"/>
<path d="M131.092 97.5079V92.2032H132.562V97.5079H131.092ZM136.487 97.5079H134.694L132.608 94.7697L134.527 92.2134H136.331L134.295 94.7697L136.487 97.5079Z" fill="#00C1DE"/>
<path d="M141.535 92.8599C142.575 93.9814 142.575 95.7143 141.535 96.8358C140.408 97.922 138.62 97.922 137.493 96.8358C136.457 95.7143 136.457 93.9814 137.493 92.8599C138.63 91.799 140.398 91.799 141.535 92.8599ZM138.503 93.7592C137.983 94.3957 137.983 95.3152 138.503 95.9517C138.751 96.2346 139.11 96.3963 139.489 96.3862C139.873 96.4013 140.246 96.2397 140.499 95.9517C141.024 95.3152 141.024 94.3957 140.499 93.7592C140.246 93.4712 139.873 93.3095 139.489 93.3247C139.115 93.3196 138.756 93.4762 138.514 93.7592H138.503Z" fill="#00C1DE"/>
<path d="M149.062 97.5079L148.835 93.6936L147.486 97.4876H146.172L144.909 93.6784L144.672 97.5079H143.348L143.778 92.2032H145.743L146.849 95.775L148.067 92.2032H150.007L150.426 97.5079H149.062Z" fill="#00C1DE"/>
<path d="M155.342 97.5079V93.3046H153.346V97.5079H151.881V92.2032H156.817V97.5079H155.342Z" fill="#00C1DE"/>
<path d="M161.647 92.3294C161.94 92.4759 162.192 92.6982 162.374 92.971C162.374 92.6831 162.374 92.4658 162.374 92.3749V92.2031H163.794V97.5077H162.374V97.336C162.374 97.2046 162.374 96.9975 162.374 96.7095C162.187 96.9874 161.934 97.2198 161.636 97.3764C161.303 97.5532 160.934 97.6441 160.56 97.6391C159.858 97.6593 159.186 97.3663 158.726 96.8358C157.777 95.689 157.777 94.0219 158.726 92.875C159.186 92.3446 159.858 92.0516 160.56 92.0718C160.939 92.0667 161.313 92.1526 161.647 92.3294ZM159.919 93.7592C159.636 94.0522 159.484 94.4412 159.494 94.8453C159.484 95.2495 159.636 95.6435 159.919 95.9366C160.469 96.5024 161.374 96.5175 161.94 95.9719C161.95 95.9618 161.965 95.9467 161.975 95.9366C162.521 95.3101 162.521 94.3704 161.975 93.744C161.434 93.1782 160.535 93.1529 159.969 93.6935C159.954 93.7086 159.934 93.7238 159.919 93.744V93.7592Z" fill="#00C1DE"/>
<path d="M168.876 97.5079V95.3608H166.855V97.5079H165.39V92.2032H166.855V94.224H168.876V92.2032H170.346V97.5079H168.876Z" fill="#00C1DE"/>
<path d="M175.55 97.5079V94.502C175.55 94.3302 175.57 94.1635 175.61 93.9968L173.478 97.4978H171.963V92.2033H173.312V95.189C173.312 95.3608 173.291 95.5275 173.256 95.6942L175.383 92.1578H176.899V97.4725L175.55 97.5079Z" fill="#00C1DE"/>
<path d="M182.047 97.5077V94.5018C182.052 94.33 182.072 94.1633 182.112 93.9966L179.975 97.4976H178.46V92.2031H179.804V95.1888C179.804 95.3606 179.788 95.5273 179.753 95.694L181.875 92.1576H183.39V97.4723L182.047 97.5077ZM182.708 89.9297C182.719 90.3642 182.532 90.7734 182.203 91.0563C181.456 91.6171 180.425 91.6171 179.677 91.0563C179.349 90.7734 179.167 90.3591 179.172 89.9297H180.283C180.233 90.1015 180.283 90.2884 180.42 90.4046C180.566 90.5309 180.758 90.5966 180.95 90.5864C181.137 90.5915 181.314 90.5258 181.456 90.4046C181.587 90.2833 181.637 90.1015 181.587 89.9297H182.708Z" fill="#00C1DE"/>
</svg>
