<svg width="155" height="44" viewBox="0 0 155 44" fill="none" xmlns="http://www.w3.org/2000/svg">
<ellipse cx="12.0588" cy="12.1074" rx="12.0588" ry="12.1074" transform="translate(20.2939 19.7852)" fill="#97CF26"/>
<ellipse cx="9.70588" cy="9.74497" rx="9.70588" ry="9.74497" fill="#00AAFF"/>
<ellipse cx="5.58824" cy="5.61074" rx="5.58824" ry="5.61074" transform="translate(3.97058 26.4295)" fill="#A169F7"/>
<ellipse cx="7.64706" cy="7.67785" rx="7.64706" ry="7.67785" transform="translate(24.2646 2.06714)" fill="#FF6163"/>
<path d="M18.9706 25.2483L8.52941 25.3368L6.32353 31.3168L0 31.302L11.4706 0.147651H16.0294L27.3669 31.3168H21.1815L18.9706 25.2483ZM10.1471 20.6711H17.3529L13.6765 11.0738L10.1471 20.6711Z" transform="translate(53.3824 6.349)" fill="#111111"/>
<path d="M36.9482 25.2356L42.5398 9.92309H48.3643L40.6138 31.3168H33.2826L25.3851 9.92309H31.2096L36.9482 25.2356Z" transform="translate(53.3824 6.349)" fill="#111111"/>
<path d="M56.5292 31.3168H50.8125V9.92309H56.5292V31.3168Z" transform="translate(53.3824 6.349)" fill="#111111"/>
<path d="M70.1277 4.08041V9.92309H76.9971V14.6096H69.9806L70.1277 23.9195C70.1277 24.7759 70.75 25.6213 71.3235 25.9866C71.8971 26.3519 72.888 26.6494 73.8082 26.6494C74.4877 26.6494 75.6775 26.4518 76.2013 26.3519L77.0837 30.893C75.8804 31.2641 73.1712 31.745 71.8971 31.745C67.5937 31.745 64.37 29.1111 64.2851 24.7292V14.6096H59.7537V9.92309H64.2851V4.08041H70.1277Z" transform="translate(53.3824 6.349)" fill="#111111"/>
<path d="M57.3529 3.69128C57.3529 5.72991 55.7069 7.38255 53.6765 7.38255C51.646 7.38255 50 5.72991 50 3.69128C50 1.65264 51.646 0 53.6765 0C55.7069 0 57.3529 1.65264 57.3529 3.69128Z" transform="translate(53.3824 6.349)" fill="#111111"/>
<path fill-rule="evenodd" clip-rule="evenodd" d="M90.2206 31.745C96.515 31.745 101.618 26.754 101.618 20.5973C101.618 14.4406 96.515 9.44966 90.2206 9.44966C83.9262 9.44966 78.8235 14.4406 78.8235 20.5973C78.8235 26.754 83.9262 31.745 90.2206 31.745ZM90.2206 26.4295C93.4287 26.4295 96.0294 23.8514 96.0294 20.6711C96.0294 17.4909 93.4287 14.9128 90.2206 14.9128C87.0125 14.9128 84.4118 17.4909 84.4118 20.6711C84.4118 23.8514 87.0125 26.4295 90.2206 26.4295Z" transform="translate(53.3824 6.349)" fill="#111111"/>
</svg>
