<svg width="180" height="29" viewBox="0 0 180 29" fill="none" xmlns="http://www.w3.org/2000/svg">
<path d="M48.3044 29V7.41111H61.0414C65.0231 7.41111 68.251 10.657 68.251 14.6611V29H62.1629V15.5472C62.1629 13.7676 60.7283 12.325 58.9586 12.325H54.3925V29H48.3044Z" transform="translate(32.1228)" fill="#515151"/>
<path d="M70.4139 29V0H76.7423V18.85L85.7944 7.41111H93.4846L84.2724 18.2056L93.4846 29H85.1535L76.7423 18.85V29H70.4139Z" transform="translate(32.1228)" fill="#515151"/>
<path d="M101.255 7.41111H95.4873V29H101.255V7.41111Z" transform="translate(32.1228)" fill="#515151"/>
<path d="M117.597 29H111.749V14.6611C111.749 10.657 114.977 7.41111 118.959 7.41111H125.367V12.325H120.801C119.031 12.325 117.597 13.7676 117.597 15.5472V29Z" transform="translate(32.1228)" fill="#515151"/>
<path d="M133.538 7.41111H127.931V21.75C127.931 25.7541 131.158 29 135.14 29H147.877V7.41111H142.27V24.5694H136.742C134.973 24.5694 133.538 23.1268 133.538 21.3472V7.41111Z" transform="translate(32.1228)" fill="#515151"/>
<path fill-rule="evenodd" clip-rule="evenodd" d="M25.474 7.41111H38.5314C42.5131 7.41111 45.741 10.657 45.741 14.6611V29H30.2804C26.7853 29 23.9519 26.1508 23.9519 22.6361C23.9519 19.1214 26.7853 16.2722 30.2804 16.2722H39.8131C39.8131 14.0922 38.0557 12.325 35.8878 12.325H25.474V7.41111ZM39.8131 25.0528V20.5417H32.616C31.3703 20.5417 30.3605 21.5515 30.3605 22.7972C30.3605 24.0429 31.3703 25.0528 32.616 25.0528H39.8131Z" transform="translate(32.1228)" fill="#515151"/>
<path fill-rule="evenodd" clip-rule="evenodd" d="M0 0V29H11.5554C17.517 29 22.3498 24.1672 22.3498 18.2056C22.3498 12.2439 17.517 7.41111 11.5554 7.41111H5.9279V0H0ZM5.9279 24.2472V12.325H10.3006C13.5928 12.325 16.2617 14.9939 16.2617 18.2861C16.2617 21.5783 13.5928 24.2472 10.3006 24.2472H5.9279Z" transform="translate(32.1228)" fill="#515151"/>
<rect width="5.76769" height="5.63889" transform="translate(127.53)" fill="#3797D3"/>
<rect width="12.1762" height="5.63889" transform="translate(14.0988)" fill="#3797D3"/>
<rect width="19.0654" height="5.63889" transform="translate(7.20959 11.6)" fill="#6AB54C"/>
<rect width="26.275" height="5.63889" transform="translate(0 23.3611)" fill="#F59D1F"/>
<rect width="5.60748" height="5.15556" transform="translate(135.701 23.8445)" fill="#F59D1F"/>
</svg>
