<svg width="170" height="30" viewBox="0 0 170 30" fill="none" xmlns="http://www.w3.org/2000/svg">
<path d="M61.1376 13.301V29.4075H58.5148V18.1328L53.43 25.7719H51.8653L46.7805 18.1095V29.4075H44.1577V13.301H46.5274L52.6476 22.5275L58.7679 13.301H61.1376Z" fill="#231F20"/>
<path d="M77.5442 13.0021C83.2048 13.0021 86.0115 17.0973 86.0115 21.3546C86.0115 25.6118 83.2042 29.7064 77.5442 29.7064C71.861 29.7064 69.0769 25.6112 69.0769 21.3546C69.0769 17.098 71.861 13.0021 77.5442 13.0021ZM77.5442 15.4642C73.6556 15.4642 71.7461 18.2716 71.7461 21.3546C71.7461 24.4376 73.6556 27.245 77.5442 27.245C81.4561 27.245 83.3423 24.4376 83.3423 21.3546C83.3423 18.2716 81.4561 15.4642 77.5442 15.4642Z" fill="#231F20"/>
<path d="M101.498 13.0021C103.108 13.0021 104.696 13.3701 106.077 14.0608V16.6151C104.949 15.8328 103.454 15.4183 101.935 15.4183C98.8523 15.4183 95.6537 17.2361 95.6305 21.4927C95.6305 25.4504 98.8981 27.2908 101.981 27.2908C103.638 27.2908 105.133 26.8531 106.192 26.0482V28.6483C104.834 29.3152 103.223 29.7064 101.521 29.7064C97.3566 29.7064 92.9387 26.9919 92.9613 21.4921C92.9619 15.763 97.265 13.0021 101.498 13.0021Z" fill="#231F20"/>
<path d="M114.177 29.4075V13.301H116.8V20.0196H119.975L124.462 13.301H127.43L122.092 21.1467L127.845 29.4075H124.876L120.021 22.4352H116.8V29.4075H114.177Z" fill="#231F20"/>
<path d="M141.651 13.301C145.011 13.301 147.174 14.6353 147.174 17.3736C147.174 19.3296 146.001 20.4805 144.643 20.9176C146.092 21.3313 147.818 22.4358 147.818 24.9437C147.818 28.6019 144.252 29.4075 141.698 29.4075H134.841V13.301H141.651ZM141.375 15.5791H137.464V19.9738L141.743 19.997C143.262 19.997 144.504 19.3528 144.504 17.7881C144.504 16.1768 143.308 15.5791 141.375 15.5791ZM141.813 22.206H137.464V27.1068H141.445C143.239 27.1068 145.149 26.9003 145.149 24.668C145.149 22.5275 143.262 22.206 141.813 22.206Z" fill="#231F20"/>
<path d="M153.525 29.4075L160.336 13.301H163.212L170 29.4075H167.239L165.812 25.9326H157.736L156.309 29.4075H153.525ZM158.633 23.632H164.891L162.061 16.7526C161.969 16.4996 161.877 16.2465 161.762 15.8554C161.646 16.2459 161.555 16.4996 161.462 16.7526L158.633 23.632Z" fill="#231F20"/>
<path d="M46.8579 0C49.1437 0 51.5457 1.54926 51.5457 4.73879C51.5457 7.92832 49.1308 9.3233 46.8321 9.3233C45.9284 9.3233 45.0246 9.10382 44.3017 8.7036V7.91606C44.9988 8.36728 45.8509 8.60031 46.7295 8.60031C48.666 8.60031 50.6678 7.55457 50.7711 5.02347H45.8122V4.30048H50.7582C50.6026 1.85911 48.6531 0.722987 46.7546 0.722987C45.8767 0.722987 44.9594 0.95473 44.301 1.38142V0.606792C45.0376 0.205922 45.9413 0 46.8579 0Z" fill="#231F20"/>
<path d="M62.6875 0.142016V9.18129H61.9257V0.877913H58.0907C57.7292 5.17775 57.3677 9.29683 55.1077 9.31039C54.8883 9.31039 54.6429 9.27101 54.3847 9.18129V8.44474C54.5784 8.52221 54.7462 8.54803 54.9915 8.54803C56.7215 8.54803 57.032 4.3773 57.3548 0.142016H62.6875Z" fill="#231F20"/>
<path d="M73.7769 0.142016V0.877913H68.534V4.26046H73.389V4.997H68.534V8.44474H73.8673V9.18129H67.7722V0.142016H73.7769Z" fill="#231F20"/>
<path d="M78.3459 9.18129V0.142016H79.1076V4.19655H81.4709L84.3893 0.142016H85.2672L82.1035 4.54513L85.5771 9.18129H84.6863L81.4967 4.91954H79.1076V9.18129H78.3459Z" fill="#231F20"/>
<path d="M95.7499 0.142016V0.877913H92.4442V9.18064H91.6825V0.877913H88.3767V0.142016H95.7499Z" fill="#231F20"/>
<path d="M102.733 0.142016C104.787 0.142016 106.542 0.78754 106.542 3.00814C106.542 5.2423 104.786 5.88782 102.733 5.88782H100.525V9.18129H99.7631V0.142016H102.733ZM102.773 0.877913H100.538V5.15193H102.773C104.4 5.15193 105.768 4.71233 105.768 3.00814C105.768 1.3046 104.412 0.877913 102.773 0.877913Z" fill="#231F20"/>
<path d="M114.896 0C118.047 0 119.596 2.36262 119.596 4.66133C119.596 6.96068 118.047 9.3233 114.896 9.3233C111.745 9.3233 110.195 6.96068 110.195 4.66133C110.195 2.36262 111.745 0 114.896 0ZM114.896 0.722987C112.248 0.722987 110.97 2.69894 110.97 4.66133C110.97 6.62437 112.248 8.60031 114.896 8.60031C117.543 8.60031 118.822 6.62437 118.822 4.66133C118.822 2.69894 117.543 0.722987 114.896 0.722987Z" fill="#231F20"/>
<path d="M131.434 0.142016V9.18129H130.672V5.01056H124.81V9.18129H124.048V0.142016H124.81V4.27401H130.672V0.142016H131.434Z" fill="#231F20"/>
<path d="M143.906 0.142016V9.18129H143.144V5.01056H137.282V9.18129H136.519V0.142016H137.282V4.27401H143.144V0.142016H143.906Z" fill="#231F20"/>
<path d="M147.88 9.18129L151.909 0.142016H152.775L156.791 9.18129H155.965L154.893 6.75347H149.793L148.707 9.18129H147.88ZM150.089 6.03048H154.583L152.452 1.21359C152.413 1.1103 152.375 1.01993 152.335 0.929555C152.297 1.02057 152.258 1.1103 152.219 1.21359L150.089 6.03048Z" fill="#231F20"/>
<path d="M159.874 9.18129L162.599 5.6819C161.243 5.38496 160.236 4.50705 160.236 2.95715C160.236 1.03284 161.824 0.142016 163.658 0.142016H167.003V9.18129H166.241V5.78519H163.452L160.804 9.18129H159.874ZM163.619 5.04864H166.228V0.877913H163.619C162.173 0.877913 161.023 1.53635 161.023 2.95715C161.023 4.39021 162.173 5.04864 163.619 5.04864Z" fill="#231F20"/>
<path d="M7.90767 0.0852051H0V11.0591H7.90767V0.0852051Z" fill="#1F95FF"/>
<path d="M7.90767 13.1571H0V19.3703H7.90767V13.1571Z" fill="#21324E"/>
<path d="M5.56764 24.0503H0V29.0531H5.56764V24.0503Z" fill="#21324E"/>
<path d="M15.6539 21.6295H7.90765V29.053H15.6539V21.6295Z" fill="#21324E"/>
<path d="M23.3196 21.8716H17.994V29.053H23.3196V21.8716Z" fill="#1F95FF"/>
<path d="M31.2272 24.0503H25.9017V29.0531H31.2272V24.0503Z" fill="#1F95FF"/>
<path d="M31.2272 7.77795H25.9017V19.3703H31.2272V7.77795Z" fill="#4AC43D"/>
<path d="M31.2272 0.0852051H25.9017V5.08801H31.2272V0.0852051Z" fill="#FF521D"/>
<path d="M21.1409 0.0852051H12.9912V5.08801H21.1409V0.0852051Z" fill="#FE881C"/>
<path d="M23.6223 7.84509H10.6512V17.5144H23.6223V7.84509Z" fill="#FFC20F"/>
</svg>
