<svg width="110" height="101" viewBox="0 0 110 101" fill="none" xmlns="http://www.w3.org/2000/svg">
<path d="M6.67857 62.0714L2.75 62.8571H5.89286C5.89286 62.8571 6.28571 62.8571 6.28571 63.25V77.7857C6.28571 77.7857 6.28571 78.1786 5.89286 78.1786L0.392857 78.5714C0.392857 78.5714 0 78.5714 0 78.1786V59.3214C0.392857 58.9286 0.392857 58.9286 0.785714 58.9286L19.6429 55.3929C19.6429 55.3929 20.0357 55.3928 20.0357 55.7857V59.7143C20.0357 59.7143 20.0357 60.1071 19.6429 60.1071L6.67857 62.0714ZM55.7857 73.0714L59.3214 72.6786C60.1071 72.6786 60.5 71.8929 60.5 71.1071V48.7143C60.5 48.7143 60.5 48.3214 60.1071 48.3214L58.1429 48.7143C56.5714 49.1071 55 50.2857 54.2143 51.8571L51.4643 58.9286C51.4643 59.3214 51.0714 59.3214 51.0714 58.9286L47.5357 53.0357C46.75 51.4643 45.1786 51.0714 43.6071 51.0714L41.6429 51.4643C41.6429 51.4643 41.25 51.4643 41.25 51.8571V73.8571C41.25 73.8571 41.25 74.25 41.6429 74.25L45.1786 73.8571C45.9643 73.8571 46.3571 73.0714 46.3571 72.2857V63.6429L45.5714 61.6786L46.75 63.25L49.1071 67.1786C49.1071 67.1786 49.1071 67.1786 49.5 67.1786L51.4643 66.7857C52.25 66.7857 53.0357 66.3929 53.4286 65.6071L55.3929 62.0714L56.5714 60.1071C56.5714 60.1071 55.7857 62.0714 55.7857 62.4643V73.0714C55.7857 72.6786 55.7857 73.0714 55.7857 73.0714ZM34.1786 75.0357L38.8929 74.6428C39.6786 74.6428 40.0714 73.8571 40.0714 73.0714V52.25C40.0714 52.25 40.0714 51.8571 39.6786 51.8571L20.8214 55.3929C20.8214 55.3929 20.4286 55.3928 20.4286 55.7857V76.2143C20.4286 76.2143 20.4286 76.6071 20.8214 76.6071L25.5357 76.2143C26.3214 76.2143 26.7143 75.4286 26.7143 74.6428V60.1071C26.7143 60.1071 26.7143 59.7143 26.3214 59.7143H23.1786C23.1786 59.7143 26.7143 59.3214 27.1071 58.9286L33 58.1429C33 58.1429 33.3929 58.1428 33.3929 58.5357L34.1786 75.0357C33.7857 75.0357 34.1786 75.0357 34.1786 75.0357ZM20.4286 84.4643C20.4286 85.6428 20.0357 86.4286 19.6429 87.6071C19.25 88.3928 18.4643 89.1786 17.6786 89.9643C16.8929 90.75 15.7143 91.1428 14.9286 91.5357C13.75 91.9286 12.5714 92.3214 11.3929 92.3214H7.46429C7.46429 92.3214 7.07143 92.3214 7.07143 92.7143V93.1071V98.6071C7.07143 99.3928 6.28571 100.179 5.5 100.179H0.785714C0.785714 100.179 0.392857 100.179 0.392857 99.7857V79.75C0.392857 79.3571 0.785714 79.3571 1.17857 79.3571L11.3929 78.5714C12.5714 78.5714 14.1429 78.5714 14.9286 78.5714C16.1071 78.5714 16.8929 78.9643 17.6786 79.3571C18.4643 79.75 19.25 80.5357 19.6429 81.3214C20.0357 82.5 20.4286 83.6786 20.4286 84.4643ZM13.75 84.8571C13.75 84.0714 13.3571 83.6786 12.9643 83.2857C12.5714 82.8929 11.7857 82.8929 11 82.8929L7.85714 83.2857L3.53571 83.6786H7.07143C7.07143 83.6786 7.46429 83.6786 7.46429 84.0714V87.2143C7.46429 87.6071 7.85714 87.6071 8.25 87.6071H11.3929C12.1786 87.6071 12.9643 87.2143 13.3571 86.8214C13.3571 86.0357 13.75 85.6429 13.75 84.8571ZM34.1786 81.3214L38.8929 80.9286C39.6786 80.9286 40.0714 80.1429 40.0714 79.3571V75.4286C40.0714 75.4286 40.0714 75.0357 39.6786 75.0357L20.8214 76.6071C20.8214 76.6071 20.4286 76.6071 20.4286 77V81.3214C20.4286 81.3214 20.4286 81.7143 20.8214 81.7143L26.7143 81.3214C26.7143 81.3214 27.1071 81.3214 27.1071 81.7143V99.3928C27.1071 99.3928 27.1071 99.7857 27.5 99.7857H32.6071C33.3929 99.7857 33.7857 99.3928 33.7857 98.6071V82.1071C33.7857 82.1071 33.7857 81.7143 33.3929 81.7143L29.8571 81.3214C30.25 81.7143 34.1786 81.3214 34.1786 81.3214ZM61.2857 92.3214C61.2857 93.5 61.2857 94.6786 60.8929 95.4643C60.5 96.25 60.1071 97.0357 59.3214 97.8214C58.5357 98.6071 57.75 99 56.5714 99.3928C55.3929 99.7857 54.6071 99.7857 53.0357 99.7857H41.6429C41.6429 99.7857 41.25 99.7857 41.25 99.3928V76.6071C41.25 75.8214 41.6429 75.0357 42.4286 75.0357L52.25 74.25C53.4286 74.25 54.6071 74.25 55.7857 74.25C56.9643 74.6428 57.75 75.0357 58.5357 75.4286C59.3214 75.8214 59.7143 76.6071 60.1071 77.7857C60.5 78.5714 60.8929 79.75 60.8929 80.9286C60.8929 82.1071 60.5 83.2857 60.1071 84.0714C59.7143 84.8571 58.9286 85.6428 58.1429 86.0357V86.4286C59.3214 86.8214 60.1071 87.6071 60.5 88.3928C60.8929 89.9643 61.2857 90.75 61.2857 92.3214ZM47.9286 84.0714C47.9286 84.4643 47.9286 84.4643 47.9286 84.0714H51.8571C52.6429 84.0714 53.0357 83.6786 53.4286 83.2857C53.8214 82.8929 54.2143 82.5 54.2143 81.7143C54.2143 80.9286 53.8214 80.5357 53.4286 80.1428C53.0357 79.75 52.6429 79.75 51.8571 79.75H49.1071C48.7143 79.75 44 80.1428 44 80.1428L47.5357 80.5357C47.5357 80.5357 47.9286 80.5357 47.9286 80.9286V84.0714ZM54.6071 91.9286C54.6071 91.1428 54.2143 90.75 53.8214 90.3571C53.4286 89.9643 52.6429 89.9643 52.25 89.9643H49.1071C48.3214 89.9643 47.9286 90.75 47.9286 91.5357V94.2857C47.9286 94.2857 47.9286 94.6786 48.3214 94.6786H52.25C53.0357 94.6786 53.4286 94.2857 53.8214 93.8928C54.2143 93.1071 54.6071 92.7143 54.6071 91.9286ZM70.7143 99.7857L69.5357 37.7143C69.5357 37.7143 69.5357 37.3214 69.1429 37.3214L0.392857 51.0714C0.392857 51.0714 0.392857 51.0714 0.392857 51.4643V54.6071C0.392857 55 0.392857 55 0.785714 55L64.4286 43.6071C64.4286 43.6071 64.8214 43.6071 64.8214 44V100.179C64.8214 100.179 64.8214 100.571 65.2143 100.571L70.7143 99.7857ZM74.6429 99.7857H82.5C82.5 99.7857 82.8929 99.7857 82.8929 99.3928L78.5714 26.3214C78.5714 26.3214 78.5714 25.9286 78.1786 25.9286L0.392857 42.8214C0.392857 42.8214 0.392857 42.8214 0.392857 43.2143V47.1429C0.392857 47.1429 0.392857 47.1429 0.785714 47.1429L73.0714 33C73.0714 33 73.4643 33 73.4643 33.3929L74.6429 99.7857ZM86.8214 99.7857H95.0714C95.0714 99.7857 95.4643 99.7857 95.4643 99.3928L88.3929 13.75C88.3929 13.75 88.3929 13.3571 88 13.3571L0.392857 33.7857C0.392857 33.7857 0.392857 33.7857 0.392857 34.1786V38.5C0.392857 38.5 0.392857 38.8929 0.785714 38.8929L82.1071 21.6071C82.1071 21.6071 82.5 21.6071 82.5 22L86.8214 99.7857ZM99.7857 99.7857H109.607C109.607 99.7857 110 99.7857 110 99.3928L98.2143 0.392857C98.2143 0.392857 98.2143 0 97.8214 0L0.392857 24.3571C0.392857 24.3571 0.392857 24.3571 0.392857 24.75V29.8571C0.392857 29.8571 0.392857 30.25 0.785714 30.25L91.5357 9.03571C91.5357 9.03571 91.9286 9.03571 91.9286 9.42857L99.7857 99.7857C99.3929 99.7857 99.3929 99.7857 99.7857 99.7857Z" fill="#2D6CB5"/>
</svg>
