<?xml version="1.0" encoding="UTF-8" standalone="no"?>
<svg
   xmlns:dc="http://purl.org/dc/elements/1.1/"
   xmlns:cc="http://creativecommons.org/ns#"
   xmlns:rdf="http://www.w3.org/1999/02/22-rdf-syntax-ns#"
   xmlns:svg="http://www.w3.org/2000/svg"
   xmlns="http://www.w3.org/2000/svg"
   viewBox="0 0 377.94666 68.32"
   height="33"
   width="180"
   xml:space="preserve"
   id="svg2"
   version="1.1"><metadata
     id="metadata8"><rdf:RDF><cc:Work
         rdf:about=""><dc:format>image/svg+xml</dc:format><dc:type
           rdf:resource="http://purl.org/dc/dcmitype/StillImage" /></cc:Work></rdf:RDF></metadata><defs
     id="defs6"><clipPath
       id="clipPath20"
       clipPathUnits="userSpaceOnUse"><path
         id="path18"
         d="M 0,0 H 2834.65 V 512 H 0 Z" /></clipPath></defs><g
     transform="matrix(1.3333333,0,0,-1.3333333,0,68.32)"
     id="g10"><g
       transform="scale(0.1)"
       id="g12"><g
         id="g14"><g
           clip-path="url(#clipPath20)"
           id="g16"><path
             id="path22"
             style="fill:#05a6bc;fill-opacity:1;fill-rule:evenodd;stroke:none"
             d="M 1440.56,505.305 H 1327.73 L 1228.38,7.08984 h 112.81 l 99.37,498.21516" /><path
             id="path24"
             style="fill:#05a6bc;fill-opacity:1;fill-rule:evenodd;stroke:none"
             d="M 1291.09,505.305 H 1178.27 L 968.125,159.492 901.824,505.305 H 788.988 L 884.492,7.08984 H 988.41 L 1291.09,505.305" /><path
             id="path26"
             style="fill:#05a6bc;fill-opacity:1;fill-rule:evenodd;stroke:none"
             d="M 1862.74,505.305 H 1494.25 L 1474.7,400.668 h 128.2 L 1524.43,7.08984 h 112.84 l 78.47,393.57816 h 127.5 l 19.5,104.637" /><path
             id="path28"
             style="fill:#05a6bc;fill-opacity:1;fill-rule:evenodd;stroke:none"
             d="M 648.637,505.305 582.918,175.617 410.16,505.305 H 312.672 L 213.328,7.08984 H 322.023 L 387.902,337.516 560.297,7.08984 h 97.75 L 757.371,505.305 H 648.637" /><path
             id="path30"
             style="fill:#05a6bc;fill-opacity:1;fill-rule:evenodd;stroke:none"
             d="m 2131.11,505.305 h -207 L 1824.74,7.08984 h 112.87 l 78.47,393.57816 h 97.56 c 22.59,0 41.03,-7.34 53.04,-19.703 10.58,-10.852 16.16,-27.274 14.56,-43.809 -4.78,-50.062 -44.12,-73.109 -95.28,-73.109 h -82.38 L 2109.63,7.08984 h 112.85 L 2152,177.855 c 85.67,13.754 139.06,76.786 143.26,161.84 4.7,96.52 -66.38,165.61 -164.15,165.61" /><path
             id="path32"
             style="fill:#05a6bc;fill-opacity:1;fill-rule:nonzero;stroke:none"
             d="m 2729.23,256.156 c 5.19,84.926 -54.76,155.723 -145.33,155.723 -90.46,0 -157.46,-69.344 -162.72,-155.723 -5.15,-84.883 54.72,-155.691 145.28,-155.691 90.54,0 157.52,69.39 162.77,155.691 z m -412.99,0 c 8.17,140.832 124.15,256.207 274.51,256.207 150.33,0 251.67,-113.953 243.43,-256.207 C 2826.01,115.34 2710.06,0 2559.61,0 2409.3,0 2308,113.922 2316.24,256.156" /><path
             id="path34"
             style="fill:#05a6bc;fill-opacity:1;fill-rule:evenodd;stroke:none"
             d="M 212.191,505.305 H 99.3398 L 0,7.08984 H 112.867 L 212.191,505.305" /></g></g></g></g></svg>
