<svg width="145" height="33" viewBox="0 0 145 33" fill="none" xmlns="http://www.w3.org/2000/svg">
<path d="M62.2585 1.15789C62.2585 1.15789 63.3118 0.402439 64.7161 0.402439C66.1204 0.402439 67.1737 1.15789 67.1737 1.15789V32.4211C67.1737 32.4211 66.5885 32.5976 65.5353 32.5976C64.482 32.5976 63.0777 32.4211 63.0777 32.4211L62.6682 28.9756L62.5496 24.5488L62.3663 17.7073L62.2585 13.6829V1.15789Z" fill="url(#paint0_linear)"/>
<path fill-rule="evenodd" clip-rule="evenodd" d="M53.657 10.061C60.2106 9.65854 62.2585 13.6829 62.2585 13.6829L62.3663 17.7073C62.3663 17.7073 59.801 12.878 54.0666 13.6829C48.6786 14.4392 48.7148 18.7485 48.7389 21.6031C48.7404 21.7866 48.7419 21.964 48.7419 22.1341C48.7419 26.1585 50.3803 28.9756 55.705 28.9756C60.6201 28.9756 62.5496 24.5488 62.5496 24.5488L62.6682 28.9756C62.6682 28.9756 58.9818 33 55.705 33C49.5611 33 44.3455 30.1829 43.8267 22.5366C43.4171 16.5 47.1035 10.4634 53.657 10.061Z" fill="url(#paint1_linear)"/>
<path d="M33.5869 10.4634C33.5869 10.4634 34.8156 9.65854 36.454 9.65854C38.0924 9.65854 39.3212 10.4634 39.3212 10.4634V32.1951C39.3212 32.1951 37.6828 32.5976 36.454 32.5976C35.2252 32.5976 33.5869 32.1951 33.5869 32.1951V10.4634Z" fill="url(#paint2_linear)"/>
<path d="M0 10.4634C0 10.4634 1.22879 9.65854 2.86717 9.65854C4.50555 9.65854 5.73434 10.4634 5.73434 10.4634V32.1951C5.73434 32.1951 4.09596 32.5976 2.86717 32.5976C1.63838 32.5976 0 32.1951 0 32.1951V10.4634Z" fill="url(#paint3_linear)"/>
<path d="M39.3212 2.81707C39.3212 4.3729 38.0375 5.63415 36.454 5.63415C34.8705 5.63415 33.5869 4.3729 33.5869 2.81707C33.5869 1.26125 34.8705 0 36.454 0C38.0375 0 39.3212 1.26125 39.3212 2.81707Z" fill="url(#paint4_linear)"/>
<path d="M5.73434 2.81707C5.73434 4.3729 4.45066 5.63415 2.86717 5.63415C1.28368 5.63415 0 4.3729 0 2.81707C0 1.26125 1.28368 0 2.86717 0C4.45066 0 5.73434 1.26125 5.73434 2.81707Z" fill="url(#paint5_linear)"/>
<path d="M8.19192 10.8659C8.60151 10.061 9.8303 10.4634 11.0591 10.4634C12.2879 10.4634 13.1071 10.4634 13.5167 10.8659C13.9263 11.2683 18.4318 26.9634 18.4318 26.9634H19.251L27.8525 0.402439C27.8525 0.402439 32.7677 -0.353017 32.7677 0.402439C32.7677 1.15789 22.5278 32.1951 22.5278 32.1951C22.5278 32.1951 20.4798 32.5976 18.8414 32.5976C17.203 32.5976 15.155 32.1951 15.155 32.1951C15.155 32.1951 7.78232 11.6707 8.19192 10.8659Z" fill="url(#paint6_linear)"/>
<path d="M123.698 10.8659V31.7927C123.698 31.7927 124.517 32.5976 126.155 32.5976C127.794 32.5976 128.613 32.1951 128.613 32.1951V17.7073C128.613 17.7073 132.299 13.6829 134.757 13.6829C139.672 13.6829 140.082 18.5122 140.082 18.5122V31.7927C140.082 31.7927 141.311 32.5976 142.539 32.5976C143.768 32.5976 144.997 31.7927 144.997 31.7927V17.3049C144.997 17.3049 145.406 9.65854 136.805 9.65854C131.48 9.65854 128.203 14.4878 128.203 14.4878V10.8659C128.203 10.8659 127.384 10.4634 125.746 10.4634C124.108 10.4634 123.698 10.8659 123.698 10.8659Z" fill="url(#paint7_linear)"/>
<path fill-rule="evenodd" clip-rule="evenodd" d="M92.9782 22.5366H77.4136C77.4136 22.5366 77.004 28.9756 84.3767 28.9756C87.7938 28.9756 90.3675 28.1469 91.8813 27.6595C92.7264 27.3874 93.2411 27.2217 93.3878 27.3659C93.7974 27.7683 93.3878 30.5854 93.3878 30.5854C93.3878 30.5854 90.9303 32.5976 84.3767 32.5976C75.7752 32.5976 71.6793 29.7805 71.2697 21.6031C70.8601 13.4258 77.4136 9.65854 83.1479 9.65854C96.255 10.061 94.207 21.6031 94.207 21.6031L92.9782 22.5366ZM88.4727 19.3171H77.4136C77.4136 19.3171 77.004 13.2805 83.1479 13.2805C89.2919 13.2805 88.4727 19.3171 88.4727 19.3171Z" fill="url(#paint8_linear)"/>
<path fill-rule="evenodd" clip-rule="evenodd" d="M108.543 9.65854C98.7126 9.65854 97.0742 20.3958 97.0742 21.6031C97.0742 22.8105 98.7126 32.5976 108.543 32.5976C118.373 32.5976 120.421 23.3415 120.421 20.9268C120.421 18.5122 118.373 9.65854 108.543 9.65854ZM102.399 21.6031C102.399 19.4624 102.809 13.6829 108.952 13.6829C114.687 13.6829 115.506 19.3171 115.506 20.9268C115.506 22.5366 114.277 28.9756 108.543 28.9756C103.628 28.9756 102.399 23.7439 102.399 21.6031Z" fill="url(#paint9_linear)"/>
<defs>
<linearGradient id="paint0_linear" x2="1" gradientUnits="userSpaceOnUse" gradientTransform="translate(145) scale(145 33) rotate(90)">
<stop stop-color="#1F9CFF"/>
<stop offset="1" stop-color="#246FBB"/>
</linearGradient>
<linearGradient id="paint1_linear" x2="1" gradientUnits="userSpaceOnUse" gradientTransform="translate(145) scale(145 33) rotate(90)">
<stop stop-color="#1F9CFF"/>
<stop offset="1" stop-color="#246FBB"/>
</linearGradient>
<linearGradient id="paint2_linear" x2="1" gradientUnits="userSpaceOnUse" gradientTransform="translate(145) scale(145 33) rotate(90)">
<stop stop-color="#1F9CFF"/>
<stop offset="1" stop-color="#246FBB"/>
</linearGradient>
<linearGradient id="paint3_linear" x2="1" gradientUnits="userSpaceOnUse" gradientTransform="translate(145) scale(145 33) rotate(90)">
<stop stop-color="#1F9CFF"/>
<stop offset="1" stop-color="#246FBB"/>
</linearGradient>
<linearGradient id="paint4_linear" x2="1" gradientUnits="userSpaceOnUse" gradientTransform="translate(145) scale(145 33) rotate(90)">
<stop stop-color="#1F9CFF"/>
<stop offset="1" stop-color="#246FBB"/>
</linearGradient>
<linearGradient id="paint5_linear" x2="1" gradientUnits="userSpaceOnUse" gradientTransform="translate(145) scale(145 33) rotate(90)">
<stop stop-color="#1F9CFF"/>
<stop offset="1" stop-color="#246FBB"/>
</linearGradient>
<linearGradient id="paint6_linear" x2="1" gradientUnits="userSpaceOnUse" gradientTransform="translate(145) scale(145 33) rotate(90)">
<stop stop-color="#1F9CFF"/>
<stop offset="1" stop-color="#246FBB"/>
</linearGradient>
<linearGradient id="paint7_linear" x2="1" gradientUnits="userSpaceOnUse" gradientTransform="translate(145) scale(145 33) rotate(90)">
<stop stop-color="#1F9CFF"/>
<stop offset="1" stop-color="#246FBB"/>
</linearGradient>
<linearGradient id="paint8_linear" x2="1" gradientUnits="userSpaceOnUse" gradientTransform="translate(145) scale(145 33) rotate(90)">
<stop stop-color="#1F9CFF"/>
<stop offset="1" stop-color="#246FBB"/>
</linearGradient>
<linearGradient id="paint9_linear" x2="1" gradientUnits="userSpaceOnUse" gradientTransform="translate(145) scale(145 33) rotate(90)">
<stop stop-color="#1F9CFF"/>
<stop offset="1" stop-color="#246FBB"/>
</linearGradient>
</defs>
</svg>
