<svg width="170" height="33" viewBox="0 0 170 33" fill="none" xmlns="http://www.w3.org/2000/svg">
<path d="M76.5876 16.2865C76.5876 22.7301 72.656 25.7768 67.7355 25.7768H64.7283V21.9104H67.501C70.4692 21.9104 72.4477 20.3094 72.4477 16.2865C72.4477 12.3026 70.5763 10.3106 67.4127 10.3106C64.3666 10.3106 62.1889 12.1857 62.1889 16.208V32.3769H58.088V6.9521H62.1889V9.13955H62.7747C64.1419 7.30409 66.1625 6.48379 68.272 6.48379C72.8028 6.48318 76.5876 9.76375 76.5876 16.2865ZM49.6366 14.607L46.9029 14.3335C44.755 14.138 43.6223 13.5522 43.6223 12.3026C43.6223 10.8185 45.0675 9.95923 47.1374 9.95923C49.2852 9.95923 50.6524 10.9744 50.7693 12.4195H54.7137C54.5572 8.74858 51.7065 6.48318 47.1757 6.48318C42.606 6.48318 39.5209 8.90448 39.5209 12.4585C39.5209 15.4266 41.3953 17.3407 45.6527 17.77L48.4254 18.0434C50.1049 18.1999 51.2376 18.5513 51.2376 20.1523C51.2376 21.5974 50.1829 22.6516 47.4102 22.6516C44.8567 22.6516 43.5986 21.4927 43.1571 19.9398H38.8894C39.3144 23.4901 42.2972 26.2445 47.4102 26.2445C52.2138 26.2445 55.3385 23.7057 55.3385 19.9568C55.3385 16.6379 53.1516 14.9583 49.6366 14.607ZM92.4703 19.9404C91.8273 21.4178 90.2896 22.5352 88.1088 22.5352C85.1017 22.5352 82.8753 20.5823 82.8753 16.3645C82.8753 12.3416 84.9452 10.1157 88.1478 10.1157C90.999 10.1157 92.639 11.8343 92.7955 14.4121H85.4141V17.3809H96.8184V15.4279C96.8184 9.99882 93.2255 6.48379 88.1088 6.48379C83.3442 6.48379 78.7744 9.72539 78.7744 16.3651C78.7744 23.0048 83.3442 26.2464 88.1088 26.2464C92.4667 26.2464 95.5743 23.562 96.5401 19.9416H92.4703V19.9404ZM27.8242 6.48318C23.333 6.48318 19.9739 8.82714 19.5835 12.4195H23.9968C24.3092 11.0919 25.5198 10.1157 27.8242 10.1157C30.7924 10.1157 31.7686 11.6784 31.7686 13.5918V20.0354C30.089 21.9494 28.1366 22.8477 26.1836 22.8477C24.1527 22.8477 22.7466 21.8715 22.7466 20.1139C22.7466 18.4344 23.8403 17.3802 25.9492 17.3802H29.2297V14.4115H25.8316C21.1449 14.4115 18.5282 16.7548 18.5282 20.3478C18.5282 23.7063 21.067 26.2451 25.2458 26.2451C27.5892 26.2451 29.6591 25.3079 31.1821 24.1752H31.768V25.7768H35.8688V13.2008C35.8694 8.5531 32.7058 6.48318 27.8242 6.48318ZM0 25.7768H4.10086V0H0V25.7768ZM17.2237 6.9521H12.2246L6.24934 14.8024V17.2627L12.3805 25.7768H17.4576L10.2716 16.0131L17.2237 6.9521ZM165.469 6.9521L162.11 14.4115C161.29 16.2086 160.509 17.9655 160.275 19.1371H159.688C159.454 17.9655 158.634 16.2469 157.814 14.4504L154.455 6.95149H149.925L157.814 23.8628L153.909 32.3769H158.283L170 6.95149H165.469V6.9521ZM149.018 6.9521H144.019L138.043 14.8024V17.2627L144.175 25.7768H149.252L142.066 16.0131L149.018 6.9521ZM123.342 14.607L120.609 14.3335C118.461 14.138 117.328 13.5522 117.328 12.3026C117.328 10.8185 118.773 9.95923 120.843 9.95923C122.991 9.95923 124.358 10.9744 124.475 12.4195H128.42C128.263 8.74858 125.412 6.48318 120.882 6.48318C116.312 6.48318 113.227 8.90448 113.227 12.4585C113.227 15.4266 115.101 17.3407 119.359 17.77L122.131 18.0434C123.811 18.1999 124.944 18.5513 124.944 20.1523C124.944 21.5974 123.889 22.6516 121.116 22.6516C118.563 22.6516 117.304 21.4927 116.863 19.9398H112.595C113.02 23.4901 116.003 26.2445 121.116 26.2445C125.92 26.2445 129.044 23.7057 129.044 19.9568C129.044 16.6379 126.858 14.9583 123.342 14.607ZM131.795 25.7768H135.895V0H131.795V25.7768ZM104.752 9.13894H104.166V6.95149H100.066V25.7762H104.166V15.9345C104.166 12.576 105.718 10.623 108.775 10.623H111.371V6.48318H109.869C107.032 6.48318 105.827 7.55316 104.752 9.13894Z" fill="#00A88E"/>
</svg>
