<svg width="181" height="82" viewBox="0 0 181 82" fill="none" xmlns="http://www.w3.org/2000/svg">
<path fill-rule="evenodd" clip-rule="evenodd" d="M44.1465 10.3706C44.9635 9.27875 45.438 7.89567 45.438 6.39118C45.438 2.62025 43.3069 0 39.7883 0C36.2697 0 33.177 2.86143 33.177 6.39118C33.177 8.70421 34.2588 10.0088 36.0619 11.8522C36.9895 12.4424 38.0946 12.7824 39.3075 12.7824C41.3056 12.7824 43.0114 11.8596 44.1124 10.4157C44.1238 10.4007 44.1352 10.3857 44.1465 10.3706ZM39.3075 10.3706C41.4983 10.3706 43.2743 8.58895 43.2743 6.39118C43.2743 4.19341 41.4983 2.41176 39.3075 2.41176C37.1167 2.41176 35.3407 4.19341 35.3407 6.39118C35.3407 8.58895 37.1167 10.3706 39.3075 10.3706Z" fill="#82AF40"/>
<path d="M46.1592 21.3091C45.1101 20.8952 44.2359 21.5001 44.2359 21.5001C44.2359 21.5001 43.5486 21.3724 43.1513 21.3091C42.7768 21.7824 42.553 22.3811 42.553 23.0324C42.553 23.3284 42.5993 23.6137 42.6849 23.8812C43.8593 24.4014 44.9481 25.017 46.0249 25.7143C47.156 25.4151 48.0033 24.4148 48.0773 23.2047C47.8215 23.0479 47.3027 22.7449 47.3027 22.7449C47.3027 22.7449 47.2084 21.7231 46.1592 21.3091Z" fill="#82AF40"/>
<path d="M44.1124 10.4157C43.0114 11.8596 41.3056 12.7824 39.3075 12.7824C38.0946 12.7824 36.9895 12.4424 36.0619 11.8522C36.0619 11.8522 38.9746 14.35 39.3075 15.0735C40.0287 16.6412 40.9037 21.0457 40.9037 21.0457C41.6748 21.0972 42.4578 21.1987 43.1513 21.3091C43.6578 20.6692 44.44 20.2588 45.3178 20.2588C45.5242 20.2588 45.7253 20.2815 45.9188 20.3245C45.9188 20.3245 42.553 15.7971 42.553 14.35C42.553 12.5883 43.8814 10.7262 44.1124 10.4157Z" fill="#82AF40"/>
<path d="M48.0825 23.0324C48.0825 23.0902 48.0808 23.1477 48.0773 23.2047C49.0354 23.7922 49.9599 24.4293 50.8473 25.1127L75.3694 23.6353C75.3694 23.6353 75.4896 20.1382 73.3259 19.1735C71.1622 18.2088 59.3819 18.45 47.2453 21.044C47.7617 21.5479 48.0825 22.2525 48.0825 23.0324Z" fill="#82AF40"/>
<path fill-rule="evenodd" clip-rule="evenodd" d="M43.1513 21.3091C42.7768 21.7824 42.553 22.3811 42.553 23.0324C42.553 23.3284 42.5993 23.6137 42.6849 23.8812C40.1821 22.7727 37.2904 22.0977 33.2972 21.9895C33.2972 21.9895 36.5427 21.2648 39.0671 21.044C40.3135 20.9349 41.8824 21.107 43.1513 21.3091ZM48.5648 27.4941C47.702 26.8553 46.8671 26.2598 46.0249 25.7143C47.156 25.4151 48.0033 24.4148 48.0773 23.2047C49.0354 23.7922 49.9599 24.4293 50.8473 25.1127L48.5648 27.4941ZM62.9348 54.6265C63.1285 53.2072 63.2285 51.758 63.2285 50.2853C63.2285 48.9791 63.1498 47.6913 62.9969 46.4265L59.9056 47.0294C60.0361 48.1367 60.1032 49.2634 60.1032 50.4059C60.1032 51.5483 60.0361 52.6751 59.9056 53.7823L62.9348 54.6265ZM54.4535 67.4518C55.7399 65.7291 56.8361 63.8554 57.711 61.8618L60.7121 62.7059C59.6642 65.1732 58.3137 67.48 56.7072 69.5794L54.4535 67.4518ZM48.5634 73.3187C46.7526 74.6593 44.7772 75.7892 42.6733 76.672L43.7551 79.5771C46.2897 78.5187 48.6575 77.1388 50.8079 75.4882L48.5634 73.3187ZM31.7345 78.8647C32.7495 78.8647 33.7521 78.8112 34.7396 78.7069L35.4609 81.7676C34.2001 81.921 32.9164 82 31.6143 82C30.1878 82 28.7834 81.9052 27.407 81.7216L28.2485 78.652C29.3909 78.7924 30.5543 78.8647 31.7345 78.8647ZM20.3149 76.465C18.3276 75.5873 16.4597 74.4875 14.7425 73.1971L12.4207 75.4882C14.571 77.1388 16.9388 78.5187 19.4734 79.5771L20.3149 76.465ZM5.60216 61.5C6.47461 63.5656 7.5833 65.5063 8.89424 67.2882L6.52135 69.5794C4.86264 67.4117 3.47677 65.0229 2.41523 62.4647L5.60216 61.5ZM3.52306 53.4206C3.41909 52.4299 3.36578 51.4242 3.36578 50.4059C3.36578 49.3049 3.4281 48.2185 3.54941 47.15L0.26175 46.1853C0.0890546 47.5275 0 48.896 0 50.2853C0 51.6746 0.0890545 53.0431 0.26175 54.3853L3.52306 53.4206ZM8.89527 33.5221C7.6665 35.1921 6.61538 37.0017 5.7699 38.9228L2.41523 38.1059C3.47032 35.5632 4.84581 33.1879 6.49114 31.0307L8.89527 33.5221ZM57.711 38.95L60.763 37.9853C59.7146 35.4881 58.3567 33.1538 56.7374 31.0307L54.5747 33.5235C55.8088 35.201 56.8637 37.0193 57.711 38.95ZM20.4351 24.2941L19.3532 21.044C16.8956 22.0823 14.5962 23.4233 12.5015 25.0205L14.9042 27.4941C16.6115 26.2299 18.4652 25.1531 20.4351 24.2941ZM31.7345 75.9706C45.8088 75.9706 57.2182 64.5249 57.2182 50.4059C57.2182 36.2869 45.8088 24.8412 31.7345 24.8412C17.6602 24.8412 6.25073 36.2869 6.25073 50.4059C6.25073 64.5249 17.6602 75.9706 31.7345 75.9706ZM26.6858 36.0559V47.1566L40.3023 33.6071C41.3894 32.5254 43.1449 32.5325 44.2232 33.6231C45.3016 34.7136 45.2945 36.4747 44.2074 37.5565L32.0911 49.1326L45.6946 63.2963C46.769 64.4156 46.7523 66.1919 45.657 67.2907C44.5617 68.3895 42.7911 68.4062 41.6752 67.3284L26.6858 52.8496V64.9971C26.6858 66.662 25.3404 68.0118 23.6807 68.0118C22.0209 68.0118 20.6755 66.662 20.6755 64.9971V36.0559C20.6755 34.3909 22.0209 33.0412 23.6807 33.0412C25.3404 33.0412 26.6858 34.3909 26.6858 36.0559Z" fill="#82AF40"/>
<path d="M72.3642 43.4118C72.3642 42.6126 73.01 41.9647 73.8067 41.9647C74.6034 41.9647 75.2492 42.6126 75.2492 43.4118V56.6765C75.2492 57.4757 74.6034 58.1235 73.8067 58.1235C73.01 58.1235 72.3642 57.4757 72.3642 56.6765V43.4118Z" fill="#82AF40"/>
<path d="M95.4438 47.5118C95.4438 46.7126 96.0897 46.0647 96.8863 46.0647C97.683 46.0647 98.3288 46.7126 98.3288 47.5118V48.4765V56.6765C98.3288 57.4757 97.683 58.1235 96.8863 58.1235C96.0897 58.1235 95.4438 57.4757 95.4438 56.6765V47.5118Z" fill="#82AF40"/>
<path d="M102.897 47.5118C102.897 46.7126 103.542 46.0647 104.339 46.0647C105.136 46.0647 105.782 46.7126 105.782 47.5118V56.6765C105.782 57.4757 105.136 58.1235 104.339 58.1235C103.542 58.1235 102.897 57.4757 102.897 56.6765V48.4765V47.5118Z" fill="#82AF40"/>
<path d="M108.186 47.5118C108.186 46.7126 108.832 46.0647 109.628 46.0647C110.425 46.0647 111.071 46.7126 111.071 47.5118V53.5412V56.6765C111.071 56.8917 111.024 57.0959 110.94 57.2794C110.712 57.7776 110.21 58.1235 109.628 58.1235C108.832 58.1235 108.186 57.4757 108.186 56.6765V47.5118Z" fill="#82AF40"/>
<path d="M116.119 47.5118C116.119 47.3426 116.148 47.1803 116.201 47.0294C116.399 46.4674 116.934 46.0647 117.562 46.0647C118.358 46.0647 119.004 46.7126 119.004 47.5118V56.6765C119.004 57.4757 118.358 58.1235 117.562 58.1235C116.765 58.1235 116.119 57.4757 116.119 56.6765V51.0088V47.5118Z" fill="#82AF40"/>
<path d="M144.488 47.5118C144.488 46.7126 145.134 46.0647 145.93 46.0647C146.727 46.0647 147.373 46.7126 147.373 47.5118V48.3559V56.6765C147.373 57.4757 146.727 58.1235 145.93 58.1235C145.134 58.1235 144.488 57.4757 144.488 56.6765V47.5118Z" fill="#82AF40"/>
<path d="M151.941 47.5118C151.941 46.7126 152.587 46.0647 153.383 46.0647C154.18 46.0647 154.826 46.7126 154.826 47.5118V56.6765C154.826 57.4757 154.18 58.1235 153.383 58.1235C152.587 58.1235 151.941 57.4757 151.941 56.6765V48.3559V47.5118Z" fill="#82AF40"/>
<path d="M169.491 47.5118C169.491 46.7126 170.137 46.0647 170.933 46.0647C171.73 46.0647 172.376 46.7126 172.376 47.5118V50.6471V52.6971V56.6765C172.376 57.4757 171.73 58.1235 170.933 58.1235C170.137 58.1235 169.491 57.4757 169.491 56.6765V47.5118Z" fill="#82AF40"/>
<path d="M177.184 47.5118C177.184 46.7126 177.83 46.0647 178.627 46.0647C179.423 46.0647 180.069 46.7126 180.069 47.5118V56.6765C180.069 57.4757 179.423 58.1235 178.627 58.1235C177.83 58.1235 177.184 57.4757 177.184 56.6765V52.6971V50.6471V47.5118Z" fill="#82AF40"/>
<path d="M96.8863 46.0647C97.683 46.0647 98.3288 46.7126 98.3288 47.5118V48.4765H102.897V47.5118C102.897 46.7126 103.542 46.0647 104.339 46.0647H96.8863Z" fill="#82AF40"/>
<path d="M177.184 50.6471H172.376V52.6971H177.184V50.6471Z" fill="#82AF40"/>
<path d="M145.93 46.0647C146.727 46.0647 147.373 46.7126 147.373 47.5118V48.3559H151.941V47.5118C151.941 46.7126 152.587 46.0647 153.383 46.0647H145.93Z" fill="#82AF40"/>
<path d="M116.119 47.5118C116.119 47.3426 116.148 47.1803 116.201 47.0294L111.071 53.5412V56.6765C111.071 56.8917 111.024 57.0959 110.94 57.2794L116.119 51.0088V47.5118Z" fill="#82AF40"/>
<path d="M72.3642 43.4118C72.3642 42.6126 73.01 41.9647 73.8067 41.9647C74.6034 41.9647 75.2492 42.6126 75.2492 43.4118V56.6765C75.2492 57.4757 74.6034 58.1235 73.8067 58.1235C73.01 58.1235 72.3642 57.4757 72.3642 56.6765V43.4118Z" fill="#82AF40"/>
<path d="M81.6689 42.1921C82.0852 41.7981 82.8407 41.9233 83.3563 42.4717C83.872 43.02 83.9526 43.7839 83.5364 44.1778L76.6276 50.7163C76.2113 51.1102 75.4559 50.985 74.9402 50.4367C74.4245 49.8883 74.3439 49.1244 74.7601 48.7305L81.6689 42.1921Z" fill="#82AF40"/>
<path d="M84.3162 56.1243C84.7571 56.5665 84.6837 57.3572 84.1523 57.8903C83.6209 58.4233 82.8328 58.4969 82.3919 58.0547L75.0745 50.714C74.6336 50.2717 74.707 49.481 75.2383 48.948C75.7697 48.4149 76.5579 48.3413 76.9988 48.7836L84.3162 56.1243Z" fill="#82AF40"/>
<path d="M90.4152 55.3241C90.6322 55.8533 90.2448 56.5148 89.5498 56.8016C88.8548 57.0884 88.1155 56.8918 87.8985 56.3626L84.2969 47.5791C84.0799 47.0499 84.4674 46.3884 85.1624 46.1016C85.8574 45.8148 86.5967 46.0114 86.8137 46.5406L90.4152 55.3241Z" fill="#82AF40"/>
<path d="M89.1799 61.793C88.8656 62.6208 88.0416 63.0744 87.3393 62.8061C86.637 62.5378 86.3225 61.6492 86.6368 60.8213L91.8534 47.0813C92.1677 46.2534 92.9918 45.7999 93.694 46.0682C94.3963 46.3365 94.7108 47.2251 94.3965 48.053L89.1799 61.793Z" fill="#82AF40"/>
<path d="M121.374 43.4118C121.374 42.6126 122.02 41.9647 122.816 41.9647C123.613 41.9647 124.259 42.6126 124.259 43.4118V56.6765C124.259 57.4757 123.613 58.1235 122.816 58.1235C122.02 58.1235 121.374 57.4757 121.374 56.6765V43.4118Z" fill="#82AF40"/>
<path d="M121.374 43.4118C121.374 42.6126 122.02 41.9647 122.816 41.9647C123.613 41.9647 124.259 42.6126 124.259 43.4118V56.6765C124.259 57.4757 123.613 58.1235 122.816 58.1235C122.02 58.1235 121.374 57.4757 121.374 56.6765V43.4118Z" fill="#82AF40"/>
<path d="M130.679 42.1921C131.095 41.7981 131.85 41.9233 132.366 42.4717C132.882 43.02 132.962 43.7839 132.546 44.1778L125.637 50.7163C125.221 51.1102 124.466 50.985 123.95 50.4367C123.434 49.8883 123.354 49.1244 123.77 48.7305L130.679 42.1921Z" fill="#82AF40"/>
<path d="M133.326 56.1243C133.767 56.5665 133.693 57.3572 133.162 57.8903C132.631 58.4233 131.842 58.4969 131.402 58.0547L124.084 50.714C123.643 50.2717 123.717 49.481 124.248 48.948C124.779 48.4149 125.568 48.3413 126.008 48.7836L133.326 56.1243Z" fill="#82AF40"/>
<path d="M139.425 55.3241C139.642 55.8533 139.254 56.5148 138.559 56.8016C137.864 57.0884 137.125 56.8918 136.908 56.3626L133.307 47.5791C133.09 47.0499 133.477 46.3884 134.172 46.1016C134.867 45.8148 135.606 46.0114 135.823 46.5406L139.425 55.3241Z" fill="#82AF40"/>
<path d="M138.19 61.793C137.875 62.6208 137.051 63.0744 136.349 62.8061C135.647 62.5378 135.332 61.6492 135.646 60.8213L140.863 47.0813C141.177 46.2534 142.001 45.7999 142.704 46.0682C143.406 46.3365 143.72 47.2251 143.406 48.053L138.19 61.793Z" fill="#82AF40"/>
<path fill-rule="evenodd" clip-rule="evenodd" d="M162.038 58.6059C165.225 58.6059 167.808 55.7445 167.808 52.2147C167.808 48.685 165.225 45.8235 162.038 45.8235C158.852 45.8235 156.268 48.685 156.268 52.2147C156.268 55.7445 158.852 58.6059 162.038 58.6059ZM162.038 55.9529C163.631 55.9529 164.923 54.2253 164.923 52.0941C164.923 49.9629 163.631 48.2353 162.038 48.2353C160.445 48.2353 159.153 49.9629 159.153 52.0941C159.153 54.2253 160.445 55.9529 162.038 55.9529Z" fill="#82AF40"/>
<path d="M77.1715 72.9693V69.0478H75.8274C75.7296 69.778 75.5946 70.4708 75.4224 71.1263C75.2542 71.7819 75.0194 72.3962 74.7181 72.9693H77.1715ZM79.9243 76.6435H78.3161V74.2824H73.9023V76.6435H72.294V72.9693H72.8457C73.2214 72.3844 73.5364 71.6464 73.7907 70.7554C74.0451 69.8643 74.2231 68.8457 74.3249 67.6995H78.9617V72.9693H79.9243V76.6435Z" fill="#82AF40"/>
<path d="M86.6803 74.2824H84.8901V69.0478H83.2408C83.1156 70.5199 82.963 71.619 82.783 72.3452C82.603 73.0674 82.3623 73.5915 82.061 73.9173C81.7636 74.2392 81.3723 74.4001 80.8871 74.4001C80.4724 74.4001 80.1319 74.3373 79.8658 74.2117V72.775C80.0576 72.8535 80.2493 72.8928 80.4411 72.8928C80.6641 72.8928 80.85 72.7318 80.9986 72.4099C81.1513 72.0881 81.2863 71.5522 81.4036 70.8025C81.5249 70.0488 81.6286 69.0145 81.7147 67.6995H86.6803V74.2824Z" fill="#82AF40"/>
<path d="M89.3218 74.2824H87.3848L89.1516 71.6798C88.729 71.5032 88.4081 71.248 88.189 70.9144C87.9737 70.5807 87.8661 70.1882 87.8661 69.7367C87.8661 69.1008 88.1029 68.6023 88.5763 68.2412C89.0537 67.88 89.7033 67.6995 90.525 67.6995H93.5771V74.2824H91.7869V71.8329H90.8009L89.3218 74.2824ZM89.6211 69.7485C89.6211 70.0233 89.7287 70.2392 89.9439 70.3962C90.1591 70.5493 90.4409 70.6258 90.7891 70.6258H91.7869V68.9654H90.5602C90.2667 68.9654 90.0359 69.038 89.8676 69.1833C89.7033 69.3246 89.6211 69.513 89.6211 69.7485Z" fill="#82AF40"/>
<path d="M100.756 74.4001C98.7134 74.4001 97.6921 73.2755 97.6921 71.0262C97.6921 69.9075 97.9699 69.0537 98.5255 68.4649C99.0812 67.8722 99.8775 67.5758 100.914 67.5758C101.674 67.5758 102.354 67.725 102.957 68.0233L102.429 69.4129C102.147 69.2991 101.885 69.2068 101.642 69.1362C101.4 69.0616 101.157 69.0243 100.914 69.0243C99.9831 69.0243 99.5175 69.6877 99.5175 71.0145C99.5175 72.302 99.9831 72.9458 100.914 72.9458C101.259 72.9458 101.578 72.9006 101.871 72.8103C102.165 72.7161 102.458 72.5709 102.752 72.3746V73.9114C102.462 74.0959 102.169 74.2235 101.871 74.2941C101.578 74.3648 101.206 74.4001 100.756 74.4001Z" fill="#82AF40"/>
<path d="M106.755 68.8535C106.375 68.8535 106.078 68.9752 105.863 69.2186C105.647 69.458 105.524 69.7995 105.493 70.2431H108.005C107.997 69.7995 107.882 69.458 107.659 69.2186C107.436 68.9752 107.134 68.8535 106.755 68.8535ZM107.007 74.4001C105.951 74.4001 105.125 74.1077 104.53 73.5228C103.935 72.9379 103.638 72.1096 103.638 71.038C103.638 69.935 103.912 69.0832 104.46 68.4826C105.012 67.8781 105.773 67.5758 106.743 67.5758C107.67 67.5758 108.392 67.8408 108.909 68.3707C109.425 68.9006 109.684 69.6327 109.684 70.567V71.4384H105.452C105.471 71.9487 105.622 72.3471 105.904 72.6337C106.185 72.9202 106.581 73.0635 107.089 73.0635C107.485 73.0635 107.858 73.0223 108.21 72.9399C108.563 72.8574 108.93 72.7259 109.314 72.5454V73.935C109.001 74.092 108.666 74.2078 108.31 74.2824C107.954 74.3609 107.52 74.4001 107.007 74.4001Z" fill="#82AF40"/>
<path d="M110.5 70.3373C110.5 68.826 110.785 67.6798 111.357 66.8987C111.932 66.1136 112.828 65.617 114.045 65.409C114.636 65.3069 115.518 65.1774 116.692 65.0204L116.897 66.5866C116.389 66.6455 115.487 66.7711 114.192 66.9634C113.699 67.042 113.331 67.1597 113.088 67.3167C112.846 67.4737 112.664 67.6975 112.542 67.988C112.425 68.2785 112.352 68.6651 112.325 69.1479H112.413C112.621 68.826 112.894 68.5788 113.235 68.406C113.575 68.2333 113.941 68.147 114.332 68.147C115.142 68.147 115.772 68.3962 116.222 68.8947C116.672 69.3893 116.897 70.0998 116.897 71.0262C116.897 72.0939 116.612 72.9242 116.04 73.5169C115.473 74.1057 114.689 74.4001 113.687 74.4001C112.685 74.4001 111.902 74.0409 111.339 73.3226C110.779 72.6003 110.5 71.6052 110.5 70.3373ZM113.792 72.9458C114.642 72.9458 115.066 72.3589 115.066 71.1852C115.066 70.0429 114.683 69.4718 113.916 69.4718C113.704 69.4718 113.493 69.5208 113.282 69.619C113.074 69.7171 112.883 69.8466 112.707 70.0076C112.534 70.1646 112.407 70.3236 112.325 70.4845C112.325 71.2814 112.452 71.8918 112.707 72.3157C112.961 72.7357 113.323 72.9458 113.792 72.9458Z" fill="#82AF40"/>
<path d="M119.134 74.2824H117.197L118.964 71.6798C118.541 71.5032 118.22 71.248 118.001 70.9144C117.786 70.5807 117.678 70.1882 117.678 69.7367C117.678 69.1008 117.915 68.6023 118.388 68.2412C118.866 67.88 119.515 67.6995 120.337 67.6995H123.389V74.2824H121.599V71.8329H120.613L119.134 74.2824ZM119.433 69.7485C119.433 70.0233 119.541 70.2392 119.756 70.3962C119.971 70.5493 120.253 70.6258 120.601 70.6258H121.599V68.9654H120.372C120.079 68.9654 119.848 69.038 119.68 69.1833C119.515 69.3246 119.433 69.513 119.433 69.7485Z" fill="#82AF40"/>
<path d="M129.635 67.6995V70.302C129.635 70.5768 129.59 71.248 129.5 72.3157L132.528 67.6995H134.683V74.2824H132.951V71.6563C132.951 71.1891 132.99 70.5297 133.068 69.6779L130.052 74.2824H127.903V67.6995H129.635Z" fill="#82AF40"/>
<path d="M143.317 72.9693V69.0478H141.973C141.875 69.778 141.74 70.4708 141.568 71.1263C141.4 71.7819 141.165 72.3962 140.864 72.9693H143.317ZM146.07 76.6435H144.462V74.2824H140.048V76.6435H138.439V72.9693H138.991C139.367 72.3844 139.682 71.6464 139.936 70.7554C140.19 69.8643 140.369 68.8457 140.47 67.6995H145.107V72.9693H146.07V76.6435Z" fill="#82AF40"/>
<path d="M150.554 74.4001C149.783 74.4001 149.179 74.1194 148.741 73.5581H148.647C148.709 74.1077 148.741 74.4256 148.741 74.512V77.1793H146.95V67.6995H148.406L148.658 68.5532H148.741C149.159 67.9016 149.779 67.5758 150.601 67.5758C151.376 67.5758 151.982 67.8761 152.421 68.4767C152.859 69.0773 153.078 69.9114 153.078 70.9791C153.078 71.6818 152.974 72.2922 152.767 72.8103C152.564 73.3285 152.272 73.723 151.892 73.9938C151.513 74.2647 151.067 74.4001 150.554 74.4001ZM150.026 69.0125C149.584 69.0125 149.261 69.1499 149.058 69.4247C148.854 69.6955 148.748 70.145 148.741 70.773V70.9674C148.741 71.6739 148.844 72.1803 149.052 72.4865C149.263 72.7927 149.596 72.9458 150.049 72.9458C150.852 72.9458 151.253 72.2824 151.253 70.9556C151.253 70.3079 151.153 69.8231 150.953 69.5012C150.758 69.1754 150.449 69.0125 150.026 69.0125Z" fill="#82AF40"/>
<path d="M153.378 67.6995H155.338L156.577 71.4031C156.682 71.725 156.755 72.1057 156.794 72.5454H156.829C156.872 72.141 156.956 71.7603 157.081 71.4031L158.296 67.6995H160.216L157.439 75.1244C157.185 75.8113 156.821 76.3255 156.348 76.667C155.878 77.0085 155.328 77.1793 154.698 77.1793C154.389 77.1793 154.086 77.1459 153.789 77.0792V75.6543C154.004 75.7053 154.239 75.7308 154.493 75.7308C154.81 75.7308 155.086 75.6327 155.32 75.4364C155.559 75.2441 155.745 74.9516 155.878 74.5591L155.984 74.2352L153.378 67.6995Z" fill="#82AF40"/>
<path d="M162.552 70.2313C163.229 70.2313 163.708 70.1764 163.99 70.0665C164.276 69.9566 164.418 69.7819 164.418 69.5424C164.418 69.3305 164.315 69.1715 164.107 69.0655C163.9 68.9595 163.557 68.9065 163.08 68.9065C162.779 68.9065 162.436 68.9438 162.053 69.0184C161.673 69.093 161.327 69.195 161.014 69.3246L160.486 68.0704C160.951 67.8938 161.403 67.7682 161.842 67.6936C162.28 67.6151 162.769 67.5758 163.309 67.5758C164.127 67.5758 164.782 67.7328 165.275 68.0469C165.768 68.3609 166.015 68.7868 166.015 69.3246C166.015 70.0665 165.579 70.5493 164.706 70.773V70.8319C165.242 70.9654 165.624 71.1558 165.85 71.4031C166.081 71.6464 166.197 71.9664 166.197 72.3628C166.197 72.7632 166.068 73.1185 165.809 73.4286C165.551 73.7387 165.177 73.9781 164.688 74.1469C164.199 74.3157 163.624 74.4001 162.963 74.4001C161.867 74.4001 161.026 74.2647 160.439 73.9938V72.51C160.775 72.6671 161.143 72.7907 161.542 72.881C161.945 72.9713 162.335 73.0164 162.71 73.0164C163.293 73.0164 163.73 72.9516 164.019 72.8221C164.309 72.6886 164.454 72.5002 164.454 72.2569C164.454 71.9899 164.301 71.7936 163.996 71.668C163.691 71.5385 163.221 71.4737 162.587 71.4737H161.894V70.2313H162.552Z" fill="#82AF40"/>
<path d="M170.077 68.8535C169.697 68.8535 169.4 68.9752 169.185 69.2186C168.969 69.458 168.846 69.7995 168.815 70.2431H171.327C171.319 69.7995 171.204 69.458 170.981 69.2186C170.758 68.9752 170.456 68.8535 170.077 68.8535ZM170.329 74.4001C169.273 74.4001 168.447 74.1077 167.852 73.5228C167.257 72.9379 166.96 72.1096 166.96 71.038C166.96 69.935 167.234 69.0832 167.782 68.4826C168.333 67.8781 169.095 67.5758 170.065 67.5758C170.992 67.5758 171.714 67.8408 172.231 68.3707C172.747 68.9006 173.006 69.6327 173.006 70.567V71.4384H168.774C168.793 71.9487 168.944 72.3471 169.226 72.6337C169.507 72.9202 169.903 73.0635 170.411 73.0635C170.806 73.0635 171.18 73.0223 171.532 72.9399C171.885 72.8574 172.252 72.7259 172.636 72.5454V73.935C172.323 74.092 171.988 74.2078 171.632 74.2824C171.276 74.3609 170.842 74.4001 170.329 74.4001Z" fill="#82AF40"/>
<path d="M175.952 67.6995V70.302C175.952 70.5768 175.907 71.248 175.817 72.3157L178.846 67.6995H181V74.2824H179.269V71.6563C179.269 71.1891 179.308 70.5297 179.386 69.6779L176.369 74.2824H174.221V67.6995H175.952ZM180.472 64.8673C180.397 65.6013 180.122 66.1372 179.644 66.4747C179.167 66.8084 178.478 66.9752 177.578 66.9752C176.651 66.9752 175.964 66.8143 175.518 66.4924C175.076 66.1705 174.827 65.6288 174.773 64.8673H176.375C176.402 65.2716 176.502 65.5562 176.674 65.7211C176.85 65.882 177.163 65.9625 177.613 65.9625C178.009 65.9625 178.302 65.8742 178.494 65.6975C178.689 65.5169 178.809 65.2402 178.852 64.8673H180.472Z" fill="#82AF40"/>
</svg>
