<svg width="186" height="53" viewBox="0 0 186 53" fill="none" xmlns="http://www.w3.org/2000/svg">
<path fill-rule="evenodd" clip-rule="evenodd" d="M118.67 26.5C118.67 41.1355 107.038 53 92.6891 53C84.8752 53 77.867 49.4817 73.1041 43.9135L87.7593 26.2282V41.7658H92.2006L92.1117 14.0427L70.6361 40.5176C68.1465 36.4515 66.7077 31.6471 66.7077 26.5C66.7077 11.8645 78.34 0 92.6891 0C99.3788 0 105.478 2.57877 110.083 6.81485L93.7106 27.4513L104.903 41.3128H110.277L99.0401 27.4513L113.009 9.9848C116.552 14.5143 118.67 20.2549 118.67 26.5Z" fill="#C72B4F"/>
<path d="M11.2364 16.2171H7.50573L0 36.0128H3.95272L9.41547 21.5171L14.745 36.0128H18.7421L11.2364 16.2171Z" fill="#C72B4F"/>
<path d="M150.914 36.6017C149.01 36.6017 147.289 36.1488 145.751 35.2431C144.231 34.3374 143.035 33.0944 142.161 31.5142C141.305 29.9147 140.877 28.1225 140.877 26.1376C140.877 24.1527 141.305 22.3701 142.161 20.7899C143.035 19.1904 144.231 17.9378 145.751 17.0321C147.289 16.1264 149.01 15.6735 150.914 15.6735C152.818 15.6735 154.531 16.1264 156.051 17.0321C157.571 17.9378 158.767 19.1904 159.641 20.7899C160.515 22.3701 160.951 24.1527 160.951 26.1376C160.951 28.1225 160.515 29.9147 159.641 31.5142C158.767 33.0944 157.571 34.3374 156.051 35.2431C154.531 36.1488 152.818 36.6017 150.914 36.6017ZM150.914 32.6126C151.997 32.6126 152.976 32.3428 153.849 31.8033C154.723 31.2444 155.404 30.4736 155.893 29.4907C156.4 28.5079 156.653 27.3902 156.653 26.1376C156.653 24.885 156.4 23.7673 155.893 22.7845C155.404 21.8017 154.723 21.0405 153.849 20.5009C152.976 19.942 151.997 19.6626 150.914 19.6626C149.831 19.6626 148.852 19.942 147.979 20.5009C147.105 21.0405 146.415 21.8017 145.909 22.7845C145.419 23.7673 145.175 24.885 145.175 26.1376C145.175 27.3902 145.419 28.5079 145.909 29.4907C146.415 30.4736 147.105 31.2444 147.979 31.8033C148.852 32.3428 149.831 32.6126 150.914 32.6126Z" fill="#C72B4F"/>
<path d="M163.083 36.0581L166.36 16.1265H170.111L174.57 29.8278L179.194 16.1265H182.768L186 36.0581H182.282L180.321 23.5107L176.178 36.0323H172.935L168.821 23.6013L166.624 36.0581H163.083Z" fill="#C72B4F"/>
<path d="M26.3811 16.0359H37.099V19.8287H30.1697V23.5241H36.9816V27.1493H30.1697V32.3608H37.0261V35.9675H26.3811V16.0359Z" fill="#C72B4F"/>
<path d="M45.8885 16.0359H49.6703V23.6153H56.1884V16.0359H59.957V35.9675H56.1884V27.3311H49.6703V35.9675H45.8885V16.0359Z" fill="#C72B4F"/>
<path d="M125.071 35.9675V16.183H128.793V23.0859L134.024 16.183H138.58L131.687 25.0787L139.099 35.9675H134.699L128.793 27.2424V35.9675H125.071Z" fill="#C72B4F"/>
</svg>
