<svg width="160" height="33" viewBox="0 0 160 33" fill="none" xmlns="http://www.w3.org/2000/svg">
<path d="M58.2873 3.07108C58.2873 3.9574 57.3933 4.68531 56.1077 4.68531C54.812 4.68531 54.0045 3.80489 54.0045 2.97449L54.0055 1.83224C54.0206 0.96792 54.7816 0 56.0957 0C57.5338 0 58.2873 0.925952 58.2873 1.83224V3.07108Z" transform="translate(39.1116)" fill="#134785"/>
<path d="M19.5651 6.33735C16.935 6.29931 14.9212 7.81497 13.6784 8.82321C12.2984 7.35688 10.5334 6.46147 8.71808 6.34969C6.80468 6.23202 5.01012 6.87187 3.86917 7.79193C3.46982 6.87187 2.94288 6.3304 2.04007 6.3304C1.05205 6.3304 0 7.17008 0 8.5373C0 9.90437 0.0119765 26.2787 0.0119765 26.2787C0.0119765 27.2993 0.888526 28.3306 2.14002 28.3306C3.52002 28.3306 4.2828 27.2841 4.2828 26.2721V13.1126C4.2828 11.832 6.48869 10.3158 8.35327 10.3399C9.54488 10.3567 10.9608 11.5216 10.9608 13.3617L10.9714 26.3046C10.9714 27.4475 12.1317 28.324 13.1837 28.324C14.4348 28.324 15.3823 27.385 15.3823 26.3162V13.2372C15.3823 11.6332 17.8355 10.2906 19.5154 10.3769C20.8314 10.4463 21.9963 11.8697 21.9963 13.2372V26.298C21.9963 27.4279 23.0653 28.324 24.2192 28.324C25.2321 28.324 26.4043 27.6579 26.4043 26.2787V13.2742C26.4186 8.50091 21.6692 6.27449 19.5651 6.33735Z" transform="translate(39.1116)" fill="#134785"/>
<path d="M56.1262 6.3256C54.8424 6.3304 54.0143 7.37457 54.0124 8.4348L54.0165 26.2591C54.0078 27.4431 54.9516 28.324 56.1183 28.324C57.4486 28.324 58.2989 27.2918 58.2989 26.1671L58.3081 8.46552C58.3081 7.41741 57.2432 6.3213 56.1262 6.3256Z" transform="translate(39.1116)" fill="#134785"/>
<path d="M39.6424 24.2581C35.7825 24.2581 32.6549 21.1549 32.6549 17.3261C32.6549 13.4971 35.7825 10.3942 39.6424 10.3942C43.5015 10.3942 46.6305 13.4971 46.6305 17.3261C46.6305 21.1549 43.5015 24.2581 39.6424 24.2581ZM48.671 6.3304C47.4651 6.32935 46.612 7.28653 46.612 8.21997V8.94788C44.7097 7.33974 42.2449 6.34165 39.5826 6.33735C33.7263 6.32935 28.5398 11.2251 28.5398 17.3511C28.5398 22.9678 33.4817 28.3306 39.5826 28.3306C42.0505 28.3306 44.7051 27.3895 46.5913 25.7908L46.5968 26.3109C46.5968 27.3079 47.3928 28.3306 48.7 28.3306C50.185 28.3306 50.8497 27.1529 50.8497 26.2239V8.33445C50.8649 7.49367 49.9358 6.332 48.671 6.3304Z" transform="translate(39.1116)" fill="#134785"/>
<path d="M70.8302 24.0723C68.1112 24.0702 65.687 21.9945 65.687 18.9354L65.6902 1.99016C65.687 0.819715 64.7247 8.2265e-06 63.5483 8.2265e-06C62.1812 0.00485423 61.3931 1.00277 61.3931 1.99016V18.9524C61.377 24.2152 65.763 28.3413 70.7542 28.3413C72.2369 28.3413 72.9514 27.1489 72.9514 26.1367C72.9514 25.1724 72.1853 24.0723 70.8302 24.0723Z" transform="translate(39.1116)" fill="#134785"/>
<path fill-rule="evenodd" clip-rule="evenodd" d="M23.3123 16.3428C23.1153 12.5401 20.271 10.2532 16.8366 10.2532H16.7068C12.7433 10.2532 10.5451 13.3469 10.5451 16.8612C10.5451 20.7956 13.2045 23.2815 16.6916 23.2815C20.5793 23.2815 23.1357 20.4549 23.3209 17.1109L23.3123 16.3428ZM16.7264 6.85049C19.3749 6.85049 21.8653 8.01216 23.6932 9.83156V9.83851C23.6932 8.96527 24.2853 8.30662 25.1078 8.30662L25.3156 8.30557C26.6013 8.30557 26.8655 9.51259 26.8655 9.89529L26.8719 23.4747C26.7811 24.364 27.7961 24.823 28.3591 24.2524C30.5562 22.0118 33.184 12.733 26.9932 7.35695C21.2233 2.34468 13.4815 3.17046 9.36426 5.98759C4.98748 8.98347 2.18657 15.6151 4.90743 21.8439C7.87301 28.6375 16.3595 30.6635 21.4031 28.6416C23.9573 27.6192 25.1369 31.0457 22.4843 32.165C18.4763 33.8592 7.32096 33.6883 2.10956 24.7292C-1.41111 18.6794 -1.22397 8.03539 8.11428 2.52041C15.2576 -1.69913 24.676 -0.531563 30.355 5.35541C36.2914 11.5101 35.945 23.0341 30.1546 27.5138C27.5312 29.5492 23.6349 27.5686 23.6595 24.6024L23.6325 23.6327C21.8055 25.4319 19.3749 26.4816 16.7264 26.4816C11.4933 26.4816 6.88914 21.9126 6.88914 16.7189C6.88914 11.4736 11.4933 6.85049 16.7264 6.85049Z" transform="translate(-6.10352e-05 0.000244141)" fill="#F89C0E"/>
<path fill-rule="evenodd" clip-rule="evenodd" d="M119.048 26.6392C119.038 27.4803 118.151 28.3411 116.867 28.3411C115.57 28.3411 114.762 27.4023 114.762 26.5704L114.764 25.1334C114.779 24.2694 115.585 23.3717 116.9 23.3717C118.338 23.3717 119.053 24.3342 119.053 25.2387L119.048 26.6392Z" transform="translate(-6.10352e-05 0.000244141)" fill="#F89C0E"/>
<path fill-rule="evenodd" clip-rule="evenodd" d="M133.083 6.32189C127.101 6.34744 121.999 11.5799 122.028 17.3392V26.3159C122.028 27.4848 122.992 28.3411 124.008 28.3411C125.217 28.3411 126.155 27.4558 126.155 26.3772V17.2636C126.152 14.0006 129.024 10.3993 133.057 10.4186C134.369 10.4236 135.232 9.43585 135.224 8.34166C135.219 7.46824 134.587 6.31654 133.083 6.32189Z" transform="translate(-6.10352e-05 0.000244141)" fill="#F89C0E"/>
<path fill-rule="evenodd" clip-rule="evenodd" d="M157.928 6.32189C156.656 6.32189 155.837 7.3566 155.837 8.31008L155.837 17.344C155.837 20.8299 152.878 24.2351 148.765 24.2351C145.402 24.2351 141.839 21.3389 141.839 17.4079V8.35863C141.839 7.40982 141.122 6.32189 139.697 6.32189C138.692 6.32189 137.664 7.15947 137.664 8.31899V17.3374C137.664 23.1782 142.922 28.3205 148.752 28.3205C155.116 28.3205 160 22.9055 160 17.3645V8.31543C160 7.30055 159.157 6.32189 157.928 6.32189Z" transform="translate(-6.10352e-05 0.000244141)" fill="#F89C0E"/>
</svg>
