<svg width="192" height="53" viewBox="0 0 192 53" fill="none" xmlns="http://www.w3.org/2000/svg">
<path d="M22.6626 21.4851L26.648 17.1529L26.9712 16.8016H18.3541L18.6773 17.1529L22.6626 21.4851Z" transform="translate(45 31.5149)" fill="#164CA4"/>
<path d="M0 12.1461C0 14.9113 2.27939 17.1529 5.09116 17.1529H18.6773L18.3541 16.8016H26.9712L26.648 17.1529H39.9088C42.7206 17.1529 45 14.9113 45 12.1461V0C45 2.3353 43.0043 4.22844 40.5425 4.22844H22.5709L18.5111 8.48514L14.4514 4.22844H4.45755C1.99571 4.22844 0 2.3353 0 0V12.1461Z" transform="translate(45 31.5149)" fill="#164CA4"/>
<path fill-rule="evenodd" clip-rule="evenodd" d="M26.9712 16.8016L26.648 17.1529H18.6773L18.3541 16.8016H26.9712Z" transform="translate(45 31.5149)" fill="#164CA4"/>
<path d="M18.3541 25.4851L22.6627 20.8378H14.0456L18.3541 25.4851Z" transform="translate(45 12.5149)" fill="#0075B8"/>
<path fill-rule="evenodd" clip-rule="evenodd" d="M45 0C45 2.3353 43.0043 4.22844 40.5425 4.22844H34.5709L30.5111 8.48514L26.4514 4.22844H4.45755C1.99571 4.22844 0 2.3353 0 0V16.6829C0 19.4268 2.27939 21.6511 5.09116 21.6511H39.9088C42.7206 21.6511 45 19.4268 45 16.6829V0ZM10.8012 10.4413H6.16072V17.4686H3.20236V8.15399H10.8012V10.4413ZM18.0384 9.26589C17.1657 10.1131 16.7294 11.297 16.7294 12.8176C16.7294 13.9062 16.9497 14.8127 17.3904 15.537C17.8311 16.2614 18.4049 16.7908 19.1118 17.1255C19.823 17.4601 20.7197 17.6274 21.8018 17.6274C22.8665 17.6274 23.7544 17.4347 24.4656 17.0492C25.1812 16.6595 25.7267 16.1173 26.1019 15.4227C26.4815 14.7238 26.6713 13.83 26.6713 12.7414C26.6713 11.2419 26.2393 10.0771 25.3754 9.24683C24.5115 8.41237 23.281 7.99514 21.684 7.99514C20.1263 7.99514 18.9111 8.41873 18.0384 9.26589ZM19.6943 12.8303C19.6943 13.7707 19.8732 14.4463 20.231 14.8572C20.5932 15.2681 21.084 15.4735 21.7036 15.4735C22.3407 15.4735 22.8337 15.2723 23.1828 14.8699C23.5319 14.4675 23.7064 13.7453 23.7064 12.7033C23.7064 11.8264 23.5232 11.1868 23.1566 10.7844C22.7945 10.3778 22.3014 10.1745 21.6775 10.1745C21.0797 10.1745 20.5997 10.3799 20.2375 10.7908C19.8754 11.2017 19.6943 11.8815 19.6943 12.8303ZM33.2148 8.15399H38.1432C39.2166 8.15399 40.0195 8.40178 40.5518 8.89738C41.0885 9.39297 41.3568 10.0982 41.3568 11.0132C41.3568 11.9535 41.0645 12.6884 40.4798 13.2179C39.8995 13.7474 39.0115 14.0121 37.816 14.0121H36.1928V17.4686H33.2148V8.15399ZM36.9193 12.1251H36.1928V10.0474H37.0371C37.5913 10.0474 37.9687 10.1491 38.1694 10.3524C38.3701 10.5557 38.4705 10.8035 38.4705 11.0958C38.4705 11.3965 38.3548 11.6443 38.1236 11.8392C37.8923 12.0298 37.4909 12.1251 36.9193 12.1251Z" transform="translate(45 12.5149)" fill="#0075B8"/>
<path d="M0 1.68215C0 0.753122 0.759796 0 1.69705 0H43.3029C44.2402 0 45 0.753122 45 1.68215V10.0592C45 12.8462 42.7206 15.1056 39.9088 15.1056C26.3117 15.1056 18.6883 15.1056 5.09116 15.1056C2.27939 15.1056 0 12.8462 0 10.0592V1.68215Z" transform="translate(45)" fill="#0092CB"/>
<path d="M30.3222 19L34.6307 14.2795H26.0137L30.3222 19Z" transform="translate(45)" fill="#0092CB"/>
<path d="M0 0.15986H3.831L5.30941 5.86368L6.78139 0.15986H10.5995V9.53408H8.22123V2.38512L6.37644 9.53408H4.2231L2.38474 2.38512V9.53408H0V0.15986Z" transform="translate(0 21.2325)" fill="#111111"/>
<path d="M16.968 4.85336C16.968 3.32297 17.3965 2.13147 18.2536 1.27888C19.1106 0.426295 20.3041 0 21.8339 0C23.4023 0 24.6107 0.4199 25.4592 1.2597C26.3077 2.09524 26.7319 3.26755 26.7319 4.77663C26.7319 5.87221 26.5455 6.77169 26.1727 7.47508C25.8042 8.1742 25.2685 8.71986 24.5657 9.11205C23.8672 9.49997 22.9952 9.69394 21.9496 9.69394C20.8869 9.69394 20.0062 9.52555 19.3077 9.18878C18.6135 8.85201 18.05 8.31914 17.6172 7.59017C17.1844 6.86121 16.968 5.94894 16.968 4.85336ZM19.8798 4.86615C19.8798 5.81253 20.0555 6.49247 20.4069 6.90597C20.7626 7.31948 21.2447 7.52623 21.8532 7.52623C22.4788 7.52623 22.9631 7.32374 23.3059 6.91876C23.6487 6.51378 23.8201 5.78695 23.8201 4.73826C23.8201 3.85583 23.6401 3.21213 23.2802 2.80715C22.9245 2.39791 22.4403 2.19329 21.8275 2.19329C21.2404 2.19329 20.769 2.40004 20.4133 2.81354C20.0577 3.22705 19.8798 3.91125 19.8798 4.86615Z" transform="translate(0 21.2325)" fill="#111111"/>
<path d="M39.4447 5.70382L41.9965 6.47115C41.8251 7.18306 41.5552 7.77774 41.1866 8.25519C40.8181 8.73264 40.3596 9.09286 39.8111 9.33585C39.2668 9.57884 38.5726 9.70033 37.7284 9.70033C36.7043 9.70033 35.8665 9.55326 35.2152 9.25912C34.5681 8.96071 34.0089 8.4385 33.5375 7.69249C33.0661 6.94647 32.8304 5.99157 32.8304 4.82779C32.8304 3.27607 33.2439 2.08458 34.071 1.25331C34.9023 0.417769 36.0765 0 37.5935 0C38.7805 0 39.7125 0.238725 40.3896 0.716175C41.0709 1.19362 41.5766 1.92685 41.9066 2.91585L39.3354 3.48496C39.2454 3.19934 39.1511 2.99046 39.0526 2.8583C38.8897 2.63663 38.6905 2.46611 38.4548 2.34675C38.2191 2.22739 37.9556 2.16771 37.6642 2.16771C37.0042 2.16771 36.4986 2.43201 36.1472 2.96062C35.8815 3.35281 35.7487 3.9688 35.7487 4.8086C35.7487 5.84876 35.9072 6.5628 36.2243 6.95073C36.5414 7.3344 36.9871 7.52623 37.5613 7.52623C38.1184 7.52623 38.5384 7.37063 38.8212 7.05944C39.1083 6.74824 39.3161 6.29637 39.4447 5.70382Z" transform="translate(0 21.2325)" fill="#111111"/>
<path d="M91.4977 0.15986H100.349V2.47464H97.3792V9.53408H94.4674V2.47464H91.4977V0.15986Z" transform="translate(0 21.2325)" fill="#111111"/>
<path d="M106.537 0.15986H114.341V2.16131H109.456V3.65121H113.987V5.56314H109.456V7.41113H114.482V9.53408H106.537V0.15986Z" transform="translate(0 21.2325)" fill="#111111"/>
<path d="M129.586 9.53408H126.674V2.46185H124.399V5.34573C124.399 6.53083 124.335 7.40261 124.206 7.96105C124.082 8.51523 123.786 8.92235 123.319 9.18238C122.856 9.44242 122.106 9.57244 121.069 9.57244C120.752 9.57244 120.388 9.53834 119.977 9.47013V7.57099H120.414C120.808 7.57099 121.086 7.48573 121.249 7.31521C121.412 7.14043 121.493 6.82284 121.493 6.36245V0.15986H129.586V9.53408Z" transform="translate(0 21.2325)" fill="#111111"/>
<path d="M136.385 0.15986H144.189V2.16131H139.304V3.65121H143.835V5.56314H139.304V7.41113H144.33V9.53408H136.385V0.15986Z" transform="translate(0 21.2325)" fill="#111111"/>
<path d="M159.344 9.53408H156.066L154.935 7.11059C154.665 6.53936 154.455 6.1834 154.305 6.04273C154.155 5.89779 153.947 5.82531 153.681 5.82531V9.53408H150.776V0.15986H153.681V3.75992C153.934 3.74713 154.131 3.65761 154.272 3.49135C154.414 3.3251 154.635 2.84765 154.935 2.059C155.153 1.47498 155.374 1.05721 155.597 0.805697C155.819 0.54992 156.182 0.366613 156.683 0.255777C157.184 0.14494 157.971 0.0895219 159.042 0.0895219V2.07179H158.894C158.397 2.07179 158.028 2.16558 157.789 2.35315C157.549 2.54072 157.351 2.84552 157.197 3.26755C157.043 3.68532 156.876 3.99864 156.696 4.20753C156.52 4.41215 156.278 4.57627 155.969 4.6999C156.389 4.83631 156.756 5.07291 157.069 5.40968C157.381 5.74219 157.714 6.26227 158.065 6.96992L159.344 9.53408Z" transform="translate(0 21.2325)" fill="#111111"/>
<path d="M164.896 4.85336C164.896 3.32297 165.325 2.13147 166.182 1.27888C167.039 0.426295 168.232 0 169.762 0C171.33 0 172.539 0.4199 173.387 1.2597C174.236 2.09524 174.66 3.26755 174.66 4.77663C174.66 5.87221 174.474 6.77169 174.101 7.47508C173.732 8.1742 173.197 8.71986 172.494 9.11205C171.795 9.49997 170.923 9.69394 169.878 9.69394C168.815 9.69394 167.934 9.52555 167.236 9.18878C166.542 8.85201 165.978 8.31914 165.545 7.59017C165.113 6.86121 164.896 5.94894 164.896 4.85336ZM167.808 4.86615C167.808 5.81253 167.984 6.49247 168.335 6.90597C168.691 7.31948 169.173 7.52623 169.781 7.52623C170.407 7.52623 170.891 7.32374 171.234 6.91876C171.577 6.51378 171.748 5.78695 171.748 4.73826C171.748 3.85583 171.568 3.21213 171.208 2.80715C170.853 2.39791 170.368 2.19329 169.756 2.19329C169.169 2.19329 168.697 2.40004 168.342 2.81354C167.986 3.22705 167.808 3.91125 167.808 4.86615Z" transform="translate(0 21.2325)" fill="#111111"/>
<path d="M181.067 0.15986H184.898L186.377 5.86368L187.849 0.15986H191.667V9.53408H189.288V2.38512L187.444 9.53408H185.29L183.452 2.38512V9.53408H181.067V0.15986Z" transform="translate(0 21.2325)" fill="#111111"/>
</svg>
