<svg width="219" height="53" viewBox="0 0 219 53" fill="none" xmlns="http://www.w3.org/2000/svg">
<path d="M56.6 41.2438H50.1L48.6 50.4438H55.1L55.4 48.7438H51L51.3 46.5438H54.8L55.1 44.9438H51.6L51.9 42.9438H56.2L56.6 41.2438ZM63 46.0438C63 45.7438 63 45.5438 62.9 45.3438C62.8 45.1438 62.8 44.9438 62.7 44.7438C62.6 44.5438 62.5 44.4438 62.4 44.3438C62.3 44.2438 62.2 44.1438 62.1 44.0438C61.8 43.8438 61.6 43.6438 61.2 43.5438C60.9 43.4438 60.5 43.4438 60.2 43.4438C59.8 43.4438 59.5 43.4438 59.2 43.5438C58.9 43.6438 58.6 43.7438 58.4 43.8438C58.2 43.9438 58 44.1438 57.8 44.3438C57.6 44.5438 57.5 44.6438 57.3 44.8438C57.3 44.9438 57.2 45.0438 57.1 45.1438C57 45.2438 56.9 45.4438 56.8 45.6438C56.7 45.8438 56.6 46.1438 56.6 46.4438C56.5 46.7438 56.5 47.0438 56.5 47.4438C56.5 47.8438 56.5 48.1438 56.6 48.4438C56.7 48.7438 56.8 49.0438 56.9 49.2438C57 49.4438 57.2 49.6438 57.4 49.8438C57.6 50.0438 57.8 50.1438 58 50.2438C58.2 50.3438 58.4 50.4438 58.7 50.4438C58.9 50.4438 59.2 50.5438 59.4 50.5438C59.9 50.5438 60.3 50.4438 60.6 50.3438C61 50.2438 61.3 49.9438 61.6 49.7438C61.7 49.6438 61.9 49.4438 62 49.2438C62.1 49.0438 62.2 48.9438 62.3 48.7438C62.4 48.5438 62.4 48.4438 62.5 48.3438L61 47.8438C61 47.9438 60.9 48.0438 60.9 48.2438C60.8 48.3438 60.8 48.5438 60.7 48.6438C60.6 48.7438 60.5 48.9438 60.3 49.0438C60.1 49.1438 60 49.1438 59.7 49.2438C59.6 49.2438 59.5 49.2438 59.4 49.2438C59.3 49.2438 59.2 49.1438 59.1 49.1438C59 49.0438 58.9 48.9438 58.8 48.8438C58.7 48.6438 58.6 48.5438 58.6 48.3438C58.6 48.1438 58.6 48.0438 58.6 47.9438C58.6 47.8438 58.6 47.6438 58.6 47.4438C58.6 47.2438 58.6 47.0438 58.7 46.8438C58.7 46.6438 58.8 46.4438 58.8 46.2438C58.9 46.0438 58.9 45.8438 59 45.7438C59.1 45.5438 59.1 45.4438 59.2 45.3438C59.3 45.2438 59.4 45.1438 59.5 45.0438C59.6 44.9438 59.7 44.9438 59.8 44.8438C59.9 44.8438 60 44.8438 60.1 44.8438C60.3 44.8438 60.5 44.8438 60.6 44.9438C60.7 45.0438 60.9 45.2438 61 45.4438C61 45.5438 61.1 45.6438 61.1 45.7438C61.1 45.8438 61.1 45.9438 61.1 46.0438C61.1 46.1438 61.1 46.2438 61.1 46.3438L63 46.0438ZM70.4 43.6438H65.4L65.2 44.9438C65.2 45.0438 65.2 45.1438 65.1 45.2438C65.1 45.3438 65 45.5438 65 45.8438C64.9 46.1438 64.9 46.4438 64.8 46.9438C64.8 47.1438 64.7 47.2438 64.7 47.4438C64.7 47.6438 64.6 47.7438 64.6 47.8438C64.5 47.9438 64.5 48.1438 64.4 48.2438C64.3 48.3438 64.3 48.4438 64.2 48.5438C64.1 48.6438 64 48.7438 63.8 48.8438C63.6 48.9438 63.4 48.9438 63.2 48.9438L63 50.4438C63.1 50.4438 63.2 50.4438 63.3 50.4438C63.4 50.4438 63.5 50.4438 63.6 50.4438C63.9 50.4438 64.1 50.4438 64.3 50.3438C64.5 50.2438 64.7 50.2438 64.8 50.1438C64.9 50.0438 65.1 49.9438 65.2 49.9438C65.4 49.7438 65.6 49.5438 65.7 49.3438C65.9 49.1438 66 48.8438 66.1 48.5438C66.2 48.2438 66.3 47.8438 66.4 47.4438C66.5 47.0438 66.6 46.5438 66.7 46.0438L66.9 45.0438H68.3L67.4 50.4438H69.4L70.4 43.6438ZM72 43.6438L70.9 50.4438H72.9L73 49.8438L75.3 47.1438C75.3 47.0438 75.4 47.0438 75.4 46.9438C75.5 46.8438 75.5 46.8438 75.6 46.7438C75.7 46.6438 75.7 46.6438 75.7 46.5438C75.7 46.6438 75.6 46.7438 75.6 46.8438C75.6 46.9438 75.6 46.9438 75.6 47.0438V47.1438V47.2438L75 50.4438H77L78.1 43.6438H76.1L76 44.1438L73.7 46.9438C73.7 47.0438 73.6 47.0438 73.6 47.1438C73.5 47.2438 73.5 47.2438 73.4 47.3438C73.3 47.4438 73.3 47.4438 73.3 47.5438C73.3 47.4438 73.3 47.4438 73.3 47.3438C73.3 47.2438 73.3 47.2438 73.3 47.1438C73.3 47.0438 73.3 46.9438 73.4 46.8438L73.9 43.6438H72ZM89 41.1438C88.8 41.2438 88.6 41.2438 88.4 41.2438C88.2 41.2438 88 41.3438 87.8 41.3438C87.6 41.3438 87.3 41.4438 87.1 41.4438C86.7 41.4438 86.3 41.5438 86 41.5438C85.7 41.6438 85.3 41.6438 85 41.7438C84.7 41.8438 84.4 41.9438 84.1 42.0438C83.7 42.2438 83.4 42.4438 83.2 42.7438C82.9 43.0438 82.7 43.3438 82.5 43.7438C82.3 44.1438 82.2 44.4438 82 44.8438C81.9 45.0438 81.9 45.3438 81.8 45.6438C81.7 45.9438 81.7 46.2438 81.7 46.4438C81.7 46.7438 81.7 47.0438 81.7 47.2438C81.7 47.4438 81.7 47.7438 81.8 47.9438C81.8 48.2438 81.9 48.4438 82 48.7438C82.1 49.0438 82.3 49.2438 82.5 49.5438C82.8 49.8438 83.1 50.0438 83.5 50.2438C83.9 50.4438 84.3 50.4438 84.8 50.4438C85.2 50.4438 85.6 50.3438 85.9 50.2438C86.2 50.1438 86.5 50.0438 86.8 49.8438C87.1 49.6438 87.3 49.4438 87.4 49.2438C87.6 49.0438 87.7 48.7438 87.9 48.5438C88 48.2438 88.2 47.9438 88.2 47.6438C88.3 47.3438 88.3 46.9438 88.3 46.5438C88.3 46.1438 88.3 45.8438 88.2 45.6438C88.1 45.3438 88 45.1438 87.9 44.9438C87.8 44.7438 87.7 44.6438 87.5 44.5438C87.3 44.4438 87.2 44.2438 87 44.1438C86.8 44.0438 86.6 43.9438 86.3 43.9438C86.1 43.9438 85.8 43.8438 85.6 43.8438C85.3 43.8438 85 43.8438 84.7 43.9438C84.4 44.0438 84.1 44.1438 83.9 44.3438C83.7 44.5438 83.4 44.7438 83.3 45.0438H83.2C83.3 44.7438 83.4 44.5438 83.5 44.3438C83.6 44.1438 83.8 43.9438 83.9 43.8438C84 43.7438 84.2 43.6438 84.4 43.5438C84.6 43.4438 84.7 43.4438 84.8 43.3438C84.9 43.3438 85 43.2438 85.1 43.2438C85.4 43.1438 85.6 43.1438 85.9 43.0438C86.2 43.0438 86.5 42.9438 86.8 42.9438C87.1 42.9438 87.5 42.8438 87.9 42.7438C88 42.7438 88.1 42.6438 88.2 42.6438C88.3 42.6438 88.4 42.5438 88.5 42.5438C88.6 42.5438 88.7 42.4438 88.8 42.4438L89 41.1438ZM85.2 45.2438C85.4 45.2438 85.5 45.2438 85.7 45.3438C85.8 45.4438 85.9 45.4438 86 45.6438C86.1 45.7438 86.2 45.9438 86.2 46.1438C86.2 46.3438 86.3 46.4438 86.2 46.6438C86.2 46.8438 86.2 47.0438 86.1 47.2438C86.1 47.4438 86 47.6438 85.9 47.8438C85.8 48.0438 85.8 48.2438 85.7 48.3438C85.6 48.5438 85.5 48.6438 85.4 48.8438C85.3 48.9438 85.2 49.0438 85 49.1438C84.8 49.2438 84.6 49.2438 84.4 49.2438C84.3 49.2438 84.1 49.2438 84 49.1438C83.9 49.0438 83.8 48.9438 83.7 48.8438C83.6 48.7438 83.6 48.6438 83.6 48.5438C83.6 48.4438 83.6 48.3438 83.5 48.2438C83.5 48.1438 83.5 48.0438 83.5 47.9438C83.5 47.7438 83.5 47.5438 83.6 47.2438C83.6 47.0438 83.7 46.7438 83.8 46.5438C83.9 46.3438 84 46.0438 84.1 45.8438C84.2 45.6438 84.4 45.4438 84.6 45.3438C84.8 45.3438 85 45.2438 85.2 45.2438ZM97 43.6438L95.9 50.4438H97.9L99 43.6438H97ZM90.3 43.6438L89.2 50.4438H92.8C93 50.4438 93.2 50.4438 93.4 50.4438C93.6 50.4438 93.8 50.3438 94 50.3438C94.2 50.2438 94.4 50.1438 94.6 50.0438C94.8 49.9438 94.9 49.7438 95.1 49.5438C95.2 49.3438 95.4 49.0438 95.4 48.8438C95.5 48.5438 95.5 48.2438 95.5 47.9438C95.5 47.6438 95.4 47.3438 95.3 47.1438C95.2 46.9438 95 46.7438 94.8 46.5438C94.6 46.4438 94.5 46.3438 94.3 46.2438C94.1 46.1438 93.9 46.1438 93.7 46.1438C93.5 46.1438 93.3 46.1438 93.1 46.1438H91.7L92.1 43.6438H90.3ZM91.7 47.2438H92.6C92.7 47.2438 92.7 47.2438 92.8 47.2438C92.9 47.2438 93 47.2438 93 47.2438C93.1 47.2438 93.1 47.3438 93.2 47.3438C93.3 47.4438 93.3 47.4438 93.4 47.5438C93.4 47.6438 93.5 47.7438 93.5 47.7438C93.5 47.8438 93.5 47.8438 93.5 47.9438C93.5 48.1438 93.5 48.2438 93.4 48.4438C93.3 48.5438 93.3 48.7438 93.1 48.8438C93 48.9438 92.9 48.9438 92.8 49.0438C92.7 49.0438 92.6 49.1438 92.5 49.1438C92.4 49.1438 92.3 49.1438 92.2 49.1438H91.3L91.7 47.2438ZM99.9 43.6438L99.7 45.0438H101.7L100.8 50.4438H102.8L103.7 45.0438H105.7L105.9 43.6438H99.9ZM106.8 43.6438L105.7 50.4438H109.3C109.5 50.4438 109.7 50.4438 109.9 50.4438C110.1 50.4438 110.3 50.3438 110.5 50.3438C110.7 50.2438 110.9 50.1438 111.1 50.0438C111.3 49.9438 111.4 49.7438 111.6 49.5438C111.7 49.3438 111.9 49.1438 112 48.8438C112.1 48.5438 112.1 48.3438 112.1 48.0438C112.1 47.7438 112.1 47.5438 112 47.3438C111.9 47.1438 111.9 47.0438 111.8 46.8438C111.7 46.7438 111.6 46.6438 111.5 46.5438C111.3 46.4438 111.2 46.3438 111 46.2438C110.8 46.1438 110.6 46.1438 110.4 46.1438C110.2 46.1438 110 46.1438 109.9 46.1438H108.5L108.9 43.6438H106.8ZM108.1 47.2438H109C109.1 47.2438 109.1 47.2438 109.2 47.2438C109.3 47.2438 109.4 47.2438 109.4 47.2438C109.5 47.2438 109.6 47.3438 109.6 47.3438C109.7 47.4438 109.7 47.4438 109.8 47.5438C109.9 47.6438 109.9 47.7438 109.9 47.9438C109.9 48.1438 109.9 48.3438 109.8 48.4438C109.7 48.5438 109.6 48.6438 109.5 48.7438C109.4 48.8438 109.3 48.8438 109.2 48.9438C109.1 48.9438 109 49.0438 108.9 49.0438C108.8 49.0438 108.7 49.0438 108.6 49.0438H107.7L108.1 47.2438ZM115.1 48.3438H113L112.7 50.4438H113.6L112.3 52.5438H113.2L114.9 50.2438L115.1 48.3438ZM119.2 43.6438L119 45.0438H121L120.1 50.4438H122.1L123 45.0438H125L125.2 43.6438H119.2ZM128.8 43.4438C128.5 43.4438 128.2 43.4438 127.9 43.5438C127.6 43.6438 127.3 43.7438 127.1 43.8438C126.8 44.0438 126.6 44.2438 126.3 44.4438C126.1 44.6438 125.9 44.9438 125.7 45.2438C125.5 45.5438 125.4 45.8438 125.3 46.2438C125.2 46.6438 125.2 46.9438 125.2 47.3438C125.2 47.5438 125.2 47.7438 125.2 48.0438C125.2 48.2438 125.3 48.5438 125.4 48.7438C125.5 49.0438 125.7 49.2438 125.9 49.5438C126 49.7438 126.2 49.8438 126.4 49.9438C126.6 50.0438 126.9 50.2438 127.2 50.3438C127.5 50.4438 127.8 50.4438 128.2 50.5438C128.6 50.5438 129 50.4438 129.3 50.3438C129.6 50.2438 129.9 50.0438 130.2 49.8438C130.5 49.6438 130.7 49.4438 130.9 49.2438C131.1 49.0438 131.3 48.7438 131.4 48.4438C131.5 48.1438 131.6 47.8438 131.7 47.5438C131.8 47.2438 131.8 46.8438 131.8 46.5438C131.8 46.3438 131.8 46.0438 131.7 45.7438C131.7 45.4438 131.6 45.2438 131.4 44.9438C131.3 44.6438 131.1 44.4438 130.8 44.2438C130.6 44.0438 130.4 43.8438 130.1 43.7438C129.9 43.6438 129.6 43.5438 129.4 43.5438C129.4 43.5438 129.1 43.4438 128.8 43.4438ZM128.9 44.8438C129.1 44.8438 129.2 44.8438 129.3 44.9438C129.4 45.0438 129.5 45.1438 129.6 45.2438C129.7 45.3438 129.7 45.4438 129.8 45.5438C129.8 45.6438 129.9 45.7438 129.9 45.9438C129.9 46.0438 129.9 46.1438 129.9 46.3438C129.9 46.5438 129.9 46.7438 129.9 46.9438C129.9 47.1438 129.8 47.3438 129.8 47.6438C129.8 47.8438 129.7 48.0438 129.6 48.2438C129.5 48.4438 129.5 48.6438 129.4 48.7438C129.3 48.9438 129.1 49.1438 129 49.2438C128.8 49.3438 128.6 49.4438 128.4 49.4438C128.2 49.4438 128 49.4438 127.9 49.3438C127.8 49.2438 127.7 49.1438 127.6 49.0438C127.5 48.9438 127.5 48.8438 127.4 48.6438C127.4 48.5438 127.3 48.3438 127.3 48.2438C127.3 48.1438 127.3 48.0438 127.3 47.9438C127.3 47.8438 127.3 47.6438 127.3 47.4438C127.3 47.2438 127.4 47.0438 127.4 46.8438C127.4 46.6438 127.5 46.4438 127.6 46.2438C127.7 46.0438 127.7 45.8438 127.8 45.7438C127.9 45.5438 128 45.4438 128.2 45.3438C128.3 45.2438 128.5 45.1438 128.6 45.1438C128.6 44.8438 128.8 44.8438 128.9 44.8438ZM142.7 41.1438C142.5 41.2438 142.3 41.2438 142.1 41.2438C141.9 41.2438 141.7 41.3438 141.5 41.3438C141.3 41.3438 141 41.4438 140.8 41.4438C140.4 41.4438 140 41.5438 139.7 41.5438C139.4 41.6438 139 41.6438 138.7 41.7438C138.4 41.8438 138.1 41.9438 137.8 42.0438C137.4 42.2438 137.1 42.4438 136.9 42.7438C136.6 43.0438 136.4 43.3438 136.2 43.7438C136 44.1438 135.9 44.4438 135.7 44.8438C135.6 45.0438 135.6 45.3438 135.5 45.6438C135.4 45.9438 135.4 46.2438 135.4 46.4438C135.4 46.7438 135.4 47.0438 135.4 47.2438C135.4 47.4438 135.4 47.7438 135.5 47.9438C135.5 48.2438 135.6 48.4438 135.7 48.7438C135.8 49.0438 136 49.2438 136.2 49.5438C136.5 49.8438 136.8 50.0438 137.2 50.2438C137.6 50.4438 138 50.4438 138.5 50.4438C138.9 50.4438 139.3 50.3438 139.6 50.2438C139.9 50.1438 140.2 50.0438 140.5 49.8438C140.8 49.6438 141 49.4438 141.1 49.2438C141.3 49.0438 141.4 48.7438 141.6 48.5438C141.7 48.2438 141.9 47.9438 141.9 47.6438C142 47.3438 142 46.9438 142 46.5438C142 46.1438 142 45.8438 141.9 45.6438C141.8 45.3438 141.7 45.1438 141.6 44.9438C141.5 44.7438 141.4 44.6438 141.2 44.5438C141 44.4438 140.9 44.2438 140.7 44.1438C140.5 44.0438 140.3 43.9438 140 43.9438C139.8 43.9438 139.5 43.8438 139.3 43.8438C139 43.8438 138.7 43.8438 138.4 43.9438C138.1 44.0438 137.8 44.1438 137.6 44.3438C137.4 44.5438 137.1 44.7438 137 45.0438H136.9C137 44.7438 137.1 44.5438 137.2 44.3438C137.3 44.1438 137.5 43.9438 137.6 43.8438C137.8 43.7438 137.9 43.6438 138.1 43.5438C138.3 43.4438 138.4 43.4438 138.5 43.3438C138.6 43.3438 138.7 43.2438 138.8 43.2438C139.1 43.1438 139.3 43.1438 139.6 43.0438C139.9 43.0438 140.2 42.9438 140.5 42.9438C140.8 42.9438 141.2 42.8438 141.6 42.7438C141.7 42.7438 141.8 42.6438 141.9 42.6438C142 42.6438 142.1 42.5438 142.2 42.5438C142.3 42.5438 142.4 42.4438 142.5 42.4438L142.7 41.1438ZM138.9 45.2438C139.1 45.2438 139.2 45.2438 139.4 45.3438C139.5 45.4438 139.6 45.4438 139.7 45.6438C139.8 45.7438 139.9 45.9438 139.9 46.1438C139.9 46.3438 140 46.4438 139.9 46.6438C139.9 46.8438 139.9 47.0438 139.8 47.2438C139.8 47.4438 139.7 47.6438 139.6 47.8438C139.5 48.0438 139.5 48.2438 139.4 48.3438C139.3 48.5438 139.2 48.6438 139.1 48.8438C139 48.9438 138.9 49.0438 138.7 49.1438C138.5 49.2438 138.3 49.2438 138.1 49.2438C138 49.2438 137.8 49.2438 137.7 49.1438C137.6 49.0438 137.5 48.9438 137.4 48.8438C137.3 48.7438 137.3 48.6438 137.3 48.5438C137.3 48.4438 137.3 48.3438 137.2 48.2438C137.2 48.1438 137.2 48.0438 137.2 47.9438C137.2 47.7438 137.2 47.5438 137.3 47.2438C137.3 47.0438 137.4 46.7438 137.5 46.5438C137.6 46.3438 137.7 46.0438 137.8 45.8438C137.9 45.6438 138.1 45.4438 138.3 45.3438C138.5 45.3438 138.7 45.2438 138.9 45.2438ZM150.6 43.6438L149.5 50.4438H151.5L152.6 43.6438H150.6ZM143.9 43.6438L142.8 50.4438H146.4C146.6 50.4438 146.8 50.4438 147 50.4438C147.2 50.4438 147.4 50.3438 147.6 50.3438C147.8 50.2438 148 50.1438 148.2 50.0438C148.4 49.9438 148.5 49.7438 148.7 49.5438C148.8 49.3438 149 49.0438 149 48.8438C149.1 48.5438 149.1 48.2438 149.1 47.9438C149.1 47.6438 149 47.3438 148.9 47.1438C148.8 46.9438 148.6 46.7438 148.4 46.5438C148.2 46.4438 148.1 46.3438 147.9 46.2438C147.7 46.1438 147.5 46.1438 147.3 46.1438C147.1 46.1438 146.9 46.1438 146.7 46.1438H145.3L145.7 43.6438H143.9ZM145.3 47.2438H146.2C146.3 47.2438 146.3 47.2438 146.4 47.2438C146.5 47.2438 146.6 47.2438 146.6 47.2438C146.7 47.2438 146.7 47.3438 146.8 47.3438C146.9 47.4438 146.9 47.4438 147 47.5438C147 47.6438 147.1 47.7438 147.1 47.7438C147.1 47.8438 147.1 47.8438 147.1 47.9438C147.1 48.1438 147.1 48.2438 147 48.4438C146.9 48.5438 146.9 48.7438 146.7 48.8438C146.6 48.9438 146.5 48.9438 146.4 49.0438C146.3 49.0438 146.2 49.1438 146.1 49.1438C146 49.1438 145.9 49.1438 145.8 49.1438H145L145.3 47.2438ZM153.5 43.6438L153.3 45.0438H155.3L154.4 50.4438H156.4L157.3 45.0438H159.3L159.5 43.6438H153.5ZM160.4 43.6438L159.3 50.4438H162.9C163.1 50.4438 163.3 50.4438 163.5 50.4438C163.7 50.4438 163.9 50.3438 164.1 50.3438C164.3 50.2438 164.5 50.1438 164.7 50.0438C164.9 49.9438 165 49.7438 165.2 49.5438C165.3 49.3438 165.5 49.1438 165.6 48.8438C165.7 48.5438 165.7 48.3438 165.7 48.0438C165.7 47.7438 165.7 47.5438 165.6 47.3438C165.5 47.1438 165.5 47.0438 165.4 46.8438C165.3 46.7438 165.2 46.6438 165.1 46.5438C164.9 46.4438 164.8 46.3438 164.6 46.2438C164.4 46.1438 164.2 46.1438 164 46.1438C163.8 46.1438 163.6 46.1438 163.5 46.1438H162L162.4 43.6438H160.4ZM161.8 47.2438H162.7C162.8 47.2438 162.8 47.2438 162.9 47.2438C163 47.2438 163.1 47.2438 163.1 47.2438C163.2 47.2438 163.3 47.3438 163.3 47.3438C163.4 47.4438 163.4 47.4438 163.5 47.5438C163.6 47.6438 163.6 47.7438 163.6 47.9438C163.6 48.1438 163.6 48.3438 163.5 48.4438C163.4 48.5438 163.3 48.6438 163.2 48.7438C163.1 48.8438 163 48.8438 162.9 48.9438C162.8 48.9438 162.7 49.0438 162.6 49.0438C162.5 49.0438 162.4 49.0438 162.3 49.0438H161.4L161.8 47.2438ZM169.9 43.6438L168.8 50.4438H170.8L171.7 45.0438H173.8L172.9 50.4438H174.9L176 43.6438H169.9ZM183.5 47.3438C183.5 47.1438 183.5 46.8438 183.5 46.6438C183.5 46.3438 183.5 46.1438 183.4 45.8438C183.4 45.5438 183.3 45.2438 183.1 44.9438C183 44.6438 182.8 44.4438 182.5 44.1438C182.4 44.0438 182.2 43.9438 182 43.7438C181.8 43.6438 181.6 43.5438 181.3 43.4438C181 43.3438 180.7 43.3438 180.4 43.3438C180.2 43.3438 180 43.3438 179.8 43.3438C179.6 43.3438 179.4 43.4438 179.2 43.4438C179 43.5438 178.8 43.6438 178.5 43.7438C178.3 43.8438 178 44.0438 177.8 44.2438C177.6 44.4438 177.4 44.7438 177.2 45.0438C177 45.3438 176.9 45.6438 176.8 46.0438C176.7 46.4438 176.6 46.7438 176.6 47.1438C176.6 47.4438 176.6 47.6438 176.7 47.9438C176.8 48.2438 176.8 48.4438 177 48.6438C177.1 48.8438 177.3 49.0438 177.4 49.2438C177.6 49.5438 177.9 49.7438 178.2 49.8438C178.5 49.9438 178.8 50.0438 179 50.1438C179.3 50.1438 179.5 50.2438 179.8 50.2438C180.3 50.2438 180.7 50.1438 181 50.0438C181.4 49.9438 181.7 49.7438 182 49.5438C182.1 49.4438 182.3 49.3438 182.4 49.2438C182.5 49.1438 182.7 48.9438 182.8 48.7438C182.9 48.5438 183.1 48.3438 183.2 48.1438L181.5 47.7438C181.5 47.8438 181.4 47.8438 181.4 47.9438C181.4 48.0438 181.3 48.1438 181.3 48.1438C181.2 48.2438 181.2 48.2438 181.1 48.3438C181 48.4438 180.8 48.5438 180.6 48.6438C180.4 48.7438 180.2 48.7438 180 48.7438C179.9 48.7438 179.7 48.7438 179.6 48.7438C179.5 48.7438 179.4 48.6438 179.2 48.5438C179.1 48.4438 179 48.3438 178.9 48.2438C178.8 48.0438 178.7 47.9438 178.7 47.7438C178.7 47.5438 178.7 47.4438 178.7 47.2438C178.7 47.1438 178.7 47.1438 178.7 47.0438C178.7 46.9438 178.7 46.9438 178.7 46.8438H183.5V47.3438ZM178.9 46.2438C178.9 46.0438 179 45.8438 179.1 45.7438C179.2 45.5438 179.3 45.4438 179.4 45.2438C179.5 45.1438 179.7 45.0438 179.9 44.9438C180.1 44.8438 180.3 44.8438 180.5 44.8438C180.8 44.8438 181 44.8438 181.1 44.9438C181.3 45.0438 181.4 45.1438 181.5 45.2438C181.6 45.3438 181.6 45.5438 181.7 45.6438C181.7 45.7438 181.7 45.9438 181.7 46.0438V46.1438V46.2438H178.9ZM185.3 43.6438L183.8 52.6438H185.8L186.3 49.5438C186.4 49.7438 186.5 49.8438 186.6 49.9438C186.7 50.0438 186.8 50.1438 186.9 50.2438C187.1 50.3438 187.3 50.4438 187.5 50.5438C187.7 50.6438 187.9 50.6438 188.1 50.6438C188.5 50.6438 188.8 50.6438 189 50.5438C189.3 50.4438 189.5 50.3438 189.7 50.1438C189.9 49.9438 190.1 49.7438 190.3 49.4438C190.5 49.1438 190.7 48.7438 190.9 48.4438C191 48.0438 191.1 47.7438 191.2 47.3438C191.3 46.9438 191.3 46.6438 191.3 46.2438C191.3 46.0438 191.3 45.7438 191.2 45.5438C191.2 45.3438 191.1 45.0438 191 44.8438C190.9 44.6438 190.8 44.4438 190.6 44.2438C190.4 44.0438 190.1 43.8438 189.9 43.7438C189.6 43.6438 189.4 43.5438 189.1 43.5438C188.8 43.5438 188.5 43.6438 188.2 43.7438C187.9 43.8438 187.7 44.0438 187.5 44.2438C187.3 44.4438 187.1 44.6438 187 44.9438L187.2 43.7438H185.3V43.6438ZM188.2 44.8438C188.4 44.8438 188.5 44.8438 188.6 44.9438C188.7 44.9438 188.8 45.0438 188.9 45.1438C189 45.2438 189.1 45.3438 189.1 45.4438C189.1 45.5438 189.2 45.6438 189.2 45.7438C189.2 45.8438 189.2 45.9438 189.2 46.0438C189.2 46.2438 189.2 46.4438 189.2 46.6438C189.2 46.8438 189.1 47.0438 189.1 47.3438C189.1 47.5438 189 47.7438 188.9 47.9438C188.8 48.1438 188.8 48.2438 188.7 48.4438C188.6 48.6438 188.5 48.7438 188.4 48.8438C188.3 48.9438 188.2 49.0438 188 49.1438C187.9 49.2438 187.7 49.2438 187.5 49.2438C187.3 49.2438 187.2 49.2438 187.1 49.1438C187 49.0438 186.9 49.0438 186.8 48.9438C186.7 48.8438 186.7 48.7438 186.6 48.6438C186.6 48.5438 186.5 48.4438 186.5 48.3438C186.5 48.2438 186.5 48.1438 186.5 48.0438C186.5 47.9438 186.5 47.7438 186.5 47.5438C186.5 47.3438 186.6 47.1438 186.6 46.9438C186.6 46.7438 186.7 46.5438 186.7 46.3438C186.8 46.1438 186.8 45.9438 186.9 45.8438C187 45.6438 187.1 45.4438 187.2 45.3438C187.3 45.2438 187.4 45.0438 187.6 44.9438C187.9 44.8438 188 44.8438 188.2 44.8438ZM193.1 43.6438L192 50.4438H195.6C195.8 50.4438 196 50.4438 196.2 50.4438C196.4 50.4438 196.7 50.4438 196.9 50.3438C197.1 50.3438 197.4 50.2438 197.6 50.1438C197.8 50.0438 198 49.8438 198.2 49.6438C198.4 49.4438 198.5 49.2438 198.6 49.0438C198.7 48.8438 198.7 48.6438 198.7 48.3438C198.7 48.1438 198.7 47.9438 198.6 47.8438C198.6 47.6438 198.5 47.5438 198.3 47.3438C198.2 47.2438 198.1 47.1438 197.9 47.0438C197.8 46.9438 197.6 46.8438 197.4 46.8438C197.4 46.8438 197.5 46.8438 197.6 46.7438C197.7 46.7438 197.8 46.6438 197.9 46.6438C198 46.5438 198.1 46.4438 198.2 46.3438C198.3 46.2438 198.4 46.1438 198.4 46.0438C198.5 45.9438 198.5 45.8438 198.6 45.6438C198.6 45.5438 198.7 45.3438 198.7 45.1438C198.7 44.8438 198.6 44.6438 198.6 44.4438C198.5 44.2438 198.4 44.0438 198.2 43.9438C198 43.8438 197.8 43.7438 197.6 43.6438C197.4 43.5438 197.2 43.5438 197 43.5438C196.8 43.5438 196.6 43.5438 196.5 43.5438H193.1V43.6438ZM195 44.7438H196C196.1 44.7438 196.2 44.7438 196.3 44.7438C196.4 44.7438 196.5 44.8438 196.6 44.9438C196.7 45.0438 196.7 45.0438 196.8 45.1438C196.8 45.2438 196.9 45.3438 196.9 45.4438C196.9 45.5438 196.9 45.7438 196.8 45.8438C196.7 45.9438 196.7 46.0438 196.6 46.1438C196.5 46.2438 196.4 46.2438 196.3 46.3438C196.2 46.3438 196.1 46.4438 196 46.4438C195.9 46.4438 195.8 46.4438 195.7 46.4438H194.7L195 44.7438ZM194.5 47.5438H195.6C195.7 47.5438 195.8 47.5438 196 47.5438C196.1 47.5438 196.2 47.6438 196.4 47.7438C196.5 47.8438 196.5 47.8438 196.6 47.9438C196.7 48.0438 196.7 48.1438 196.7 48.3438C196.7 48.4438 196.7 48.5438 196.7 48.6438C196.7 48.7438 196.6 48.8438 196.6 48.9438C196.5 49.0438 196.5 49.1438 196.4 49.1438C196.3 49.2438 196.1 49.2438 196 49.3438C195.9 49.3438 195.7 49.3438 195.6 49.3438H194.4L194.5 47.5438ZM207.3 43.6438L206.2 50.4438H208.2L209.3 43.6438H207.3ZM200.6 43.6438L199.5 50.4438H203.1C203.3 50.4438 203.5 50.4438 203.7 50.4438C203.9 50.4438 204.1 50.3438 204.3 50.3438C204.5 50.2438 204.7 50.1438 204.9 50.0438C205.1 49.9438 205.2 49.7438 205.4 49.5438C205.5 49.3438 205.7 49.0438 205.7 48.8438C205.8 48.5438 205.8 48.2438 205.8 47.9438C205.8 47.6438 205.7 47.3438 205.6 47.1438C205.5 46.9438 205.3 46.7438 205.1 46.5438C204.9 46.4438 204.8 46.3438 204.6 46.2438C204.4 46.1438 204.2 46.1438 204 46.1438C203.8 46.1438 203.6 46.1438 203.4 46.1438H202L202.4 43.6438H200.6ZM202 47.2438H202.9C203 47.2438 203 47.2438 203.1 47.2438C203.2 47.2438 203.3 47.2438 203.3 47.2438C203.4 47.2438 203.4 47.3438 203.5 47.3438C203.6 47.4438 203.6 47.4438 203.7 47.5438C203.7 47.6438 203.8 47.7438 203.8 47.7438C203.8 47.8438 203.8 47.8438 203.8 47.9438C203.8 48.1438 203.8 48.2438 203.7 48.4438C203.6 48.5438 203.6 48.7438 203.4 48.8438C203.3 48.9438 203.2 48.9438 203.1 49.0438C203 49.0438 202.9 49.1438 202.8 49.1438C202.7 49.1438 202.6 49.1438 202.5 49.1438H201.6L202 47.2438ZM211 43.6438L209.9 50.4438H211.4L212.2 45.2438L213.2 50.4438H214.3L216.9 45.2438L216 50.4438H217.8L218.9 43.6438H216.2L214.1 47.8438L213.3 43.6438H211Z" fill="#283A97"/>
<path d="M180.9 8.7439H165.5L162 30.2439H172.3C174.3 30.2439 176.3 29.7439 177.9 28.4439C178.9 27.4439 179.6 26.1439 180 24.8439C180.2 24.1439 180.3 23.3439 180.3 22.5439C180.3 21.1439 179.9 19.6439 178.9 18.6439C177.6 17.4439 175.9 17.1439 174.2 17.2439H169.3L170.1 12.7439H180.5L180.9 8.7439ZM168.5 21.0439H172.6C174.1 21.0439 175.2 21.6439 175.2 23.3439C175.2 23.7439 175.1 24.1439 174.9 24.5439C174.7 24.9439 174.5 25.2439 174.2 25.5439C173.4 26.2439 172.4 26.4439 171.3 26.4439H167.5L168.5 21.0439ZM184.9 8.7439L181.4 30.2439H186.4L186.7 28.5439L194.9 18.2439C195.3 17.7439 195.6 17.1439 195.9 16.6439C195.7 17.3439 195.6 17.9439 195.5 18.6439L193.6 30.3439H198.6L202.1 8.8439H197.1L196.8 10.3439L188.6 20.6439C188.2 21.1439 187.9 21.7439 187.5 22.3439C187.7 21.7439 187.9 21.0439 188 20.3439L189.9 8.8439H184.9V8.7439ZM203.8 8.7439L203.1 12.7439H208.2L205.3 30.3439H210.3L213.2 12.7439H218.3L219 8.7439H203.8Z" fill="#D20F8C"/>
<path d="M52.3 8.74395L48.8 30.2439H53.8L56.7 12.6439H63.6L60.7 30.2439H65.7L69.2 8.74395H52.3ZM85.4 23.0439C85.5 22.4439 85.5 21.9439 85.5 21.3439C85.5 19.9439 85.3 18.6439 84.7 17.3439C84.4 16.6439 83.9 16.0439 83.3 15.4439C81.9 14.2439 80 13.7439 78.2 13.7439C75.9 13.7439 73.8 14.5439 72.2 16.1439C70.4 17.9439 69.4 20.4439 69.3 22.9439C69.3 24.7439 69.9 26.6439 71.1 28.0439C72.6 29.7439 74.6 30.3439 76.8 30.3439C78.6 30.3439 80.5 29.8439 82 28.8439C83.2 28.0439 84.1 26.9439 84.7 25.6439L80.6 24.7439C80.3 25.3439 80 25.8439 79.6 26.3439C78.9 27.0439 78.1 27.3439 77.1 27.2439C76.1 27.2439 75.2 26.8439 74.6 25.9439C74.2 25.2439 74 24.5439 74 23.7439C74 23.4439 74 23.1439 74 22.9439H85.4V23.0439ZM74.5 20.4439C74.6 19.5439 75.1 18.7439 75.7 18.0439C76.4 17.3439 77.3 16.9439 78.2 16.9439C78.8 16.9439 79.3 17.0439 79.6 17.2439C80.5 17.7439 80.9 18.8439 80.9 19.8439C80.9 20.0439 80.9 20.1439 80.9 20.3439H74.5V20.4439ZM88.7 14.2439L85.3 35.3439H90L91.2 28.1439H91.3C91.6 28.7439 92 29.3439 92.6 29.6439C93.4 30.2439 94.4 30.4439 95.4 30.4439C96.8 30.4439 98.2 30.0439 99.4 29.1439C101.3 27.5439 102.4 25.0439 102.8 22.5439C103.1 20.6439 103.2 18.4439 102.4 16.6439C101.5 14.8439 99.7 13.7439 97.8 13.7439C97.1 13.7439 96.4 13.8439 95.8 14.1439C94.5 14.6439 93.5 15.6439 92.9 16.8439H92.8L93.2 14.0439H88.7V14.2439ZM95.7 17.1439C96.7 17.1439 97.5 17.6439 97.9 18.5439C98.4 19.8439 98.1 21.5439 97.8 22.9439C97.6 23.8439 97.3 24.6439 96.9 25.4439C96.4 26.4439 95.5 27.4439 94.3 27.4439C93.7 27.4439 93 27.2439 92.6 26.7439C92.1 26.1439 91.9 25.3439 91.9 24.5439C91.9 23.7439 92 22.8439 92.2 22.0439C92.4 21.1439 92.6 20.2439 93 19.4439C93.4 18.2439 94.2 17.1439 95.7 17.1439ZM106.4 14.2439L103.8 30.2439H112.2C114.3 30.2439 116.7 30.0439 118.2 28.3439C118.9 27.5439 119.3 26.4439 119.3 25.3439C119.3 24.4439 119.1 23.6439 118.5 23.0439C118 22.4439 117.3 22.0439 116.5 21.7439C117.5 21.4439 118.4 20.8439 118.9 19.9439C119.3 19.3439 119.5 18.6439 119.5 17.9439C119.5 16.8439 119.2 15.7439 118.2 15.1439C117 14.3439 115.5 14.2439 114.1 14.2439H106.4ZM110.7 16.8439H113.1C114.2 16.8439 115.1 17.2439 115.1 18.4439C115.1 20.0439 113.7 20.7439 112.3 20.7439H110L110.7 16.8439ZM109.6 23.3439H112.2C113.5 23.3439 114.5 23.8439 114.5 25.2439C114.5 26.7439 113.1 27.5439 111.7 27.5439H108.8L109.6 23.3439ZM138.9 14.2439L136.3 30.2439H141L143.6 14.2439H138.9ZM123.2 14.2439L120.6 30.2439H129C131.1 30.2439 133.1 29.8439 134.4 27.9439C135.1 26.8439 135.5 25.5439 135.5 24.2439C135.5 22.9439 135.1 21.8439 134.1 21.0439C133 20.2439 131.6 20.0439 130.3 20.1439H126.9L127.9 14.2439H123.2ZM126.5 22.7439H128.6C129.8 22.7439 130.8 23.2439 130.8 24.6439C130.8 25.0439 130.7 25.4439 130.6 25.7439C130.1 26.8439 129 27.2439 127.9 27.2439H125.7L126.5 22.7439ZM149.8 8.54395C149.7 9.64395 150.1 10.7439 150.8 11.4439C151.7 12.3439 153.1 12.6439 154.3 12.6439C155.2 12.6439 156.2 12.5439 157.1 12.1439C158.7 11.5439 159.8 10.1439 160.1 8.54395H156.6C156.4 9.54395 155.7 10.4439 154.6 10.4439C153.6 10.4439 153 9.54395 153.1 8.54395H149.8ZM146.7 14.2439L144.1 30.2439H148.8L149 28.8439L154.3 22.4439C154.7 22.0439 155 21.5439 155.3 21.0439C155.2 21.6439 155.1 22.1439 155 22.7439L153.8 30.2439H158.5L161.1 14.2439H156.4L156.2 15.4439L150.8 21.9439C150.4 22.4439 150.1 22.8439 149.8 23.3439C149.9 22.7439 150 22.2439 150.1 21.6439L151.4 14.2439H146.7Z" fill="#283A97"/>
<path d="M38.2 10.3438C30.1 18.2438 19.1 34.2438 12.5 46.8438C17.4 45.1438 23.6 44.0438 30.5 43.9438C30.5 33.3438 32.7 19.3438 40.1 8.7438L40 8.6438C38.8 9.5438 37.6 10.5438 36.5 11.4438C24.6 22.0438 12.5 36.5438 4.5 50.3438L4.6 50.4438C5.7 49.6438 7.4 48.6438 8.9 47.9438C15.8 35.8438 26.2 21.5438 36.9 11.4438C37.3 11.0438 37.7 10.6438 38.2 10.3438Z" fill="#283A97"/>
<path d="M48.1 0.343872C31.6 10.5439 15.4 21.3439 0 33.6439L0.1 33.7439C12.2 24.7439 25.8 16.3439 40.2 8.34387L48.2 0.543872L48.1 0.343872Z" fill="#D20F8C"/>
</svg>
