<svg width="200" height="33" viewBox="0 0 200 33" fill="none" xmlns="http://www.w3.org/2000/svg">
<path d="M196.124 0V13.6628C196.124 14.1473 196.076 14.5833 196.027 15.0194C195.979 15.4554 195.833 15.7946 195.688 16.0853C195.494 16.376 195.3 16.6182 194.961 16.812C194.671 17.0058 194.283 17.0543 193.798 17.0543C193.314 17.0543 192.975 16.9574 192.636 16.812C192.345 16.6182 192.103 16.4244 191.909 16.0853C191.764 15.7946 191.618 15.407 191.57 15.0194C191.521 14.6318 191.473 14.1473 191.473 13.6628V0H187.5V13.6628C187.5 14.9709 187.694 16.0368 188.033 16.8605C188.372 17.6841 188.857 18.314 189.438 18.75C190.019 19.186 190.698 19.4767 191.424 19.6221C192.2 19.7674 192.975 19.8643 193.75 19.8643C194.574 19.8643 195.349 19.7674 196.076 19.6221C196.851 19.4767 197.481 19.1376 198.062 18.6531C198.643 18.1686 199.128 17.5388 199.467 16.7151C199.806 15.8915 200 14.874 200 13.6143V0H196.124ZM180.765 7.89729C180.233 8.33333 179.506 8.57558 178.585 8.57558H176.938V2.90698H178.827C180.669 2.90698 181.589 3.82752 181.589 5.62016C181.541 6.68605 181.298 7.41279 180.765 7.89729ZM185.562 18.2655C185.514 17.7326 185.465 16.9089 185.417 15.8915C185.417 15.3585 185.368 14.874 185.368 14.438C185.368 14.0019 185.32 13.6143 185.271 13.2267C185.174 12.1124 184.884 11.3372 184.399 10.8527C183.963 10.3682 183.188 10.0291 182.219 9.88372V9.83527C183.333 9.59302 184.157 9.06008 184.69 8.23643C185.223 7.41279 185.465 6.3469 185.465 5.03876C185.465 3.34302 185.029 2.08333 184.108 1.25969C183.188 0.436047 181.928 0 180.233 0H172.965V19.5736H176.938V11.2888H179.07C179.893 11.2888 180.475 11.4826 180.814 11.9186C181.153 12.3547 181.347 12.9845 181.395 13.7112L181.492 17.4419C181.492 17.8295 181.541 18.2171 181.589 18.5562C181.638 18.8953 181.783 19.2345 181.977 19.4767H186.289V19.3798C185.901 19.186 185.707 18.7985 185.562 18.2655Z" fill="#2B7EE0"/>
<path d="M23.062 0H0V6.58915H23.062C24.9031 6.58915 26.3566 8.04263 26.3566 9.88372C26.3566 11.7248 24.9031 13.1783 23.062 13.1783V19.7674C28.5368 19.7674 32.9457 15.3585 32.9457 9.88372C32.9457 4.40891 28.5368 0 23.062 0ZM13.1783 32.9457H19.7674V9.88372H13.1783V32.9457ZM3.29457 32.9457H9.88372V9.88372H3.29457V32.9457Z" fill="#2B7EE0"/>
<path d="M159.06 21.9961C158.963 23.4981 158.721 24.7093 158.43 25.6299C158.14 26.5504 157.655 27.2287 157.074 27.6647C156.492 28.1008 155.717 28.2946 154.748 28.2946C153.779 28.2946 153.004 28.1008 152.422 27.6647C151.841 27.2287 151.357 26.5504 151.066 25.6299C150.727 24.7093 150.533 23.4981 150.436 21.9961C150.339 20.4942 150.291 18.6531 150.291 16.5213C150.291 14.3895 150.339 12.5485 150.436 11.095C150.533 9.59303 150.775 8.38179 151.066 7.46125C151.357 6.49226 151.841 5.81397 152.422 5.37792C153.004 4.94187 153.779 4.74807 154.748 4.74807C155.717 4.74807 156.492 4.94187 157.074 5.37792C157.655 5.81397 158.091 6.49226 158.43 7.46125C158.721 8.43024 158.963 9.64148 159.06 11.095C159.157 12.5969 159.205 14.3895 159.205 16.5213C159.205 18.7016 159.157 20.4942 159.06 21.9961ZM165.358 9.88373C165.116 7.84885 164.632 6.10466 163.857 4.65118C163.081 3.19769 161.967 2.0349 160.514 1.2597C159.06 0.436059 157.122 0.0484619 154.7 0.0484619C152.277 0.0484619 150.339 0.484508 148.886 1.2597C147.432 2.08335 146.318 3.19769 145.543 4.65118C144.767 6.10466 144.283 7.84885 144.041 9.88373C143.798 11.9186 143.702 14.1473 143.702 16.5698C143.702 19.0407 143.798 21.2694 144.041 23.3043C144.283 25.2907 144.767 27.0349 145.543 28.4884C146.318 29.9419 147.432 31.0562 148.886 31.8314C150.339 32.6066 152.277 32.9942 154.7 32.9942C157.122 32.9942 159.108 32.6066 160.514 31.8314C161.967 31.0562 163.081 29.9419 163.857 28.4884C164.632 27.0349 165.116 25.3392 165.358 23.3043C165.601 21.3178 165.698 19.0407 165.698 16.5698C165.698 14.1473 165.601 11.9186 165.358 9.88373ZM132.994 26.6957C132.025 27.374 130.765 27.7132 129.215 27.7132H126.696V18.1686H129.506C130.233 18.1686 130.911 18.2171 131.492 18.4109C132.122 18.5562 132.607 18.7985 133.043 19.1861C133.479 19.5737 133.818 20.0582 134.06 20.6395C134.302 21.2694 134.448 21.9961 134.448 22.9167C134.448 24.7578 133.963 26.0175 132.994 26.6957ZM126.647 5.32947H129.021C130.62 5.32947 131.831 5.66862 132.558 6.25001C133.333 6.87986 133.672 7.94575 133.672 9.44769C133.672 10.9496 133.236 12.064 132.413 12.6938C131.589 13.3237 130.281 13.6628 128.44 13.6628H126.599V5.32947H126.647ZM135.32 15.7461V15.6492C136.967 15.2132 138.178 14.3895 139.002 13.1299C139.826 11.8702 140.213 10.4167 140.213 8.67249C140.213 7.17055 139.971 5.86242 139.535 4.84497C139.099 3.82753 138.469 2.95544 137.645 2.32559C136.822 1.69575 135.853 1.2597 134.738 0.969004C133.624 0.678307 132.364 0.581408 131.056 0.581408H120.155V32.4613H131.153C133.043 32.4613 134.641 32.219 135.901 31.6861C137.161 31.2016 138.227 30.5233 139.002 29.6512C139.826 28.8275 140.359 27.8101 140.698 26.6957C141.037 25.5814 141.182 24.3702 141.182 23.1105C141.182 20.9787 140.649 19.2345 139.583 17.9748C138.566 16.7151 137.161 15.9884 135.32 15.7461ZM102.326 20.4457L105.426 6.15311H105.523L108.624 20.4457H102.326ZM101.502 0.629857L92.9263 32.4613H99.7093L101.211 25.7268H109.787L111.289 32.4613H118.072L109.545 0.629857H101.502ZM86.4825 13.8566C85.7073 14.6318 84.6414 15.0194 83.3333 15.0194H80.4263V5.32947H83.1395C84.7868 5.32947 85.9011 5.76552 86.6279 6.58916C87.3062 7.4128 87.6453 8.62404 87.6453 10.2229C87.6938 11.8702 87.3062 13.0814 86.4825 13.8566ZM94.186 10.1744C94.186 8.96319 94.0407 7.8004 93.75 6.68606C93.4593 5.52327 92.9263 4.55428 92.248 3.63373C91.5697 2.76164 90.6492 2.0349 89.5349 1.4535C88.4205 0.920555 87.0155 0.629857 85.3682 0.629857H73.9825V32.4613H80.4748V19.7675H83.9632C85.5135 19.7675 86.9186 19.5737 88.1783 19.1861C89.438 18.7985 90.5038 18.2171 91.4244 17.4419C92.2965 16.6667 93.0232 15.6977 93.5077 14.4864C93.9438 13.2752 94.186 11.8217 94.186 10.1744ZM49.4186 32.4613H55.9108V5.86242H63.5174V32.4613H70.0097V0.629857H49.4186V32.4613Z" fill="#1C2935"/>
</svg>
