<svg width="149" height="26" viewBox="0 0 149 26" fill="none" xmlns="http://www.w3.org/2000/svg">
<path d="M131.228 0.403101H135.725V14.0342C135.725 16.1973 135.781 17.3978 135.892 18.0387C136.085 18.8672 136.54 19.697 137.26 20.3264C137.989 20.9445 138.981 21.455 140.237 21.455C141.513 21.455 142.476 20.9616 143.124 20.3779C143.772 19.7828 144.162 19.056 144.294 18.1977C144.425 17.3393 144.491 16.3175 144.491 14.326V0.403101H148.988V13.6222C148.988 16.6437 149.066 17.972 148.823 19.2195C148.58 20.467 147.93 21.5199 147.271 22.3783C146.623 23.2367 145.752 24.1249 144.658 24.64C143.564 25.1436 142.07 25.8992 140.308 25.8992C138.181 25.8992 136.829 25.2393 135.725 24.6899C134.631 24.1291 133.568 23.2895 132.93 22.4082C132.292 21.5155 131.73 20.4224 131.528 19.4496C131.234 18.0075 131.228 16.6437 131.228 13.8282V0.403101Z" fill="#EB0202"/>
<path d="M5.37784 5.02341V11.9265C5.37784 11.9265 4.05583 11.9265 7.92707 11.9265C11.7983 11.9265 12.2174 10.5728 12.2174 8.26838C12.2174 7.25726 11.9147 6.46954 11.3094 5.9052C10.7041 5.31734 9.87766 5.02341 8.83003 5.02341H5.37784ZM12.3171 25.9998L5.62229 16.3354H5.17829V25.9998H0V0.614499H8.1366C10.7673 0.614499 13.6724 1.31992 15.2555 2.73078C16.8619 4.14163 17.6651 5.97574 17.6651 8.2331C17.6651 11.6192 15.8891 15.3176 10.9752 16.0583L17.7449 25.9998H12.3171Z" fill="#EB0202"/>
<path d="M30.0446 14.9598L27.2085 6.88774L24.2078 14.9598H30.0446ZM38.7374 25.9998H34.1079L31.848 19.7215H22.5864L20.1619 25.9998H15.2979L25.2329 0.498592H29.0194L38.7374 25.9998Z" fill="#EB0202"/>
<path d="M38.039 0.402861H44.8951C48.7302 0.402861 51.5641 3.05775 51.5641 6.84574C51.5641 8.5967 51.2218 10.3979 49.7526 11.3904C51.5241 12.1599 53.504 13.1005 53.504 18.3408C53.504 23.7827 49.7526 25.7982 43.8772 25.9998H38.039V0.402861ZM42.6994 4.66319V9.77605C42.6994 9.77605 43.6263 9.77385 44.9234 9.77495C46.2205 9.77605 47.0077 8.46305 46.9972 7.37752C46.9831 5.91569 46.3196 4.69766 44.7687 4.66319C43.2178 4.62872 43.4055 4.66319 42.6994 4.66319ZM42.6994 14.0364V21.687H44.7079C45.9559 21.687 46.7476 21.6347 47.083 21.5299C47.5978 21.3902 48.0151 21.0527 48.3349 20.5172C48.6625 19.9701 48.8263 18.4364 48.8263 17.5285C48.8263 16.7602 48.7015 16.1083 48.4519 15.5729C48.2023 15.0374 47.8396 14.6475 47.3638 14.4031C46.8958 14.1586 45.874 14.0364 44.2984 14.0364H42.6994Z" fill="#EB0202"/>
<path d="M98.4898 14.8593L95.6537 6.78721L92.653 14.8593H98.4898ZM107.183 25.8992H102.553L100.293 19.6209H91.0316L88.6071 25.8992H83.7431L93.6782 0.398057H97.4646L107.183 25.8992Z" fill="#EB0202"/>
<path d="M53.0051 13.1544C53.0051 10.5932 53.3938 8.44371 54.171 6.7058C54.751 5.42524 55.5399 4.27617 56.5375 3.25857C57.5468 2.24098 58.6488 1.48637 59.8437 0.994723C61.433 0.331574 63.2658 0 65.3424 0C69.1009 0 72.1055 1.14908 74.356 3.44723C76.6181 5.74538 77.7492 8.94107 77.7492 13.0343C77.7492 17.0932 76.6297 20.2718 74.3908 22.5699C72.1519 24.8566 69.1589 26 65.412 26C61.6186 26 58.6024 24.8624 56.3635 22.5871C54.1246 20.3004 53.0051 17.1561 53.0051 13.1544ZM57.4144 12.9829C57.4144 15.8298 58.1564 17.5716 59.4905 19.0465C60.8245 20.51 63.3239 21.3643 65.3772 21.3643C67.4305 21.3643 69.7534 20.5994 71.0643 19.1473C72.3868 17.6838 73.2593 15.8984 73.2593 12.9829C73.2593 10.1016 72.352 8.27048 71.0643 6.85271C69.7882 5.43495 67.5175 4.5406 65.3946 4.5406C63.2716 4.5406 60.7897 5.41208 59.4905 6.85271C58.3908 8.28191 57.4144 10.0901 57.4144 12.9829Z" fill="#EB0202"/>
<path d="M80.1298 25.7985V4.82166H74.708V0.550524H90.1827V4.82166H84.7779V25.7985H80.1298Z" fill="#EB0202"/>
<path d="M108.48 21.1628H113.069V25.7985H108.48V21.1628Z" fill="#EB0202"/>
<path d="M119.32 4.82186V11.725C119.32 11.725 117.998 11.725 121.869 11.725C125.741 11.725 126.16 10.3712 126.16 8.06682C126.16 7.05571 125.857 6.26798 125.252 5.70364C124.646 5.11579 123.82 4.82186 122.772 4.82186H119.32ZM126.259 25.7982L119.565 16.1339H119.121V25.7982H113.942V0.412942H122.079C124.71 0.412942 127.615 1.11837 129.198 2.52922C130.804 3.94007 131.607 5.77418 131.607 8.03155C131.607 11.4176 129.831 15.116 124.918 15.8567L131.687 25.7982H126.259Z" fill="#EB0202"/>
</svg>
