<svg width="161" height="47" viewBox="0 0 161 47" fill="none" xmlns="http://www.w3.org/2000/svg">
<path d="M81.7997 11.3507H86.0994V15.1827H81.7997V11.3507ZM81.7999 17.4116H86.0995V33.525H81.7999V17.4116Z" fill="#747679"/>
<path d="M92.6442 19.9872H92.7391C93.7192 18.1652 94.8257 17.2228 96.7226 17.2228C97.1965 17.2228 97.4815 17.2545 97.7344 17.3486V21.0863H97.6393C94.8258 20.8039 92.8023 22.2801 92.8023 25.6722V33.5249H88.5025V17.4114H92.6442V19.9872Z" fill="#747679"/>
<path d="M106.112 11.3507H110.411V15.1827H106.112V11.3507ZM106.112 17.4116H110.412V33.525H106.112V17.4116Z" fill="#747679"/>
<path d="M117.019 19.6101H117.113C118.22 17.8826 119.706 16.9717 121.919 16.9717C125.27 16.9717 127.515 19.4844 127.515 23.0025V33.5249H123.215V23.6305C123.215 21.903 122.203 20.6779 120.401 20.6779C118.505 20.6779 117.113 22.1856 117.113 24.3844V33.5249H112.814V17.4114H117.019V19.6101H117.019Z" fill="#747679"/>
<path d="M129.285 25.4525C129.285 20.6781 132.541 16.9718 137.283 16.9718C142.5 16.9718 145.282 20.9295 145.282 26.6774H133.521C133.837 29.1586 135.228 30.698 137.663 30.698C139.338 30.698 140.318 29.9442 140.792 28.7189H145.029C144.428 31.5774 141.867 33.9962 137.694 33.9962C132.32 33.9961 129.285 30.2579 129.285 25.4525ZM133.584 23.725H140.792C140.666 21.6831 139.307 20.2695 137.346 20.2695C135.07 20.2695 133.963 21.6203 133.584 23.725Z" fill="#747679"/>
<path d="M146.272 28.3105H150.256C150.54 30.1638 151.868 30.9805 153.797 30.9805C155.694 30.9805 156.769 30.2579 156.769 29.1275C156.769 27.5883 154.714 27.4311 152.501 26.9917C149.592 26.4263 146.747 25.6409 146.747 22.123C146.747 18.6366 149.655 16.9718 153.354 16.9718C157.622 16.9718 159.993 19.0763 160.31 22.3114H156.421C156.231 20.584 155.124 19.9557 153.291 19.9557C151.615 19.9557 150.509 20.584 150.509 21.7461C150.509 23.128 152.659 23.2538 154.967 23.7252C157.686 24.2905 160.689 25.0443 160.689 28.8136C160.689 32.0488 157.907 33.9964 153.86 33.9964C149.149 33.9961 146.525 31.7347 146.272 28.3105Z" fill="#747679"/>
<path d="M71.6549 11.3507H66.6506L57.6025 33.5249H62.7242L64.3998 28.9705H73.6317L75.3387 33.5249H80.4922L71.6549 11.3507ZM65.6327 25.2325L68.9525 15.8092L72.3668 25.2323H65.6327V25.2325Z" fill="#747679"/>
<path d="M103.709 11.3507H99.4093V33.5249H103.709V11.3507Z" fill="#747679"/>
<path fill-rule="evenodd" clip-rule="evenodd" d="M46.6892 23.1592C46.6892 35.8657 36.399 46.1542 23.6962 46.1542C10.9918 46.1542 0.689209 35.8657 0.689209 23.1592C0.689209 10.4527 10.9918 0.154236 23.6962 0.154236C36.3992 0.154236 46.6892 10.4527 46.6892 23.1592ZM38.9443 11.1541H27.6908L26.0916 15.1526H29.8217C31.4938 15.1526 32.2662 15.1286 32.7819 15.1126C33.0403 15.1046 33.2343 15.0985 33.4447 15.0985C32.5348 17.1801 27.051 31.1544 27.051 31.1544H31.6921C31.6921 31.1544 38.635 13.7588 39.3708 11.9349C39.5746 11.5279 39.4734 11.1541 38.9443 11.1541ZM14.3457 11.9859C16.047 11.3543 18.3973 11.1541 22.0202 11.1541L25.2883 11.1542L23.6892 15.1529H21.4498C19.0446 15.1529 17.5004 15.1602 16.667 15.4367C15.856 15.6881 15.2569 15.9927 14.9303 16.4708C14.6283 16.8575 14.5263 17.3853 14.5263 17.8435C14.5263 18.3233 14.5789 18.7775 15.0539 19.3879C15.6399 19.9725 16.6048 20.7278 18.4983 21.8924C22.273 24.2477 23.3896 26.1173 23.3896 28.5773C23.3896 32.5807 19.6141 36.4038 13.286 36.4038C11.3838 36.4038 8.72879 36.1252 7.61005 35.7683L7.02244 35.5955C7.25157 34.8338 8.00309 32.7344 8.33413 31.8469L8.92758 31.9965C10.1713 32.3008 12.1176 32.4796 13.4099 32.4796C17.1122 32.4796 18.5512 30.808 18.5512 29.3394C18.5512 27.9975 17.8183 27.2616 14.1448 25.0346C10.7019 22.9065 9.51227 21.0562 9.51227 18.5013C9.51227 15.4338 11.4867 13.0996 14.3457 11.9859Z" fill="#BED600"/>
</svg>
