<svg width="250" height="125" viewBox="0 0 250 125" fill="none" xmlns="http://www.w3.org/2000/svg">
<path d="M49.0651 79.4702H52.5905V60.402L49.0651 59.0641V79.4702Z" fill="black"/>
<path d="M60.0597 51.5302C60.0597 54.1792 59.1872 55.5261 57.4245 55.5261C55.6618 55.5261 54.7716 55.0771 51.264 53.3082C47.7564 51.5392 47.3202 51.0902 44.231 51.0902C41.1418 51.0902 38.5067 53.7482 38.5067 58.6241L41.578 59.0641C42.0143 55.9751 42.8867 54.6282 44.6494 54.6282C46.4121 54.6282 47.3024 55.0772 50.3737 56.8461C53.4451 58.6151 54.3176 59.0641 57.4067 59.0641C60.4959 59.0641 63.5762 56.8461 63.1311 51.5302H60.0597Z" fill="black"/>
<path d="M51.264 36C36.2054 36 24 48.311 24 63.5C24 78.689 36.2054 91 51.264 91C66.3137 90.982 78.5102 78.68 78.528 63.5C78.528 48.311 66.3226 36 51.264 36ZM51.264 89.24C37.1802 89.24 25.7627 77.7237 25.7627 63.518C25.7627 49.3122 37.1802 37.7959 51.264 37.7959C65.3434 37.8049 76.7564 49.3167 76.7653 63.518C76.7653 77.7237 65.3478 89.24 51.264 89.24Z" fill="black"/>
<path d="M90.5687 59.2616H94.1742V72.6637H95.8257V59.2616H99.4312V57.6902H90.5687V59.2616Z" fill="black"/>
<path d="M102.342 58.6735C101.715 58.678 101.212 59.1898 101.207 59.8229V59.8274C101.212 60.4604 101.724 60.9768 102.351 60.9723C102.979 60.9678 103.491 60.4514 103.486 59.8184C103.482 59.1853 102.97 58.669 102.342 58.6735Z" fill="black"/>
<path d="M103.144 63.3473H101.541V72.6636H103.144V63.3473Z" fill="black"/>
<path d="M108.062 56.2939H106.46V72.6637H108.062V56.2939Z" fill="black"/>
<path d="M118.456 64.6719C117.712 63.6662 116.537 63.0915 115.295 63.1229C112.936 63.1229 110.8 64.7168 110.8 67.9944C110.8 71.2719 112.959 72.9331 115.295 72.9331C116.537 72.9466 117.712 72.3629 118.456 71.3617V72.6637H120.058V56.2939H118.456V64.6719ZM115.474 71.4964C113.559 71.4964 112.447 69.9923 112.447 67.9944C112.447 65.727 113.916 64.5597 115.474 64.5597C116.898 64.5597 118.545 65.6148 118.545 68.0168C118.545 69.8576 117.388 71.4964 115.474 71.4964Z" fill="black"/>
<path d="M130.452 64.6719C129.709 63.6662 128.534 63.0915 127.292 63.1229C124.932 63.1229 122.796 64.7168 122.796 67.9944C122.796 71.2719 124.955 72.9331 127.292 72.9331C128.534 72.9466 129.709 72.3629 130.452 71.3617V72.6637H132.054V63.3474H130.452V64.6719ZM127.47 71.4964C125.556 71.4964 124.443 69.9923 124.443 67.9944C124.443 65.727 125.889 64.5597 127.47 64.5597C128.894 64.5597 130.541 65.6148 130.541 68.0168C130.541 69.8576 129.384 71.4964 127.47 71.4964Z" fill="black"/>
<path d="M143.939 57.6902H141.246V72.6637H142.893V66.1535H144.318C147.701 66.1535 149.014 64.0657 149.014 61.9555C149.054 60.7388 148.564 59.5669 147.678 58.7453C146.677 57.8653 145.431 57.6902 143.939 57.6902ZM144.229 64.582H142.893V59.2841H144.095C145.163 59.2841 147.367 59.5086 147.367 61.8881C147.367 63.5943 146.187 64.582 144.229 64.582Z" fill="black"/>
<path d="M157.026 68.7755C157.026 69.4265 157.026 70.1897 156.581 70.7734C156.545 70.8093 156.514 70.8452 156.479 70.8767C155.579 71.7253 154.173 71.6759 153.332 70.7734C152.886 70.1897 152.886 69.4265 152.886 68.7755V63.3473H151.284V68.9595C151.284 70.1044 151.395 70.9575 152.13 71.7657C153.697 73.3236 156.216 73.3236 157.783 71.7657C158.517 70.9575 158.629 70.1044 158.629 68.9595V63.3473H157.026V68.7755Z" fill="black"/>
<path d="M166.708 63.1229C165.475 63.1095 164.308 63.6752 163.547 64.6495V56.2939H161.945V72.6637H163.547V71.3617C164.308 72.3809 165.51 72.9646 166.774 72.9331C169.579 72.9331 171.203 70.576 171.203 68.0617C171.203 65.5474 169.601 63.1229 166.708 63.1229ZM166.552 71.4964C164.66 71.4964 163.458 69.9474 163.458 68.0393C163.458 65.7944 165.038 64.5597 166.53 64.5597C168.021 64.5597 169.556 65.7719 169.556 68.0617C169.556 69.925 168.444 71.4964 166.552 71.4964Z" fill="black"/>
<path d="M175.543 56.2939H173.941V72.6637H175.543V56.2939Z" fill="black"/>
<path d="M180.462 63.3473H178.86V72.6636H180.462V63.3473Z" fill="black"/>
<path d="M179.661 58.6735C179.033 58.678 178.53 59.1898 178.526 59.8229V59.8274C178.53 60.4604 179.042 60.9768 179.67 60.9723C180.297 60.9678 180.809 60.4514 180.805 59.8184C180.8 59.1853 180.288 58.669 179.661 58.6735Z" fill="black"/>
<path d="M186.672 66.9796C185.626 66.5306 185.18 66.3061 185.18 65.6327C185.176 65.5833 185.18 65.5339 185.185 65.489C185.238 64.9233 185.732 64.5102 186.293 64.5596C186.876 64.5776 187.388 64.9502 187.584 65.5025L188.897 64.8694C188.479 63.8322 187.468 63.1588 186.36 63.1857C184.802 63.1857 183.667 64.151 183.667 65.7898C183.636 66.2837 183.787 66.7686 184.09 67.1592C184.513 67.6531 185.225 68.0122 186.338 68.5061C187.206 68.8878 187.829 69.1571 187.829 70.0551C187.829 70.0955 187.829 70.1359 187.829 70.1763C187.784 70.9755 187.108 71.5816 186.315 71.5367C185.158 71.5367 184.624 70.5041 184.446 70.0102L183.066 70.5939C183.489 72.0261 184.811 73.0004 186.293 72.9735C188.074 72.9735 189.476 71.8735 189.476 69.9204C189.503 69.3771 189.329 68.8384 188.986 68.4163C188.63 67.9673 188.007 67.5408 186.672 66.9796Z" fill="black"/>
<path d="M196.153 63.1229C195.116 63.105 194.132 63.5899 193.504 64.425V56.2939H191.902V72.6637H193.504V67.7923C193.504 67.1188 193.549 66.0188 194.172 65.278C194.577 64.7976 195.173 64.5327 195.797 64.5597C196.38 64.5237 196.941 64.7752 197.31 65.2331C197.635 65.7405 197.782 66.3376 197.733 66.9393V72.6637H199.335V66.8944C199.335 65.8617 199.269 65.0984 198.801 64.4025C198.187 63.5584 197.19 63.078 196.153 63.1229Z" fill="black"/>
<path d="M203.453 58.6735C202.825 58.678 202.322 59.1898 202.318 59.8229V59.8274C202.322 60.4604 202.834 60.9768 203.462 60.9723C204.089 60.9678 204.601 60.4514 204.597 59.8184C204.592 59.1853 204.08 58.669 203.453 58.6735Z" fill="black"/>
<path d="M204.276 63.3473H202.674V72.6636H204.276V63.3473Z" fill="black"/>
<path d="M211.821 63.1229C210.784 63.1049 209.8 63.5898 209.173 64.4249V63.3474H207.57V72.6637H209.173V67.7923C209.173 67.1188 209.217 66.0188 209.84 65.278C210.245 64.7976 210.842 64.5327 211.465 64.5596C212.048 64.5237 212.609 64.7751 212.978 65.2331C213.303 65.7404 213.45 66.3376 213.401 66.9392V72.6637H215.004V66.8943C215.004 65.8617 214.937 65.0984 214.47 64.4025C213.855 63.5584 212.858 63.078 211.821 63.1229Z" fill="black"/>
<path d="M225.398 63.3473V64.6718C224.654 63.6706 223.475 63.0959 222.237 63.1229C221.062 63.1139 219.931 63.5673 219.077 64.38C218.16 65.3498 217.675 66.6563 217.741 67.9943C217.675 69.3547 218.16 70.6792 219.077 71.6759C219.922 72.502 221.062 72.9555 222.237 72.9331C223.479 72.9465 224.654 72.3629 225.398 71.3616V72.7086C225.455 73.5347 225.277 74.3608 224.886 75.0882C224.387 75.9637 223.435 76.471 222.437 76.3902C221.601 76.4351 220.786 76.1073 220.212 75.4922C219.749 74.958 219.5 74.271 219.5 73.5616H217.919C217.906 74.6841 218.338 75.7706 219.121 76.5698C220.007 77.4139 221.196 77.8673 222.415 77.8269C223.849 77.8808 225.224 77.2388 226.11 76.0984C227 74.8861 227 73.4494 227 72.4392V63.3473H225.398ZM224.441 70.7106C223.902 71.2449 223.167 71.5278 222.415 71.4963C221.681 71.5143 220.969 71.2404 220.434 70.7331C219.713 70.0102 219.335 69.018 219.388 67.9943C219.348 67.0514 219.687 66.1265 220.323 65.4351C220.871 64.8649 221.627 64.5506 222.415 64.5596C223.194 64.5461 223.946 64.8469 224.507 65.3902C225.166 66.0996 225.518 67.0469 225.487 68.0167C225.504 69.018 225.13 69.9878 224.441 70.7106Z" fill="black"/>
</svg>
