<svg width="200" height="45" viewBox="0 0 200 45" fill="none" xmlns="http://www.w3.org/2000/svg">
<path d="M63.7292 18.1776H56.705V7.3219H63.6015V8.98218H58.6207V11.9196H62.5798V13.4522H58.6207V16.5173H63.7292V18.1776Z" fill="#222222"/>
<path d="M64.8786 16.7727L66.7944 10.1316H69.7318L71.3921 16.7727H72.1583V19.9656H71.0089L70.7535 18.1776H65.6449L65.3895 19.9656H64.2401V16.7727H64.8786ZM66.2835 16.7727H69.4763L68.3269 11.5365H67.6883L66.2835 16.7727Z" fill="#222222"/>
<path d="M74.8403 17.4113V18.1776H73.0523V10.1316H74.8403V13.5799C74.8403 14.0907 74.8403 14.6016 74.8403 15.2402C75.0958 14.857 75.4789 14.3462 75.9898 13.7076L78.0332 11.1533V10.1316H79.8212V18.1776H78.0332V14.857C78.0332 14.2185 78.0332 13.5799 78.0332 13.069C77.7777 13.4522 77.3946 13.963 77.0115 14.4739L74.8403 17.4113Z" fill="#222222"/>
<path d="M81.9923 18.1776V10.1316H83.7803V13.1967H86.8454V10.1316H88.6334V18.1776H86.8454V14.6016H83.7803V18.1776H81.9923Z" fill="#222222"/>
<path d="M97.7011 18.1776H96.0408C95.9131 17.6667 95.7854 17.1559 95.7854 16.5173C95.2746 17.6667 94.3806 18.3053 93.1034 18.3053C92.3371 18.3053 91.6986 18.0499 91.1877 17.6667C90.6769 17.1559 90.4214 16.645 90.4214 15.8787C90.4214 14.0907 92.0817 13.069 95.2746 13.069C95.4023 13.069 95.53 13.069 95.7854 13.069V12.5582C95.7854 11.7919 95.2746 11.281 94.1251 11.281C92.9757 11.281 92.4648 11.6642 92.2094 12.5582L90.6769 12.3027C90.6769 11.6642 91.06 11.0256 91.6986 10.6425C92.3371 10.2593 93.2311 10.0039 94.2528 10.0039C94.8914 10.0039 95.4023 10.0039 95.7854 10.1316C96.1686 10.2593 96.5517 10.387 96.8071 10.6425C97.0626 10.8979 97.318 11.1533 97.318 11.4087C97.4457 11.6642 97.4457 12.175 97.4457 12.8136V16.3896C97.4457 17.0282 97.5734 17.539 97.7011 18.1776ZM95.6577 14.0907C93.3588 14.0907 92.2094 14.6016 92.2094 15.751C92.2094 16.1342 92.3371 16.3896 92.5926 16.645C92.848 16.9004 93.2311 17.0282 93.6143 17.0282C94.2528 17.0282 94.7637 16.7727 95.1468 16.3896C95.53 16.0064 95.6577 15.4956 95.6577 14.857V14.0907Z" fill="#222222"/>
<path d="M104.087 18.1776V14.9847H102.171L100.639 18.1776H98.7228L100.639 14.6016C99.6168 14.2185 99.106 13.5799 99.106 12.5582C99.106 11.7919 99.3614 11.1533 99.8722 10.7702C100.383 10.387 101.022 10.1316 101.788 10.1316H105.875V18.1776H104.087ZM104.087 13.7076V11.5365H102.171C101.405 11.5365 101.022 11.9196 101.022 12.6859C101.022 13.3245 101.405 13.7076 102.043 13.7076H104.087Z" fill="#222222"/>
<path d="M113.538 13.4522H116.603C116.475 12.175 115.836 11.5365 114.687 11.5365C113.793 11.5365 113.282 11.9196 113.027 12.5582L111.367 12.175C111.877 10.6425 113.027 10.0039 114.687 10.0039C115.964 10.0039 116.858 10.387 117.497 11.281C118.135 12.0473 118.391 13.069 118.391 14.2185C118.391 15.4956 118.008 16.5173 117.369 17.2836C116.73 18.0499 115.709 18.433 114.559 18.433C112.771 18.433 111.75 17.6667 111.111 16.1342L112.771 15.8787C113.027 16.645 113.665 17.0282 114.559 17.0282C115.07 17.0282 115.581 16.9004 115.964 16.5173C116.347 16.1342 116.475 15.6233 116.475 14.9847H113.538V13.4522Z" fill="#222222"/>
<path d="M119.029 18.1776L121.584 10.1316H123.755L126.181 18.1776H124.266L122.478 11.5365L120.434 18.1776H119.029Z" fill="#222222"/>
<path d="M132.312 15.6233L133.972 15.8787C133.716 16.645 133.333 17.1559 132.695 17.6667C132.056 18.1776 131.29 18.433 130.396 18.433C129.246 18.433 128.352 18.0499 127.714 17.2836C127.075 16.5173 126.692 15.4956 126.692 14.2185C126.692 13.069 127.075 12.0473 127.714 11.281C128.352 10.5147 129.374 10.1316 130.524 10.1316C131.673 10.1316 132.567 10.5147 133.206 11.281C133.844 12.0473 134.1 13.069 134.1 14.3462V14.6016H128.608C128.608 15.1124 128.608 15.6233 128.736 15.8787C128.863 16.2619 128.991 16.5173 129.374 16.7727C129.63 17.0282 130.013 17.1559 130.524 17.1559C131.418 16.9004 132.056 16.5173 132.312 15.6233ZM132.184 13.1967C132.184 12.5582 132.056 12.175 131.673 11.7919C131.29 11.4087 130.907 11.281 130.396 11.281C129.885 11.281 129.502 11.4087 129.119 11.7919C128.736 12.175 128.608 12.5582 128.48 13.1967H132.184Z" fill="#222222"/>
<path d="M140.23 12.9413L143.04 18.1776H141.124L139.08 14.3462L137.676 15.8787V18.1776H135.888V10.1316H137.676V12.5582C137.676 13.069 137.676 13.5799 137.676 13.963C137.931 13.5799 138.186 13.3245 138.442 13.069L141.124 10.2593H142.912L140.23 12.9413Z" fill="#222222"/>
<path d="M144.955 18.1776V11.5365H142.784V10.1316H149.042V11.5365H146.871V18.1776H144.955Z" fill="#222222"/>
<path d="M151.724 20.8596H149.936V10.1316H151.724V11.5365C152.235 10.5147 153.129 10.0039 154.151 10.0039C155.045 10.0039 155.683 10.387 156.322 11.1533C156.833 11.9196 157.088 12.9413 157.088 14.0907C157.088 15.2402 156.833 16.2619 156.322 17.0282C155.811 17.9222 155.045 18.3053 154.023 18.3053C153.001 18.3053 152.235 17.9222 151.724 17.0282V20.8596ZM151.724 14.857C151.724 15.4956 151.852 15.8787 152.235 16.2619C152.618 16.645 153.001 16.7727 153.384 16.7727C154.023 16.7727 154.406 16.5173 154.662 16.0064C154.917 15.4956 155.045 14.857 155.045 14.0907C155.045 13.3245 154.917 12.5582 154.662 12.0473C154.406 11.5365 154.023 11.281 153.512 11.281C153.001 11.281 152.618 11.5365 152.235 11.9196C151.852 12.3027 151.724 12.9413 151.724 13.5799V14.857Z" fill="#222222"/>
<path d="M161.813 18.3053C160.664 18.3053 159.77 17.9222 159.132 17.0282C158.493 16.1342 158.238 15.2402 158.238 14.0907C158.238 12.9413 158.621 11.9196 159.259 11.1533C159.898 10.387 160.92 10.0039 161.941 10.0039C162.963 10.0039 163.857 10.387 164.623 11.1533C165.262 11.9196 165.645 12.9413 165.645 14.0907C165.645 15.3679 165.262 16.3896 164.623 17.1559C163.729 17.9222 162.835 18.3053 161.813 18.3053ZM161.813 16.7727C163.091 16.7727 163.602 15.8787 163.602 14.0907C163.602 13.3245 163.474 12.6859 163.218 12.175C162.963 11.6642 162.452 11.4087 161.941 11.4087C161.303 11.4087 160.919 11.6642 160.536 12.175C160.281 12.6859 160.026 13.3245 160.026 14.0907C160.026 14.9847 160.153 15.6233 160.536 16.1342C160.792 16.645 161.303 16.7727 161.813 16.7727Z" fill="#222222"/>
<path d="M167.177 18.1776V10.1316H168.965V13.1967H172.031V10.1316H173.819V18.1776H172.031V14.6016H168.965V18.1776H167.177Z" fill="#222222"/>
<path d="M176.117 18.1776V10.1316H177.905V13.1967H180.971V10.1316H182.759V18.1776H180.971V14.6016H177.905V18.1776H176.117Z" fill="#222222"/>
<path d="M191.826 18.1776H190.166C190.038 17.6667 189.911 17.1559 189.911 16.5173C189.4 17.6667 188.506 18.3053 187.229 18.3053C186.462 18.3053 185.824 18.0499 185.313 17.6667C184.802 17.1559 184.547 16.645 184.547 15.8787C184.547 14.0907 186.207 13.069 189.4 13.069C189.527 13.069 189.655 13.069 189.911 13.069V12.5582C189.911 11.7919 189.4 11.281 188.25 11.281C187.101 11.281 186.59 11.6642 186.335 12.5582L184.802 12.3027C184.93 11.6642 185.185 11.1533 185.824 10.6425C186.462 10.2593 187.356 10.0039 188.378 10.0039C189.017 10.0039 189.527 10.0039 189.911 10.1316C190.294 10.2593 190.677 10.387 190.932 10.6425C191.188 10.8979 191.443 11.1533 191.443 11.4087C191.571 11.7919 191.571 12.3027 191.571 12.9413V16.5173C191.571 17.0282 191.699 17.539 191.826 18.1776ZM189.911 14.0907C187.612 14.0907 186.462 14.6016 186.462 15.751C186.462 16.1342 186.59 16.3896 186.845 16.645C187.101 16.9004 187.484 17.0282 187.867 17.0282C188.506 17.0282 189.017 16.7727 189.4 16.3896C189.783 16.0064 189.911 15.4956 189.911 14.857V14.0907Z" fill="#222222"/>
<path d="M198.212 18.1776V14.9847H196.296L194.764 18.1776H192.848L194.764 14.6016C193.742 14.2185 193.231 13.5799 193.231 12.5582C193.231 11.7919 193.487 11.1533 193.997 10.7702C194.508 10.387 195.147 10.1316 195.913 10.1316H200V18.1776H198.212ZM198.212 13.7076V11.5365H196.296C195.53 11.5365 195.147 11.9196 195.147 12.6859C195.147 13.3245 195.53 13.7076 196.169 13.7076H198.212Z" fill="#222222"/>
<path d="M58.8761 34.3972V27.7561H56.705V26.3513H62.9629V27.7561H60.7918V34.3972H58.8761Z" fill="#222222"/>
<path d="M67.0498 34.525C65.9004 34.525 65.0064 34.1418 64.3678 33.2478C63.7292 32.3538 63.4738 31.4598 63.4738 30.3104C63.4738 29.161 63.8569 28.1393 64.4955 27.373C65.1341 26.6067 66.1558 26.2236 67.1775 26.2236C68.1992 26.2236 69.0932 26.6067 69.8595 27.373C70.4981 28.1393 70.8812 29.161 70.8812 30.3104C70.8812 31.5875 70.4981 32.6093 69.8595 33.3755C68.9655 34.1418 68.0715 34.525 67.0498 34.525ZM67.0498 32.9924C68.3269 32.9924 68.8378 32.0984 68.8378 30.3104C68.8378 29.5441 68.7101 28.9056 68.4546 28.3947C68.1992 27.8838 67.6883 27.6284 67.1775 27.6284C66.5389 27.6284 66.1558 27.8838 65.7726 28.3947C65.5172 28.9056 65.2618 29.5441 65.2618 30.3104C65.2618 31.2044 65.3895 31.843 65.7726 32.3538C66.0281 32.8647 66.5389 32.9924 67.0498 32.9924Z" fill="#222222"/>
<path d="M74.3295 37.0792H72.5415V26.3513H74.3295V27.7561C74.8403 26.7344 75.7343 26.2236 76.756 26.2236C77.65 26.2236 78.2886 26.6067 78.9272 27.373C79.438 28.1393 79.6935 29.161 79.6935 30.3104C79.6935 31.4598 79.438 32.4815 78.9272 33.2478C78.4163 34.1418 77.65 34.525 76.6283 34.525C75.6066 34.525 74.8403 34.1418 74.3295 33.2478V37.0792ZM74.3295 31.0767C74.3295 31.7153 74.4572 32.0984 74.8403 32.4815C75.2235 32.8647 75.6066 32.9924 75.9898 32.9924C76.6283 32.9924 77.0115 32.737 77.2669 32.2261C77.5223 31.7153 77.65 31.0767 77.65 30.3104C77.65 29.5441 77.5223 28.7778 77.2669 28.267C77.0115 27.7561 76.6283 27.5007 76.1175 27.5007C75.6066 27.5007 75.2235 27.7561 74.8403 28.1393C74.4572 28.5224 74.3295 29.161 74.3295 29.7995V31.0767Z" fill="#222222"/>
<path d="M81.0983 34.3972V26.3513H86.0792V27.7561H83.014V34.3972H81.0983Z" fill="#222222"/>
<path d="M90.2937 34.525C89.1443 34.525 88.2503 34.1418 87.6117 33.2478C86.9731 32.3538 86.7177 31.4598 86.7177 30.3104C86.7177 29.161 87.1009 28.1393 87.7394 27.373C88.378 26.6067 89.3997 26.2236 90.4214 26.2236C91.4431 26.2236 92.3371 26.6067 93.1034 27.373C93.742 28.1393 94.1251 29.161 94.1251 30.3104C94.1251 31.5875 93.742 32.6093 93.1034 33.3755C92.3371 34.1418 91.4431 34.525 90.2937 34.525ZM90.4214 32.9924C91.6986 32.9924 92.2094 32.0984 92.2094 30.3104C92.2094 29.5441 92.0817 28.9056 91.8263 28.3947C91.5709 27.8838 91.06 27.6284 90.5491 27.6284C89.9106 27.6284 89.5274 27.8838 89.1443 28.3947C88.8889 28.9056 88.6334 29.5441 88.6334 30.3104C88.6334 31.2044 88.7612 31.843 89.1443 32.3538C89.3997 32.8647 89.7829 32.9924 90.4214 32.9924Z" fill="#222222"/>
<path d="M95.7854 26.3513H100C101.022 26.3513 101.66 26.6067 101.916 26.9898C102.299 27.373 102.427 27.8838 102.427 28.3947C102.427 29.2887 101.916 29.9273 100.894 30.1827C102.171 30.4381 102.682 31.2044 102.682 32.2261C102.682 32.8647 102.427 33.3755 102.043 33.8864C101.66 34.2695 101.022 34.525 100.255 34.525H95.7854V26.3513ZM97.5734 29.6718H99.6168C100.255 29.6718 100.639 29.2887 100.639 28.6501C100.639 28.0116 100.255 27.7561 99.6168 27.7561H97.5734V29.6718ZM97.5734 32.9924H99.6168C100.128 32.9924 100.383 32.8647 100.639 32.737C100.766 32.6093 100.894 32.2261 100.894 31.843C100.894 31.0767 100.511 30.6935 99.6168 30.6935H97.5734V32.9924Z" fill="#222222"/>
<path d="M111.239 34.3972H109.579C109.451 33.8864 109.323 33.3755 109.323 32.737C108.812 33.8864 107.918 34.525 106.641 34.525C105.875 34.525 105.236 34.2695 104.725 33.8864C104.215 33.3755 103.959 32.8647 103.959 32.0984C103.959 30.3104 105.619 29.2887 108.812 29.2887C108.94 29.2887 109.068 29.2887 109.323 29.2887V28.6501C109.323 27.8838 108.812 27.373 107.663 27.373C106.513 27.373 106.003 27.7561 105.747 28.6501L104.215 28.3947C104.342 27.7561 104.598 27.2453 105.236 26.7344C105.875 26.3513 106.769 26.0958 107.791 26.0958C108.429 26.0958 108.94 26.0958 109.323 26.2236C109.706 26.3513 110.089 26.479 110.345 26.7344C110.6 26.9898 110.856 27.2453 110.856 27.5007C110.983 27.7561 110.983 28.267 110.983 28.9056V32.4815C110.983 33.2478 111.111 33.7587 111.239 34.3972ZM109.195 30.3104C106.897 30.3104 105.747 30.8213 105.747 31.9707C105.747 32.3538 105.875 32.6093 106.13 32.8647C106.386 33.1201 106.769 33.2478 107.152 33.2478C107.791 33.2478 108.301 32.9924 108.685 32.6093C109.068 32.2261 109.195 31.7153 109.195 31.0767V30.3104Z" fill="#222222"/>
<path d="M117.624 34.3972V31.2044H115.709L114.176 34.3972H112.261L114.176 30.8213C113.155 30.4381 112.644 29.7995 112.644 28.7778C112.644 28.0116 112.899 27.373 113.41 26.9898C113.921 26.6067 114.559 26.3513 115.326 26.3513H119.412V34.3972H117.624ZM117.624 29.9273V27.7561H115.709C114.942 27.7561 114.559 28.1393 114.559 28.9056C114.559 29.5441 114.942 29.9273 115.581 29.9273H117.624Z" fill="#222222"/>
<path d="M125.67 34.3972V26.3513H132.056V34.3972H130.268V27.7561H127.458V34.3972H125.67Z" fill="#222222"/>
<path d="M133.078 34.3972L135.632 26.3513H137.803L140.23 34.3972H138.314L136.526 27.7561L134.483 34.3972H133.078Z" fill="#222222"/>
<path d="M144.317 34.525C143.167 34.525 142.273 34.1418 141.635 33.2478C140.996 32.3538 140.741 31.4598 140.741 30.3104C140.741 29.161 141.124 28.1393 141.762 27.373C142.401 26.6067 143.423 26.2236 144.444 26.2236C145.466 26.2236 146.36 26.6067 147.126 27.373C147.765 28.1393 148.148 29.161 148.148 30.3104C148.148 31.5875 147.765 32.6093 147.126 33.3755C146.36 34.1418 145.466 34.525 144.317 34.525ZM144.444 32.9924C145.722 32.9924 146.232 32.0984 146.232 30.3104C146.232 29.5441 146.105 28.9056 145.849 28.3947C145.594 27.8838 145.083 27.6284 144.572 27.6284C143.934 27.6284 143.55 27.8838 143.167 28.3947C142.912 28.9056 142.656 29.5441 142.656 30.3104C142.656 31.2044 142.784 31.843 143.167 32.3538C143.423 32.8647 143.806 32.9924 144.444 32.9924Z" fill="#222222"/>
<path d="M149.936 34.3972V26.3513H151.724V32.9924H154.278V26.3513H156.066V32.9924H158.621V26.3513H160.409V32.9924H161.686V36.1852H160.536L160.281 34.3972H149.936Z" fill="#222222"/>
<path d="M169.732 34.3972H168.071C167.944 33.8864 167.816 33.3755 167.816 32.737C167.305 33.8864 166.411 34.525 165.134 34.525C164.368 34.525 163.729 34.2695 163.218 33.8864C162.708 33.3755 162.452 32.8647 162.452 32.0984C162.452 30.3104 164.112 29.2887 167.305 29.2887C167.433 29.2887 167.561 29.2887 167.816 29.2887V28.6501C167.816 27.8838 167.305 27.373 166.156 27.373C165.006 27.373 164.495 27.7561 164.24 28.6501L162.707 28.3947C162.835 27.7561 163.091 27.2453 163.729 26.7344C164.368 26.3513 165.262 26.0958 166.283 26.0958C166.922 26.0958 167.433 26.0958 167.816 26.2236C168.199 26.3513 168.582 26.479 168.838 26.7344C169.093 26.9898 169.349 27.2453 169.349 27.5007C169.476 27.7561 169.476 28.267 169.476 28.9056V32.4815C169.476 33.2478 169.476 33.7587 169.732 34.3972ZM167.688 30.3104C165.389 30.3104 164.24 30.8213 164.24 31.9707C164.24 32.3538 164.368 32.6093 164.623 32.8647C164.879 33.1201 165.262 33.2478 165.645 33.2478C166.283 33.2478 166.794 32.9924 167.177 32.6093C167.561 32.2261 167.688 31.7153 167.688 31.0767V30.3104Z" fill="#222222"/>
<path d="M171.137 32.9924L173.052 26.3513H175.99L177.65 32.9924H178.416V36.1852H177.267L177.011 34.3972H171.903L171.647 36.1852H170.498V32.9924H171.137ZM172.669 32.9924H175.862L174.713 27.7561H174.074L172.669 32.9924Z" fill="#222222"/>
<path d="M183.908 29.161L186.718 34.3972H184.802L182.759 30.5658L181.354 32.0984V34.3972H179.566V26.3513H181.354V28.7778C181.354 29.2887 181.354 29.7995 181.354 30.1827C181.609 29.7995 181.865 29.5441 182.12 29.2887L184.802 26.479H186.59L183.908 29.161Z" fill="#222222"/>
<path d="M194.381 34.3972H192.72C192.593 33.8864 192.465 33.3755 192.465 32.737C191.954 33.8864 191.06 34.525 189.783 34.525C189.017 34.525 188.378 34.2695 187.867 33.8864C187.356 33.3755 187.101 32.8647 187.101 32.0984C187.101 30.3104 188.761 29.2887 191.954 29.2887C192.082 29.2887 192.209 29.2887 192.465 29.2887V28.6501C192.465 27.8838 191.954 27.373 190.805 27.373C189.655 27.373 189.144 27.7561 188.889 28.6501L187.356 28.3947C187.484 27.7561 187.739 27.2453 188.378 26.7344C189.017 26.3513 189.911 26.0958 190.932 26.0958C191.571 26.0958 192.082 26.0958 192.465 26.2236C192.848 26.3513 193.231 26.479 193.487 26.7344C193.742 26.9898 193.997 27.2453 193.997 27.5007C194.125 27.7561 194.125 28.267 194.125 28.9056V32.4815C194.125 33.2478 194.253 33.7587 194.381 34.3972ZM192.337 30.3104C190.038 30.3104 188.889 30.8213 188.889 31.9707C188.889 32.3538 189.017 32.6093 189.272 32.8647C189.527 33.1201 189.911 33.2478 190.294 33.2478C190.932 33.2478 191.443 32.9924 191.826 32.6093C192.209 32.2261 192.337 31.7153 192.337 31.0767V30.3104Z" fill="#222222"/>
<path fill-rule="evenodd" clip-rule="evenodd" d="M31.8008 15.1124C37.5479 16.7727 44.0613 22.2644 44.0613 22.2644L28.3525 37.8455C33.7165 27.8838 32.8225 19.8379 31.8008 15.1124Z" fill="#015894"/>
<path fill-rule="evenodd" clip-rule="evenodd" d="M24.0102 16.3896C25.6705 15.6233 27.7139 15.1125 30.1405 14.9847C30.7791 17.539 31.4176 21.3704 30.7791 26.2236C29.2465 20.0933 25.1596 17.1559 24.0102 16.3896Z" fill="#015894"/>
<path fill-rule="evenodd" clip-rule="evenodd" d="M14.9425 12.4305C16.7305 6.68333 22.0945 0.169922 22.0945 0.169922L37.5479 15.8787C27.7139 10.5147 19.6679 11.4087 14.9425 12.4305Z" fill="#015894"/>
<path fill-rule="evenodd" clip-rule="evenodd" d="M16.2197 20.221C15.4534 18.5607 14.9425 16.5173 14.8148 14.0907C17.3691 13.4522 21.2005 12.8136 26.0536 13.4522C19.9234 14.9847 16.986 19.0716 16.2197 20.221Z" fill="#015894"/>
<path fill-rule="evenodd" clip-rule="evenodd" d="M12.2605 29.2887C6.51341 27.5007 0 22.1367 0 22.1367L15.7088 6.55562C10.3448 16.5173 11.2388 24.5633 12.2605 29.2887Z" fill="#015894"/>
<path fill-rule="evenodd" clip-rule="evenodd" d="M20.0511 28.0116C18.3908 28.7778 16.3474 29.2887 13.9208 29.4164C13.2822 26.8621 12.6437 23.0307 13.2822 18.1776C14.8148 24.3079 18.9017 27.2453 20.0511 28.0116Z" fill="#015894"/>
<path fill-rule="evenodd" clip-rule="evenodd" d="M29.1188 31.9707C27.4585 37.7178 21.9668 44.2312 21.9668 44.2312L6.3857 28.5224C16.3474 33.8864 24.3934 32.9924 29.1188 31.9707Z" fill="#015894"/>
<path fill-rule="evenodd" clip-rule="evenodd" d="M27.8416 24.1801C28.6079 25.8404 29.1188 27.8838 29.2465 30.3104C26.6922 30.949 22.8608 31.5875 18.0077 30.949C24.1379 29.4164 27.0753 25.3296 27.8416 24.1801Z" fill="#015894"/>
</svg>
